SeanSlab_0.ufo
<glyph name="numbersign" format="1">
  <advance width="582"/>
  <unicode hex="0023"/>
  <outline>
    <contour>
      <point x="41" y="217" type="line"/>
      <point x="465" y="217" type="line"/>
      <point x="493" y="328" type="line"/>
      <point x="69" y="328" type="line"/>
    </contour>
    <contour>
      <point x="89" y="429" type="line"/>
      <point x="515" y="429" type="line"/>
      <point x="543" y="540" type="line"/>
      <point x="115" y="540" type="line"/>
    </contour>
    <contour>
      <point x="386" y="39" type="line"/>
      <point x="548" y="722" type="line"/>
      <point x="405" y="722" type="line"/>
      <point x="243" y="39" type="line"/>
    </contour>
    <contour>
      <point x="173" y="46" type="line"/>
      <point x="335" y="722" type="line"/>
      <point x="192" y="722" type="line"/>
      <point x="36" y="46" type="line"/>
    </contour>
  </outline>
</glyph>
<glyph name="dollar" format="1">
  <advance width="511"/>
  <unicode hex="0024"/>
  <outline>
    <contour>
      <point x="174" y="91" type="curve"/>
      <point x="174" y="211"/>
      <point x="174" y="91"/>
      <point x="174" y="211" type="curve"/>
      <point x="62" y="211"/>
      <point x="174" y="211"/>
      <point x="62" y="211" type="curve"/>
      <point x="62" y="91"/>
      <point x="62" y="211"/>
      <point x="62" y="91" type="curve"/>
      <point x="174" y="91"/>
      <point x="62" y="91"/>
    </contour>
    <contour>
      <point x="320" y="636" type="curve"/>
      <point x="320" y="516"/>
      <point x="320" y="636"/>
      <point x="320" y="516" type="curve"/>
      <point x="432" y="516"/>
      <point x="320" y="516"/>
      <point x="432" y="516" type="curve"/>
      <point x="432" y="636"/>
      <point x="432" y="516"/>
      <point x="432" y="636" type="curve"/>
      <point x="320" y="636"/>
      <point x="432" y="636"/>
    </contour>
    <contour>
      <point x="315" y="-42" type="curve"/>
      <point x="315" y="-12"/>
      <point x="315" y="67"/>
      <point x="315" y="97" type="curve"/>
      <point x="172" y="97"/>
      <point x="315" y="97"/>
      <point x="172" y="97" type="curve"/>
      <point x="172" y="67"/>
      <point x="172" y="-12"/>
      <point x="172" y="-42" type="curve"/>
      <point x="315" y="-42"/>
      <point x="172" y="-42"/>
    </contour>
    <contour>
      <point x="324" y="632" type="curve"/>
      <point x="324" y="662"/>
      <point x="324" y="743"/>
      <point x="324" y="773" type="curve"/>
      <point x="181" y="773"/>
      <point x="324" y="773"/>
      <point x="181" y="773" type="curve"/>
      <point x="181" y="743"/>
      <point x="181" y="662"/>
      <point x="181" y="632" type="curve"/>
      <point x="324" y="632"/>
      <point x="181" y="632"/>
    </contour>
    <contour>
      <point x="62" y="91" type="curve"/>
      <point x="110" y="63"/>
      <point x="169" y="42"/>
      <point x="237" y="42" type="curve"/>
      <point x="373" y="42"/>
      <point x="476" y="109"/>
      <point x="476" y="221" type="curve"/>
      <point x="476" y="317"/>
      <point x="394" y="374"/>
      <point x="296" y="423" type="curve"/>
      <point x="242" y="450"/>
      <point x="195" y="469"/>
      <point x="195" y="520" type="curve"/>
      <point x="195" y="552"/>
      <point x="217" y="578"/>
      <point x="253" y="578" type="curve"/>
      <point x="296" y="578"/>
      <point x="325" y="564"/>
      <point x="361" y="542" type="curve"/>
      <point x="432" y="636"/>
      <point x="361" y="542"/>
      <point x="432" y="636" type="curve"/>
      <point x="376" y="670"/>
      <point x="328" y="688"/>
      <point x="259" y="688" type="curve"/>
      <point x="138" y="688"/>
      <point x="52" y="623"/>
      <point x="52" y="520" type="curve"/>
      <point x="52" y="425"/>
      <point x="117" y="370"/>
      <point x="212" y="323" type="curve"/>
      <point x="271" y="295"/>
      <point x="333" y="273"/>
      <point x="333" y="216" type="curve"/>
      <point x="333" y="176"/>
      <point x="297" y="152"/>
      <point x="250" y="152" type="curve"/>
      <point x="206" y="152"/>
      <point x="170" y="173"/>
      <point x="140" y="190" type="curve"/>
      <point x="62" y="91"/>
      <point x="140" y="190"/>
    </contour>
  </outline>
</glyph>
<glyph name="parenleft" format="1">
  <advance width="336"/>
  <unicode hex="0028"/>
  <outline>
    <contour>
      <point x="334" y="-204" type="curve"/>
      <point x="207" y="-37"/>
      <point x="176" y="116"/>
      <point x="176" y="326" type="curve"/>
      <point x="176" y="537"/>
      <point x="208" y="690"/>
      <point x="333" y="860" type="curve"/>
      <point x="248" y="931"/>
      <point x="333" y="860"/>
      <point x="248" y="931" type="curve"/>
      <point x="100" y="737"/>
      <point x="37" y="571"/>
      <point x="37" y="326" type="curve"/>
      <point x="37" y="80"/>
      <point x="101" y="-86"/>
      <point x="249" y="-282" type="curve"/>
      <point x="334" y="-204"/>
      <point x="249" y="-282"/>
    </contour>
  </outline>
</glyph>
<glyph name="asterisk" format="1">
  <advance width="526"/>
  <unicode hex="002A"/>
  <outline>
    <contour>
      <point x="306" y="541" type="line"/>
      <point x="313" y="759" type="line"/>
      <point x="213" y="759" type="line"/>
      <point x="220" y="541" type="line"/>
    </contour>
    <contour>
      <point x="277" y="500" type="line"/>
      <point x="485" y="568" type="line"/>
      <point x="450" y="662" type="line"/>
      <point x="248" y="581" type="line"/>
    </contour>
    <contour>
      <point x="230" y="513" type="line"/>
      <point x="365" y="341" type="line"/>
      <point x="442" y="406" type="line"/>
      <point x="296" y="568" type="line"/>
    </contour>
    <contour>
      <point x="230" y="569" type="line"/>
      <point x="85" y="406" type="line"/>
      <point x="161" y="342" type="line"/>
      <point x="296" y="514" type="line"/>
    </contour>
    <contour>
      <point x="278" y="581" type="line"/>
      <point x="76" y="662" type="line"/>
      <point x="41" y="568" type="line"/>
      <point x="249" y="500" type="line"/>
    </contour>
  </outline>
</glyph>
<glyph name="plus" format="1">
  <advance width="595"/>
  <unicode hex="002B"/>
  <outline>
    <contour>
      <point x="37" y="255" type="curve"/>
      <point x="37" y="255"/>
      <point x="558" y="255"/>
      <point x="558" y="255" type="curve"/>
      <point x="558" y="376"/>
      <point x="558" y="255"/>
      <point x="558" y="376" type="curve"/>
      <point x="558" y="376"/>
      <point x="37" y="376"/>
      <point x="37" y="376" type="curve"/>
      <point x="37" y="255"/>
      <point x="37" y="376"/>
    </contour>
    <contour>
      <point x="364" y="58" type="curve"/>
      <point x="364" y="58"/>
      <point x="364" y="578"/>
      <point x="364" y="578" type="curve"/>
      <point x="221" y="578"/>
      <point x="374" y="578"/>
      <point x="231" y="578" type="curve"/>
      <point x="231" y="578"/>
      <point x="231" y="58"/>
      <point x="231" y="58" type="curve"/>
      <point x="374" y="58"/>
      <point x="221" y="58"/>
    </contour>
  </outline>
</glyph>
<glyph name="hyphen" format="1">
  <advance width="343"/>
  <unicode hex="002D"/>
  <outline>
    <contour>
      <point x="62" y="223" type="curve"/>
      <point x="135" y="223"/>
      <point x="208" y="223"/>
      <point x="281" y="223" type="curve"/>
      <point x="281" y="344"/>
      <point x="281" y="223"/>
      <point x="281" y="344" type="curve"/>
      <point x="208" y="344"/>
      <point x="135" y="344"/>
      <point x="62" y="344" type="curve"/>
      <point x="62" y="223"/>
      <point x="62" y="344"/>
    </contour>
  </outline>
</glyph>
<glyph name="slash" format="1">
  <advance width="508"/>
  <unicode hex="002F"/>
  <outline>
    <contour>
      <point x="166" y="-13" type="curve"/>
      <point x="272" y="252"/>
      <point x="379" y="517"/>
      <point x="485" y="782" type="curve"/>
      <point x="342" y="782"/>
      <point x="485" y="782"/>
      <point x="342" y="782" type="curve"/>
      <point x="236" y="517"/>
      <point x="129" y="252"/>
      <point x="23" y="-13" type="curve"/>
      <point x="166" y="-13"/>
      <point x="23" y="-13"/>
    </contour>
  </outline>
</glyph>
<glyph name="zero" format="1">
  <advance width="638"/>
  <unicode hex="0030"/>
  <outline>
    <contour>
      <point x="187" y="360" type="curve"/>
      <point x="187" y="497"/>
      <point x="197" y="612"/>
      <point x="315" y="612" type="curve"/>
      <point x="433" y="612"/>
      <point x="453" y="500"/>
      <point x="453" y="363" type="curve"/>
      <point x="453" y="226"/>
      <point x="443" y="111"/>
      <point x="326" y="111" type="curve"/>
      <point x="207" y="111"/>
      <point x="187" y="223"/>
      <point x="187" y="360" type="curve"/>
      <point x="50" y="360"/>
      <point x="187" y="360"/>
      <point x="50" y="360" type="curve"/>
      <point x="50" y="150"/>
      <point x="128" y="-5"/>
      <point x="319" y="-5" type="curve"/>
      <point x="512" y="-5"/>
      <point x="589" y="150"/>
      <point x="589" y="363" type="curve"/>
      <point x="589" y="572"/>
      <point x="516" y="727"/>
      <point x="328" y="727" type="curve"/>
      <point x="133" y="727"/>
      <point x="50" y="573"/>
      <point x="50" y="360" type="curve"/>
      <point x="187" y="360"/>
      <point x="50" y="360"/>
    </contour>
  </outline>
</glyph>
<glyph name="three" format="1">
  <advance width="485"/>
  <unicode hex="0033"/>
  <outline>
    <contour>
      <point x="38" y="60" type="curve"/>
      <point x="92" y="20"/>
      <point x="137" y="-5"/>
      <point x="205" y="-5" type="curve"/>
      <point x="348" y="-5"/>
      <point x="437" y="69"/>
      <point x="437" y="209" type="curve"/>
      <point x="437" y="332"/>
      <point x="323" y="407"/>
      <point x="139" y="407" type="curve"/>
      <point x="139" y="314"/>
      <point x="139" y="407"/>
      <point x="139" y="314" type="curve"/>
      <point x="234" y="314"/>
      <point x="300" y="268"/>
      <point x="300" y="204" type="curve"/>
      <point x="300" y="147"/>
      <point x="264" y="111"/>
      <point x="211" y="111" type="curve"/>
      <point x="174" y="111"/>
      <point x="147" y="122"/>
      <point x="116" y="143" type="curve"/>
      <point x="38" y="60"/>
      <point x="116" y="143"/>
    </contour>
    <contour>
      <point x="129" y="562" type="curve"/>
      <point x="143" y="583"/>
      <point x="168" y="612"/>
      <point x="202" y="612" type="curve"/>
      <point x="251" y="612"/>
      <point x="276" y="578"/>
      <point x="276" y="525" type="curve"/>
      <point x="276" y="470"/>
      <point x="222" y="428"/>
      <point x="139" y="428" type="curve"/>
      <point x="139" y="335"/>
      <point x="139" y="428"/>
      <point x="139" y="335" type="curve"/>
      <point x="298" y="335"/>
      <point x="411" y="407"/>
      <point x="411" y="529" type="curve"/>
      <point x="411" y="654"/>
      <point x="336" y="727"/>
      <point x="215" y="727" type="curve"/>
      <point x="137" y="727"/>
      <point x="70" y="684"/>
      <point x="38" y="633" type="curve"/>
      <point x="129" y="562"/>
      <point x="38" y="633"/>
    </contour>
  </outline>
</glyph>
<glyph name="five" format="1">
  <advance width="478"/>
  <unicode hex="0035"/>
  <outline>
    <contour>
      <point x="53" y="722" type="curve"/>
      <point x="53" y="625"/>
      <point x="53" y="517"/>
      <point x="53" y="378" type="curve"/>
      <point x="189" y="335"/>
      <point x="53" y="378"/>
      <point x="189" y="335" type="curve"/>
      <point x="189" y="424"/>
      <point x="189" y="523"/>
      <point x="189" y="612" type="curve"/>
      <point x="53" y="722"/>
      <point x="189" y="612"/>
    </contour>
    <contour>
      <point x="189" y="335" type="curve"/>
      <point x="198" y="352"/>
      <point x="209" y="365"/>
      <point x="231" y="365" type="curve"/>
      <point x="280" y="365"/>
      <point x="291" y="310"/>
      <point x="291" y="244" type="curve"/>
      <point x="291" y="175"/>
      <point x="264" y="110"/>
      <point x="204" y="110" type="curve"/>
      <point x="167" y="110"/>
      <point x="143" y="121"/>
      <point x="113" y="142" type="curve"/>
      <point x="42" y="43"/>
      <point x="113" y="142"/>
      <point x="42" y="43" type="curve"/>
      <point x="92" y="10"/>
      <point x="137" y="-5"/>
      <point x="197" y="-5" type="curve"/>
      <point x="336" y="-5"/>
      <point x="434" y="100"/>
      <point x="434" y="242" type="curve"/>
      <point x="434" y="379"/>
      <point x="371" y="483"/>
      <point x="252" y="483" type="curve"/>
      <point x="184" y="483"/>
      <point x="122" y="464"/>
      <point x="53" y="378" type="curve"/>
      <point x="189" y="335"/>
      <point x="53" y="378"/>
    </contour>
    <contour>
      <point x="407" y="722" type="curve"/>
      <point x="302" y="722"/>
      <point x="158" y="722"/>
      <point x="53" y="722" type="curve"/>
      <point x="189" y="612"/>
      <point x="53" y="722"/>
      <point x="189" y="612" type="curve"/>
      <point x="249" y="612"/>
      <point x="347" y="612"/>
      <point x="407" y="612" type="curve"/>
      <point x="407" y="722"/>
      <point x="407" y="612"/>
    </contour>
  </outline>
</glyph>
<glyph name="greater" format="1">
  <advance width="558"/>
  <unicode hex="003E"/>
  <outline>
    <contour>
      <point x="66" y="-25" type="curve"/>
      <point x="218" y="65"/>
      <point x="371" y="155"/>
      <point x="523" y="245" type="curve"/>
      <point x="523" y="367"/>
      <point x="523" y="245"/>
      <point x="523" y="367" type="curve"/>
      <point x="371" y="277"/>
      <point x="218" y="187"/>
      <point x="66" y="97" type="curve"/>
      <point x="66" y="-25"/>
      <point x="66" y="97"/>
    </contour>
    <contour>
      <point x="59" y="509" type="curve"/>
      <point x="213" y="421"/>
      <point x="368" y="333"/>
      <point x="523" y="245" type="curve"/>
      <point x="523" y="367"/>
      <point x="523" y="245"/>
      <point x="523" y="367" type="curve"/>
      <point x="368" y="455"/>
      <point x="213" y="543"/>
      <point x="59" y="631" type="curve"/>
      <point x="59" y="509"/>
      <point x="59" y="631"/>
    </contour>
  </outline>
</glyph>
<glyph name="at" format="1">
  <advance width="732"/>
  <unicode hex="0040"/>
  <outline>
    <contour>
      <point x="471" y="-4" type="curve"/>
      <point x="441" y="-23"/>
      <point x="418" y="-31"/>
      <point x="382" y="-31" type="curve"/>
      <point x="250" y="-31"/>
      <point x="170" y="71"/>
      <point x="170" y="214" type="curve"/>
      <point x="170" y="350"/>
      <point x="244" y="447"/>
      <point x="370" y="447" type="curve"/>
      <point x="492" y="447"/>
      <point x="564" y="348"/>
      <point x="564" y="213" type="curve"/>
      <point x="564" y="167"/>
      <point x="565" y="127"/>
      <point x="548" y="127" type="curve"/>
      <point x="534" y="127"/>
      <point x="535" y="167"/>
      <point x="535" y="218" type="curve"/>
      <point x="535" y="332"/>
      <point x="476" y="412"/>
      <point x="368" y="412" type="curve"/>
      <point x="249" y="412"/>
      <point x="200" y="335"/>
      <point x="200" y="214" type="curve"/>
      <point x="200" y="92"/>
      <point x="244" y="10"/>
      <point x="357" y="10" type="curve"/>
      <point x="459" y="10"/>
      <point x="502" y="88"/>
      <point x="515" y="198" type="curve"/>
      <point x="424" y="220"/>
      <point x="515" y="198"/>
      <point x="424" y="220" type="curve"/>
      <point x="414" y="170"/>
      <point x="420" y="120"/>
      <point x="372" y="120" type="curve"/>
      <point x="336" y="120"/>
      <point x="326" y="165"/>
      <point x="326" y="220" type="curve"/>
      <point x="326" y="263"/>
      <point x="328" y="301"/>
      <point x="362" y="301" type="curve"/>
      <point x="406" y="301"/>
      <point x="405" y="261"/>
      <point x="405" y="212" type="curve"/>
      <point x="405" y="104"/>
      <point x="439" y="22"/>
      <point x="537" y="22" type="curve"/>
      <point x="641" y="22"/>
      <point x="683" y="104"/>
      <point x="683" y="219" type="curve"/>
      <point x="683" y="425"/>
      <point x="570" y="562"/>
      <point x="373" y="562" type="curve"/>
      <point x="163" y="562"/>
      <point x="45" y="424"/>
      <point x="45" y="208" type="curve"/>
      <point x="45" y="-5"/>
      <point x="169" y="-142"/>
      <point x="376" y="-142" type="curve"/>
      <point x="439" y="-142"/>
      <point x="473" y="-132"/>
      <point x="526" y="-98" type="curve"/>
      <point x="471" y="-4"/>
      <point x="526" y="-98"/>
    </contour>
  </outline>
</glyph>
<glyph name="F" format="1">
  <advance width="522"/>
  <unicode hex="0046"/>
  <outline>
    <contour>
      <point x="199" y="0" type="curve"/>
      <point x="245" y="0"/>
      <point x="199" y="0"/>
      <point x="337" y="0" type="curve"/>
      <point x="337" y="110"/>
      <point x="337" y="0"/>
      <point x="337" y="110" type="curve"/>
      <point x="199" y="110"/>
      <point x="337" y="110"/>
      <point x="199" y="110" type="curve"/>
      <point x="199" y="0"/>
      <point x="199" y="110"/>
    </contour>
    <contour>
      <point x="199" y="722" type="curve"/>
      <point x="154" y="722"/>
      <point x="108" y="722"/>
      <point x="62" y="722" type="curve"/>
      <point x="62" y="612"/>
      <point x="62" y="722"/>
      <point x="62" y="612" type="curve"/>
      <point x="199" y="612"/>
      <point x="62" y="612"/>
      <point x="199" y="612" type="curve"/>
      <point x="199" y="722"/>
      <point x="199" y="612"/>
    </contour>
    <contour>
      <point x="199" y="110" type="curve"/>
      <point x="62" y="110"/>
      <point x="199" y="110"/>
      <point x="62" y="110" type="curve"/>
      <point x="62" y="0"/>
      <point x="62" y="110"/>
      <point x="62" y="0" type="curve"/>
      <point x="108" y="0"/>
      <point x="154" y="0"/>
      <point x="199" y="0" type="curve"/>
      <point x="199" y="110"/>
      <point x="199" y="0"/>
    </contour>
    <contour>
      <point x="387" y="667" type="curve"/>
      <point x="387" y="547"/>
      <point x="387" y="667"/>
      <point x="387" y="547" type="curve"/>
      <point x="499" y="547"/>
      <point x="387" y="547"/>
      <point x="499" y="547" type="curve"/>
      <point x="499" y="667"/>
      <point x="499" y="547"/>
      <point x="499" y="667" type="curve"/>
      <point x="387" y="667"/>
      <point x="499" y="667"/>
    </contour>
    <contour>
      <point x="202" y="317" type="curve"/>
      <point x="283" y="317"/>
      <point x="363" y="317"/>
      <point x="444" y="317" type="curve"/>
      <point x="444" y="428"/>
      <point x="444" y="317"/>
      <point x="444" y="428" type="curve"/>
      <point x="363" y="428"/>
      <point x="283" y="428"/>
      <point x="202" y="428" type="curve"/>
      <point x="202" y="317"/>
      <point x="202" y="428"/>
    </contour>
    <contour>
      <point x="271" y="0" type="curve"/>
      <point x="271" y="0"/>
      <point x="271" y="722"/>
      <point x="271" y="722" type="curve"/>
      <point x="128" y="722"/>
      <point x="271" y="722"/>
      <point x="128" y="722" type="curve"/>
      <point x="128" y="481"/>
      <point x="128" y="241"/>
      <point x="128" y="0" type="curve"/>
      <point x="271" y="0"/>
      <point x="128" y="0"/>
    </contour>
    <contour>
      <point x="191" y="612" type="curve"/>
      <point x="293" y="612"/>
      <point x="396" y="612"/>
      <point x="499" y="612" type="curve"/>
      <point x="499" y="722"/>
      <point x="499" y="612"/>
      <point x="499" y="722" type="curve"/>
      <point x="396" y="722"/>
      <point x="293" y="722"/>
      <point x="191" y="722" type="curve"/>
      <point x="191" y="612"/>
      <point x="191" y="722"/>
    </contour>
  </outline>
</glyph>
<glyph name="G" format="1">
  <advance width="665"/>
  <unicode hex="0047"/>
  <outline>
    <contour>
      <point x="352" y="780" type="move" name="top"/>
    </contour>
    <contour>
      <point x="402" y="0" type="move" name="bottom"/>
    </contour>
    <contour>
      <point x="483" y="645" type="curve"/>
      <point x="483" y="505"/>
      <point x="483" y="645"/>
      <point x="483" y="505" type="curve"/>
      <point x="595" y="505"/>
      <point x="483" y="505"/>
      <point x="595" y="505" type="curve"/>
      <point x="595" y="645"/>
      <point x="595" y="505"/>
      <point x="595" y="645" type="curve"/>
      <point x="483" y="645"/>
      <point x="595" y="645"/>
    </contour>
    <contour>
      <point x="570" y="370" type="curve"/>
      <point x="515" y="370"/>
      <point x="460" y="370"/>
      <point x="405" y="370" type="curve"/>
      <point x="405" y="260"/>
      <point x="405" y="370"/>
      <point x="405" y="260" type="curve"/>
      <point x="460" y="260"/>
      <point x="515" y="260"/>
      <point x="570" y="260" type="curve"/>
      <point x="570" y="370"/>
      <point x="570" y="260"/>
    </contour>
    <contour>
      <point x="607" y="79" type="curve"/>
      <point x="607" y="176"/>
      <point x="607" y="273"/>
      <point x="607" y="370" type="curve"/>
      <point x="477" y="370"/>
      <point x="607" y="370"/>
      <point x="477" y="370" type="curve"/>
      <point x="477" y="273"/>
      <point x="477" y="176"/>
      <point x="477" y="79" type="curve"/>
      <point x="607" y="79"/>
      <point x="477" y="79"/>
    </contour>
    <contour>
      <point x="595" y="645" type="curve"/>
      <point x="521" y="702"/>
      <point x="449" y="727"/>
      <point x="356" y="727" type="curve"/>
      <point x="150" y="727"/>
      <point x="47" y="580"/>
      <point x="47" y="360" type="curve"/>
      <point x="47" y="139"/>
      <point x="156" y="-5"/>
      <point x="364" y="-5" type="curve"/>
      <point x="463" y="-5"/>
      <point x="525" y="24"/>
      <point x="607" y="79" type="curve"/>
      <point x="536" y="162"/>
      <point x="607" y="79"/>
      <point x="536" y="162" type="curve"/>
      <point x="479" y="124"/>
      <point x="432" y="111"/>
      <point x="364" y="111" type="curve"/>
      <point x="233" y="111"/>
      <point x="190" y="222"/>
      <point x="190" y="371" type="curve"/>
      <point x="190" y="508"/>
      <point x="234" y="612"/>
      <point x="356" y="612" type="curve"/>
      <point x="421" y="612"/>
      <point x="471" y="591"/>
      <point x="523" y="551" type="curve"/>
      <point x="595" y="645"/>
      <point x="523" y="551"/>
    </contour>
  </outline>
</glyph>
<glyph name="H" format="1">
  <advance width="719"/>
  <unicode hex="0048"/>
  <outline>
    <contour>
      <point x="545" y="612" type="curve"/>
      <point x="682" y="612"/>
      <point x="545" y="612"/>
      <point x="682" y="612" type="curve"/>
      <point x="682" y="722"/>
      <point x="682" y="612"/>
      <point x="682" y="722" type="curve"/>
      <point x="636" y="722"/>
      <point x="590" y="722"/>
      <point x="545" y="722" type="curve"/>
      <point x="545" y="612"/>
      <point x="545" y="722"/>
    </contour>
    <contour>
      <point x="545" y="0" type="curve"/>
      <point x="590" y="0"/>
      <point x="636" y="0"/>
      <point x="682" y="0" type="curve"/>
      <point x="682" y="110"/>
      <point x="682" y="0"/>
      <point x="682" y="110" type="curve"/>
      <point x="545" y="110"/>
      <point x="682" y="110"/>
      <point x="545" y="110" type="curve"/>
      <point x="545" y="0"/>
      <point x="545" y="110"/>
    </contour>
    <contour>
      <point x="545" y="110" type="curve"/>
      <point x="408" y="110"/>
      <point x="545" y="110"/>
      <point x="408" y="110" type="curve"/>
      <point x="408" y="0"/>
      <point x="408" y="110"/>
      <point x="408" y="0" type="curve"/>
      <point x="453" y="0"/>
      <point x="499" y="0"/>
      <point x="545" y="0" type="curve"/>
      <point x="545" y="110"/>
      <point x="545" y="0"/>
    </contour>
    <contour>
      <point x="545" y="722" type="curve"/>
      <point x="499" y="722"/>
      <point x="453" y="722"/>
      <point x="408" y="722" type="curve"/>
      <point x="408" y="612"/>
      <point x="408" y="722"/>
      <point x="408" y="612" type="curve"/>
      <point x="545" y="612"/>
      <point x="408" y="612"/>
      <point x="545" y="612" type="curve"/>
      <point x="545" y="722"/>
      <point x="545" y="612"/>
    </contour>
    <contour>
      <point x="175" y="612" type="curve"/>
      <point x="313" y="612"/>
      <point x="175" y="612"/>
      <point x="313" y="612" type="curve"/>
      <point x="313" y="722"/>
      <point x="313" y="612"/>
      <point x="313" y="722" type="curve"/>
      <point x="267" y="722"/>
      <point x="221" y="722"/>
      <point x="175" y="722" type="curve"/>
      <point x="175" y="612"/>
      <point x="175" y="722"/>
    </contour>
    <contour>
      <point x="175" y="722" type="curve"/>
      <point x="130" y="722"/>
      <point x="84" y="722"/>
      <point x="38" y="722" type="curve"/>
      <point x="38" y="612"/>
      <point x="38" y="722"/>
      <point x="38" y="612" type="curve"/>
      <point x="175" y="612"/>
      <point x="38" y="612"/>
      <point x="175" y="612" type="curve"/>
      <point x="175" y="722"/>
      <point x="175" y="612"/>
    </contour>
    <contour>
      <point x="175" y="0" type="curve"/>
      <point x="221" y="0"/>
      <point x="175" y="0"/>
      <point x="313" y="0" type="curve"/>
      <point x="313" y="110"/>
      <point x="313" y="0"/>
      <point x="313" y="110" type="curve"/>
      <point x="175" y="110"/>
      <point x="313" y="110"/>
      <point x="175" y="110" type="curve"/>
      <point x="175" y="0"/>
      <point x="175" y="110"/>
    </contour>
    <contour>
      <point x="175" y="110" type="curve"/>
      <point x="38" y="110"/>
      <point x="175" y="110"/>
      <point x="38" y="110" type="curve"/>
      <point x="38" y="0"/>
      <point x="38" y="110"/>
      <point x="38" y="0" type="curve"/>
      <point x="84" y="0"/>
      <point x="130" y="0"/>
      <point x="175" y="0" type="curve"/>
      <point x="175" y="110"/>
      <point x="175" y="0"/>
    </contour>
    <contour>
      <point x="247" y="0" type="curve"/>
      <point x="247" y="0"/>
      <point x="247" y="722"/>
      <point x="247" y="722" type="curve"/>
      <point x="104" y="722"/>
      <point x="247" y="722"/>
      <point x="104" y="722" type="curve"/>
      <point x="104" y="481"/>
      <point x="104" y="241"/>
      <point x="104" y="0" type="curve"/>
      <point x="247" y="0"/>
      <point x="104" y="0"/>
    </contour>
    <contour>
      <point x="543" y="418" type="curve"/>
      <point x="420" y="418"/>
      <point x="297" y="418"/>
      <point x="175" y="418" type="curve"/>
      <point x="175" y="307"/>
      <point x="175" y="418"/>
      <point x="175" y="307" type="curve"/>
      <point x="297" y="307"/>
      <point x="420" y="307"/>
      <point x="543" y="307" type="curve"/>
      <point x="543" y="418"/>
      <point x="543" y="307"/>
    </contour>
    <contour>
      <point x="616" y="47" type="curve"/>
      <point x="616" y="256"/>
      <point x="616" y="466"/>
      <point x="616" y="675" type="curve"/>
      <point x="473" y="675"/>
      <point x="616" y="675"/>
      <point x="473" y="675" type="curve"/>
      <point x="473" y="675"/>
      <point x="473" y="47"/>
      <point x="473" y="47" type="curve"/>
      <point x="616" y="47"/>
      <point x="473" y="47"/>
    </contour>
  </outline>
</glyph>
<glyph name="I" format="1">
  <advance width="352"/>
  <unicode hex="0049"/>
  <outline>
    <contour>
      <point x="178" y="780" type="move" name="top"/>
    </contour>
    <contour>
      <point x="236" y="5" type="move" name="bottom"/>
    </contour>
    <contour>
      <point x="177" y="722" type="curve"/>
      <point x="131" y="722"/>
      <point x="85" y="722"/>
      <point x="39" y="722" type="curve"/>
      <point x="39" y="612"/>
      <point x="39" y="722"/>
      <point x="39" y="612" type="curve"/>
      <point x="177" y="612"/>
      <point x="39" y="612"/>
      <point x="177" y="612" type="curve"/>
      <point x="177" y="722"/>
      <point x="177" y="612"/>
    </contour>
    <contour>
      <point x="177" y="612" type="curve"/>
      <point x="314" y="612"/>
      <point x="177" y="612"/>
      <point x="314" y="612" type="curve"/>
      <point x="314" y="722"/>
      <point x="314" y="612"/>
      <point x="314" y="722" type="curve"/>
      <point x="268" y="722"/>
      <point x="222" y="722"/>
      <point x="177" y="722" type="curve"/>
      <point x="177" y="612"/>
      <point x="177" y="722"/>
    </contour>
    <contour>
      <point x="177" y="0" type="curve"/>
      <point x="222" y="0"/>
      <point x="268" y="0"/>
      <point x="314" y="0" type="curve"/>
      <point x="314" y="110"/>
      <point x="314" y="0"/>
      <point x="314" y="110" type="curve"/>
      <point x="177" y="110"/>
      <point x="314" y="110"/>
      <point x="177" y="110" type="curve"/>
      <point x="177" y="0"/>
      <point x="177" y="110"/>
    </contour>
    <contour>
      <point x="177" y="110" type="curve"/>
      <point x="39" y="110"/>
      <point x="177" y="110"/>
      <point x="39" y="110" type="curve"/>
      <point x="39" y="0"/>
      <point x="39" y="110"/>
      <point x="39" y="0" type="curve"/>
      <point x="85" y="0"/>
      <point x="131" y="0"/>
      <point x="177" y="0" type="curve"/>
      <point x="177" y="110"/>
      <point x="177" y="0"/>
    </contour>
    <contour>
      <point x="247" y="0" type="curve"/>
      <point x="247" y="241"/>
      <point x="247" y="481"/>
      <point x="247" y="722" type="curve"/>
      <point x="104" y="722"/>
      <point x="247" y="722"/>
      <point x="104" y="722" type="curve"/>
      <point x="104" y="481"/>
      <point x="104" y="241"/>
      <point x="104" y="0" type="curve"/>
      <point x="247" y="0"/>
      <point x="104" y="0"/>
    </contour>
  </outline>
</glyph>
<glyph name="K" format="1">
  <advance width="654"/>
  <unicode hex="004B"/>
  <outline>
    <contour>
      <point x="355" y="0" type="move" name="bottom"/>
    </contour>
    <contour>
      <point x="488" y="722" type="curve"/>
      <point x="441" y="722"/>
      <point x="388" y="722"/>
      <point x="343" y="722" type="curve"/>
      <point x="343" y="612"/>
      <point x="343" y="722"/>
      <point x="343" y="612" type="curve"/>
      <point x="481" y="612"/>
      <point x="349" y="612"/>
      <point x="488" y="612" type="curve"/>
      <point x="488" y="722"/>
      <point x="488" y="612"/>
    </contour>
    <contour>
      <point x="484" y="0" type="curve"/>
      <point x="550" y="0"/>
      <point x="557" y="0"/>
      <point x="623" y="0" type="curve"/>
      <point x="623" y="110"/>
      <point x="623" y="0"/>
      <point x="623" y="110" type="curve"/>
      <point x="427" y="110"/>
      <point x="680" y="110"/>
      <point x="484" y="110" type="curve"/>
      <point x="484" y="0"/>
      <point x="484" y="110"/>
    </contour>
    <contour>
      <point x="458" y="612" type="curve"/>
      <point x="595" y="612"/>
      <point x="458" y="612"/>
      <point x="595" y="612" type="curve"/>
      <point x="595" y="722"/>
      <point x="595" y="612"/>
      <point x="595" y="722" type="curve"/>
      <point x="550" y="722"/>
      <point x="504" y="722"/>
      <point x="458" y="722" type="curve"/>
      <point x="458" y="612"/>
      <point x="458" y="722"/>
    </contour>
    <contour>
      <point x="171" y="722" type="curve"/>
      <point x="127" y="722"/>
      <point x="82" y="722"/>
      <point x="38" y="722" type="curve"/>
      <point x="38" y="612"/>
      <point x="38" y="722"/>
      <point x="38" y="612" type="curve"/>
      <point x="171" y="612"/>
      <point x="38" y="612"/>
      <point x="171" y="612" type="curve"/>
      <point x="171" y="722"/>
      <point x="171" y="612"/>
    </contour>
    <contour>
      <point x="171" y="612" type="curve"/>
      <point x="309" y="612"/>
      <point x="135" y="612"/>
      <point x="273" y="612" type="curve"/>
      <point x="273" y="722"/>
      <point x="273" y="612"/>
      <point x="273" y="722" type="curve"/>
      <point x="227" y="722"/>
      <point x="217" y="722"/>
      <point x="171" y="722" type="curve"/>
      <point x="171" y="612"/>
      <point x="171" y="722"/>
    </contour>
    <contour>
      <point x="171" y="0" type="curve"/>
      <point x="221" y="0"/>
      <point x="134" y="0"/>
      <point x="286" y="0" type="curve"/>
      <point x="286" y="110"/>
      <point x="286" y="0"/>
      <point x="286" y="110" type="curve"/>
      <point x="134" y="110"/>
      <point x="322" y="110"/>
      <point x="171" y="110" type="curve"/>
      <point x="171" y="0"/>
      <point x="171" y="110"/>
    </contour>
    <contour>
      <point x="171" y="110" type="curve"/>
      <point x="38" y="110"/>
      <point x="171" y="110"/>
      <point x="38" y="110" type="curve"/>
      <point x="38" y="0"/>
      <point x="38" y="110"/>
      <point x="38" y="0" type="curve"/>
      <point x="82" y="0"/>
      <point x="127" y="0"/>
      <point x="171" y="0" type="curve"/>
      <point x="171" y="110"/>
      <point x="171" y="0"/>
    </contour>
    <contour>
      <point x="463" y="722" type="curve"/>
      <point x="230" y="380" type="line"/>
      <point x="382" y="380"/>
      <point x="230" y="380"/>
      <point x="382" y="380" type="curve"/>
      <point x="562" y="658" type="line"/>
      <point x="463" y="658"/>
      <point x="562" y="722"/>
    </contour>
    <contour>
      <point x="243" y="0" type="curve"/>
      <point x="243" y="0"/>
      <point x="243" y="722"/>
      <point x="243" y="722" type="curve"/>
      <point x="100" y="722"/>
      <point x="243" y="722"/>
      <point x="100" y="722" type="curve"/>
      <point x="100" y="481"/>
      <point x="100" y="241"/>
      <point x="100" y="0" type="curve"/>
      <point x="243" y="0"/>
      <point x="100" y="0"/>
    </contour>
    <contour>
      <point x="594" y="52" type="curve"/>
      <point x="382" y="380" type="line"/>
      <point x="230" y="380"/>
      <point x="382" y="380"/>
      <point x="230" y="380" type="curve"/>
      <point x="480" y="0" type="line"/>
      <point x="594" y="0"/>
      <point x="480" y="52"/>
    </contour>
  </outline>
</glyph>
<glyph name="M" format="1">
  <advance width="806"/>
  <unicode hex="004D"/>
  <outline>
    <contour>
      <point x="661" y="0" type="curve"/>
      <point x="704" y="0"/>
      <point x="747" y="0"/>
      <point x="789" y="0" type="curve"/>
      <point x="789" y="110"/>
      <point x="789" y="0"/>
      <point x="789" y="110" type="curve"/>
      <point x="661" y="110"/>
      <point x="789" y="110"/>
      <point x="661" y="110" type="curve"/>
      <point x="661" y="0"/>
      <point x="661" y="110"/>
    </contour>
    <contour>
      <point x="661" y="110" type="curve"/>
      <point x="544" y="110"/>
      <point x="661" y="110"/>
      <point x="544" y="110" type="curve"/>
      <point x="544" y="0"/>
      <point x="544" y="110"/>
      <point x="544" y="0" type="curve"/>
      <point x="584" y="0"/>
      <point x="623" y="0"/>
      <point x="661" y="0" type="curve"/>
      <point x="661" y="110"/>
      <point x="661" y="0"/>
    </contour>
    <contour>
      <point x="146" y="110" type="curve"/>
      <point x="18" y="110"/>
      <point x="146" y="110"/>
      <point x="18" y="110" type="curve"/>
      <point x="18" y="0"/>
      <point x="18" y="110"/>
      <point x="18" y="0" type="curve"/>
      <point x="61" y="0"/>
      <point x="104" y="0"/>
      <point x="146" y="0" type="curve"/>
      <point x="146" y="110"/>
      <point x="146" y="0"/>
    </contour>
    <contour>
      <point x="189" y="722" type="curve"/>
      <point x="147" y="722"/>
      <point x="104" y="722"/>
      <point x="62" y="722" type="curve"/>
      <point x="61" y="612"/>
      <point x="62" y="722"/>
      <point x="61" y="612" type="curve"/>
      <point x="189" y="612"/>
      <point x="61" y="612"/>
      <point x="189" y="612" type="curve"/>
      <point x="189" y="722"/>
      <point x="189" y="612"/>
    </contour>
    <contour>
      <point x="616" y="612" type="curve"/>
      <point x="743" y="612"/>
      <point x="616" y="612"/>
      <point x="743" y="612" type="curve"/>
      <point x="743" y="722"/>
      <point x="743" y="612"/>
      <point x="743" y="722" type="curve"/>
      <point x="701" y="722"/>
      <point x="658" y="722"/>
      <point x="616" y="722" type="curve"/>
      <point x="616" y="612"/>
      <point x="616" y="722"/>
    </contour>
    <contour>
      <point x="146" y="0" type="curve"/>
      <point x="185" y="0"/>
      <point x="146" y="0"/>
      <point x="263" y="0" type="curve"/>
      <point x="263" y="110"/>
      <point x="263" y="0"/>
      <point x="263" y="110" type="curve"/>
      <point x="146" y="110"/>
      <point x="263" y="110"/>
      <point x="146" y="110" type="curve"/>
      <point x="146" y="0"/>
      <point x="146" y="110"/>
    </contour>
    <contour>
      <point x="741" y="0" type="curve"/>
      <point x="725" y="241"/>
      <point x="704" y="481"/>
      <point x="689" y="722" type="curve"/>
      <point x="559" y="722"/>
      <point x="689" y="722"/>
      <point x="559" y="722" type="curve"/>
      <point x="574" y="481"/>
      <point x="583" y="241"/>
      <point x="598" y="0" type="curve"/>
      <point x="741" y="0"/>
      <point x="598" y="0"/>
    </contour>
    <contour>
      <point x="205" y="0" type="curve"/>
      <point x="219" y="241"/>
      <point x="233" y="481"/>
      <point x="247" y="722" type="curve"/>
      <point x="127" y="722"/>
      <point x="247" y="722"/>
      <point x="127" y="722" type="curve"/>
      <point x="112" y="481"/>
      <point x="98" y="241"/>
      <point x="83" y="0" type="curve"/>
      <point x="205" y="0"/>
      <point x="83" y="0"/>
    </contour>
    <contour>
      <point x="460" y="0" type="curve"/>
      <point x="390" y="241"/>
      <point x="319" y="481"/>
      <point x="249" y="722" type="curve"/>
      <point x="129" y="722"/>
      <point x="249" y="722"/>
      <point x="129" y="722" type="curve"/>
      <point x="199" y="481"/>
      <point x="269" y="241"/>
      <point x="339" y="0" type="curve"/>
      <point x="460" y="0"/>
      <point x="339" y="0"/>
    </contour>
    <contour>
      <point x="467" y="0" type="curve"/>
      <point x="536" y="241"/>
      <point x="605" y="481"/>
      <point x="673" y="722" type="curve"/>
      <point x="553" y="722"/>
      <point x="673" y="722"/>
      <point x="553" y="722" type="curve"/>
      <point x="484" y="481"/>
      <point x="414" y="241"/>
      <point x="345" y="0" type="curve"/>
      <point x="467" y="0"/>
      <point x="345" y="0"/>
    </contour>
  </outline>
</glyph>
<glyph name="P" format="1">
  <advance width="573"/>
  <unicode hex="0050"/>
  <outline>
    <contour>
      <point x="199" y="722" type="curve"/>
      <point x="154" y="722"/>
      <point x="108" y="722"/>
      <point x="62" y="722" type="curve"/>
      <point x="62" y="612"/>
      <point x="62" y="722"/>
      <point x="62" y="612" type="curve"/>
      <point x="199" y="612"/>
      <point x="62" y="612"/>
      <point x="199" y="612" type="curve"/>
      <point x="199" y="722"/>
      <point x="199" y="612"/>
    </contour>
    <contour>
      <point x="199" y="110" type="curve"/>
      <point x="62" y="110"/>
      <point x="199" y="110"/>
      <point x="62" y="110" type="curve"/>
      <point x="62" y="0"/>
      <point x="62" y="110"/>
      <point x="62" y="0" type="curve"/>
      <point x="108" y="0"/>
      <point x="154" y="0"/>
      <point x="199" y="0" type="curve"/>
      <point x="199" y="110"/>
      <point x="199" y="0"/>
    </contour>
    <contour>
      <point x="199" y="0" type="curve"/>
      <point x="245" y="0"/>
      <point x="199" y="0"/>
      <point x="337" y="0" type="curve"/>
      <point x="337" y="110"/>
      <point x="337" y="0"/>
      <point x="337" y="110" type="curve"/>
      <point x="199" y="110"/>
      <point x="337" y="110"/>
      <point x="199" y="110" type="curve"/>
      <point x="199" y="0"/>
      <point x="199" y="110"/>
    </contour>
    <contour>
      <point x="178" y="298" type="curve"/>
      <point x="228" y="268"/>
      <point x="281" y="252"/>
      <point x="343" y="252" type="curve"/>
      <point x="464" y="254"/>
      <point x="542" y="337"/>
      <point x="542" y="475" type="curve"/>
      <point x="542" y="622"/>
      <point x="450" y="722"/>
      <point x="306" y="722" type="curve"/>
      <point x="271" y="722"/>
      <point x="236" y="722"/>
      <point x="202" y="722" type="curve"/>
      <point x="202" y="612"/>
      <point x="202" y="722"/>
      <point x="202" y="612" type="curve"/>
      <point x="230" y="612"/>
      <point x="258" y="612"/>
      <point x="287" y="612" type="curve"/>
      <point x="360" y="612"/>
      <point x="399" y="555"/>
      <point x="399" y="480" type="curve"/>
      <point x="399" y="412"/>
      <point x="379" y="357"/>
      <point x="323" y="357" type="curve"/>
      <point x="283" y="357"/>
      <point x="257" y="369"/>
      <point x="223" y="389" type="curve"/>
      <point x="179" y="301"/>
      <point x="223" y="389"/>
    </contour>
    <contour>
      <point x="270" y="0" type="curve"/>
      <point x="270" y="241"/>
      <point x="270" y="481"/>
      <point x="270" y="722" type="curve"/>
      <point x="127" y="722"/>
      <point x="270" y="722"/>
      <point x="127" y="722" type="curve"/>
      <point x="127" y="481"/>
      <point x="127" y="241"/>
      <point x="127" y="0" type="curve"/>
      <point x="270" y="0"/>
      <point x="127" y="0"/>
    </contour>
  </outline>
</glyph>
<glyph name="Q" format="1">
  <advance width="647"/>
  <unicode hex="0051"/>
  <outline>
    <contour>
      <point x="280" y="27" type="curve"/>
      <point x="358" y="-141"/>
      <point x="465" y="-211"/>
      <point x="639" y="-211" type="curve"/>
      <point x="639" y="-95"/>
      <point x="639" y="-211"/>
      <point x="639" y="-95" type="curve"/>
      <point x="521" y="-95"/>
      <point x="458" y="-34"/>
      <point x="403" y="82" type="curve"/>
      <point x="280" y="27"/>
      <point x="403" y="82"/>
    </contour>
    <contour>
      <point x="189" y="360" type="curve"/>
      <point x="189" y="493"/>
      <point x="216" y="605"/>
      <point x="331" y="605" type="curve"/>
      <point x="448" y="605"/>
      <point x="481" y="495"/>
      <point x="481" y="360" type="curve"/>
      <point x="481" y="226"/>
      <point x="456" y="110"/>
      <point x="340" y="110" type="curve"/>
      <point x="221" y="111"/>
      <point x="189" y="224"/>
      <point x="189" y="360" type="curve"/>
      <point x="46" y="360"/>
      <point x="189" y="360"/>
      <point x="46" y="360" type="curve"/>
      <point x="46" y="151"/>
      <point x="141" y="-5"/>
      <point x="333" y="-5" type="curve"/>
      <point x="529" y="-5"/>
      <point x="624" y="154"/>
      <point x="624" y="366" type="curve"/>
      <point x="624" y="574"/>
      <point x="534" y="732"/>
      <point x="342" y="732" type="curve"/>
      <point x="145" y="732"/>
      <point x="46" y="572"/>
      <point x="46" y="360" type="curve"/>
      <point x="189" y="360"/>
      <point x="46" y="360"/>
    </contour>
  </outline>
</glyph>
<glyph name="T" format="1">
  <advance width="507"/>
  <unicode hex="0054"/>
  <outline>
    <contour>
      <point x="253" y="780" type="move" name="top"/>
    </contour>
    <contour>
      <point x="317" y="1" type="move" name="bottom"/>
    </contour>
    <contour>
      <point x="21" y="666" type="curve"/>
      <point x="21" y="546"/>
      <point x="21" y="666"/>
      <point x="21" y="546" type="curve"/>
      <point x="132" y="546"/>
      <point x="21" y="546"/>
      <point x="132" y="546" type="curve"/>
      <point x="132" y="666"/>
      <point x="132" y="546"/>
      <point x="132" y="666" type="curve"/>
      <point x="21" y="666"/>
      <point x="132" y="666"/>
    </contour>
    <contour>
      <point x="374" y="666" type="curve"/>
      <point x="374" y="546"/>
      <point x="374" y="666"/>
      <point x="374" y="546" type="curve"/>
      <point x="486" y="546"/>
      <point x="374" y="546"/>
      <point x="486" y="546" type="curve"/>
      <point x="486" y="666"/>
      <point x="486" y="546"/>
      <point x="486" y="666" type="curve"/>
      <point x="374" y="666"/>
      <point x="486" y="666"/>
    </contour>
    <contour>
      <point x="252" y="0" type="curve"/>
      <point x="298" y="0"/>
      <point x="344" y="0"/>
      <point x="390" y="0" type="curve"/>
      <point x="390" y="110"/>
      <point x="390" y="0"/>
      <point x="390" y="110" type="curve"/>
      <point x="252" y="110"/>
      <point x="390" y="110"/>
      <point x="252" y="110" type="curve"/>
      <point x="252" y="0"/>
      <point x="252" y="110"/>
    </contour>
    <contour>
      <point x="252" y="110" type="curve"/>
      <point x="115" y="110"/>
      <point x="252" y="110"/>
      <point x="115" y="110" type="curve"/>
      <point x="115" y="0"/>
      <point x="115" y="110"/>
      <point x="115" y="0" type="curve"/>
      <point x="161" y="0"/>
      <point x="207" y="0"/>
      <point x="252" y="0" type="curve"/>
      <point x="252" y="110"/>
      <point x="252" y="0"/>
    </contour>
    <contour>
      <point x="325" y="0" type="curve"/>
      <point x="325" y="237"/>
      <point x="325" y="473"/>
      <point x="325" y="710" type="curve"/>
      <point x="182" y="710"/>
      <point x="325" y="710"/>
      <point x="182" y="710" type="curve"/>
      <point x="181" y="473"/>
      <point x="182" y="237"/>
      <point x="182" y="0" type="curve"/>
      <point x="325" y="0"/>
      <point x="182" y="0"/>
    </contour>
    <contour>
      <point x="21" y="605" type="curve"/>
      <point x="175" y="605"/>
      <point x="331" y="605"/>
      <point x="486" y="605" type="curve"/>
      <point x="486" y="727"/>
      <point x="486" y="600"/>
      <point x="486" y="722" type="curve"/>
      <point x="331" y="722"/>
      <point x="175" y="722"/>
      <point x="21" y="722" type="curve"/>
      <point x="21" y="600"/>
      <point x="21" y="727"/>
    </contour>
  </outline>
</glyph>
<glyph name="Y" format="1">
  <advance width="572"/>
  <unicode hex="0059"/>
  <outline>
    <contour>
      <point x="288" y="780" type="move" name="top"/>
    </contour>
    <contour>
      <point x="282" y="110" type="curve"/>
      <point x="145" y="110"/>
      <point x="282" y="110"/>
      <point x="145" y="110" type="curve"/>
      <point x="145" y="0"/>
      <point x="145" y="110"/>
      <point x="145" y="0" type="curve"/>
      <point x="190" y="0"/>
      <point x="236" y="0"/>
      <point x="282" y="0" type="curve"/>
      <point x="282" y="110"/>
      <point x="282" y="0"/>
    </contour>
    <contour>
      <point x="282" y="0" type="curve"/>
      <point x="328" y="0"/>
      <point x="374" y="0"/>
      <point x="419" y="0" type="curve"/>
      <point x="419" y="110"/>
      <point x="419" y="0"/>
      <point x="419" y="110" type="curve"/>
      <point x="282" y="110"/>
      <point x="419" y="110"/>
      <point x="282" y="110" type="curve"/>
      <point x="282" y="0"/>
      <point x="282" y="110"/>
    </contour>
    <contour>
      <point x="439" y="722" type="curve"/>
      <point x="397" y="722"/>
      <point x="354" y="722"/>
      <point x="312" y="722" type="curve"/>
      <point x="312" y="612"/>
      <point x="312" y="722"/>
      <point x="312" y="612" type="curve"/>
      <point x="439" y="612"/>
      <point x="312" y="612"/>
      <point x="439" y="612" type="curve"/>
      <point x="439" y="722"/>
      <point x="439" y="612"/>
    </contour>
    <contour>
      <point x="115" y="722" type="curve"/>
      <point x="82" y="722"/>
      <point x="48" y="722"/>
      <point x="15" y="722" type="curve"/>
      <point x="14" y="612"/>
      <point x="15" y="722"/>
      <point x="14" y="612" type="curve"/>
      <point x="115" y="612"/>
      <point x="14" y="612"/>
      <point x="115" y="612" type="curve"/>
      <point x="115" y="722"/>
      <point x="115" y="612"/>
    </contour>
    <contour>
      <point x="135" y="612" type="curve"/>
      <point x="262" y="612"/>
      <point x="135" y="612"/>
      <point x="262" y="612" type="curve"/>
      <point x="262" y="722"/>
      <point x="262" y="612"/>
      <point x="262" y="722" type="curve"/>
      <point x="220" y="722"/>
      <point x="177" y="722"/>
      <point x="135" y="722" type="curve"/>
      <point x="135" y="612"/>
      <point x="135" y="722"/>
    </contour>
    <contour>
      <point x="459" y="612" type="curve"/>
      <point x="566" y="612"/>
      <point x="459" y="612"/>
      <point x="566" y="612" type="curve"/>
      <point x="566" y="722"/>
      <point x="566" y="612"/>
      <point x="566" y="722" type="curve"/>
      <point x="531" y="722"/>
      <point x="495" y="722"/>
      <point x="459" y="722" type="curve"/>
      <point x="459" y="612"/>
      <point x="459" y="722"/>
    </contour>
    <contour>
      <point x="33" y="722" type="curve"/>
      <point x="92" y="594"/>
      <point x="147" y="469"/>
      <point x="204" y="337" type="curve"/>
      <point x="349" y="337"/>
      <point x="182" y="337"/>
      <point x="327" y="337" type="curve"/>
      <point x="278" y="470"/>
      <point x="231" y="591"/>
      <point x="178" y="722" type="curve"/>
      <point x="33" y="722"/>
      <point x="178" y="722"/>
    </contour>
    <contour>
      <point x="396" y="722" type="curve"/>
      <point x="337" y="589"/>
      <point x="287" y="469"/>
      <point x="227" y="337" type="curve"/>
      <point x="372" y="337"/>
      <point x="215" y="337"/>
      <point x="360" y="337" type="curve"/>
      <point x="421" y="468"/>
      <point x="479" y="594"/>
      <point x="541" y="722" type="curve"/>
      <point x="396" y="722"/>
      <point x="541" y="722"/>
    </contour>
    <contour>
      <point x="360" y="0" type="curve"/>
      <point x="360" y="115"/>
      <point x="360" y="222"/>
      <point x="360" y="337" type="curve"/>
      <point x="204" y="337"/>
      <point x="360" y="337"/>
      <point x="204" y="337" type="curve"/>
      <point x="204" y="222"/>
      <point x="204" y="115"/>
      <point x="204" y="0" type="curve"/>
      <point x="360" y="0"/>
      <point x="204" y="0"/>
    </contour>
  </outline>
</glyph>
<glyph name="bracketleft" format="1">
  <advance width="292"/>
  <unicode hex="005B"/>
  <outline>
    <contour>
      <point x="248" y="769" type="curve"/>
      <point x="210" y="769"/>
      <point x="172" y="769"/>
      <point x="134" y="769" type="curve"/>
      <point x="118" y="769"/>
      <point x="82" y="769"/>
      <point x="67" y="769" type="curve"/>
      <point x="67" y="752"/>
      <point x="67" y="731"/>
      <point x="67" y="714" type="curve"/>
      <point x="67" y="456"/>
      <point x="67" y="199"/>
      <point x="67" y="-59" type="curve"/>
      <point x="67" y="-77"/>
      <point x="67" y="-89"/>
      <point x="67" y="-113" type="curve"/>
      <point x="82" y="-113"/>
      <point x="116" y="-113"/>
      <point x="133" y="-113" type="curve"/>
      <point x="171" y="-113"/>
      <point x="210" y="-113"/>
      <point x="248" y="-113" type="curve"/>
      <point x="248" y="9"/>
      <point x="248" y="-113"/>
      <point x="248" y="9" type="curve"/>
      <point x="210" y="9"/>
      <point x="171" y="9"/>
      <point x="133" y="9" type="curve"/>
      <point x="210" y="9"/>
      <point x="133" y="9"/>
      <point x="210" y="9" type="curve"/>
      <point x="210" y="-59"/>
      <point x="210" y="9"/>
      <point x="210" y="-59" type="curve"/>
      <point x="210" y="199"/>
      <point x="210" y="456"/>
      <point x="210" y="714" type="curve"/>
      <point x="210" y="648"/>
      <point x="210" y="714"/>
      <point x="210" y="648" type="curve"/>
      <point x="134" y="648"/>
      <point x="210" y="648"/>
      <point x="134" y="648" type="curve"/>
      <point x="172" y="648"/>
      <point x="210" y="648"/>
      <point x="248" y="648" type="curve"/>
      <point x="248" y="769"/>
      <point x="248" y="648"/>
    </contour>
  </outline>
</glyph>
<glyph name="bracketright" format="1">
  <advance width="293"/>
  <unicode hex="005D"/>
  <outline>
    <contour>
      <point x="45" y="648" type="curve"/>
      <point x="83" y="648"/>
      <point x="121" y="648"/>
      <point x="159" y="648" type="curve"/>
      <point x="147" y="660"/>
      <point x="127" y="661"/>
      <point x="115" y="673" type="curve"/>
      <point x="104" y="686"/>
      <point x="94" y="701"/>
      <point x="83" y="714" type="curve"/>
      <point x="83" y="456"/>
      <point x="82" y="199"/>
      <point x="83" y="-59" type="curve"/>
      <point x="94" y="-45"/>
      <point x="107" y="-33"/>
      <point x="119" y="-20" type="curve"/>
      <point x="130" y="-7"/>
      <point x="149" y="-4"/>
      <point x="160" y="9" type="curve"/>
      <point x="122" y="9"/>
      <point x="83" y="9"/>
      <point x="45" y="9" type="curve"/>
      <point x="44" y="-113"/>
      <point x="45" y="9"/>
      <point x="44" y="-113" type="curve"/>
      <point x="83" y="-113"/>
      <point x="122" y="-113"/>
      <point x="160" y="-113" type="curve"/>
      <point x="226" y="-113"/>
      <point x="160" y="-113"/>
      <point x="226" y="-113" type="curve"/>
      <point x="226" y="-59"/>
      <point x="226" y="-113"/>
      <point x="226" y="-59" type="curve"/>
      <point x="225" y="199"/>
      <point x="226" y="456"/>
      <point x="226" y="714" type="curve"/>
      <point x="226" y="769"/>
      <point x="226" y="714"/>
      <point x="226" y="769" type="curve"/>
      <point x="159" y="769"/>
      <point x="226" y="769"/>
      <point x="159" y="769" type="curve"/>
      <point x="121" y="769"/>
      <point x="83" y="769"/>
      <point x="45" y="769" type="curve"/>
      <point x="45" y="648"/>
      <point x="45" y="769"/>
    </contour>
  </outline>
</glyph>
<glyph name="grave" format="1">
  <advance width="329"/>
  <unicode hex="0060"/>
  <outline>
    <contour>
      <point x="243" y="590" type="move" name="_top"/>
    </contour>
    <contour>
      <point x="311" y="591" type="line"/>
      <point x="227" y="757" type="line"/>
      <point x="52" y="757" type="line"/>
      <point x="176" y="591" type="line"/>
    </contour>
  </outline>
</glyph>
<glyph name="b" format="1">
  <advance width="592"/>
  <unicode hex="0062"/>
  <outline>
    <contour>
      <point x="170" y="800" type="curve"/>
      <point x="123" y="800"/>
      <point x="78" y="800"/>
      <point x="33" y="800" type="curve"/>
      <point x="32" y="690"/>
      <point x="33" y="800"/>
      <point x="32" y="690" type="curve"/>
      <point x="170" y="689"/>
      <point x="32" y="690"/>
      <point x="170" y="689" type="curve"/>
      <point x="170" y="800"/>
      <point x="170" y="689"/>
    </contour>
    <contour>
      <point x="207" y="349" type="curve"/>
      <point x="230" y="379"/>
      <point x="270" y="423"/>
      <point x="325" y="423" type="curve"/>
      <point x="398" y="423"/>
      <point x="412" y="346"/>
      <point x="412" y="261" type="curve"/>
      <point x="413" y="180"/>
      <point x="396" y="110"/>
      <point x="327" y="110" type="curve"/>
      <point x="281" y="110"/>
      <point x="248" y="130"/>
      <point x="217" y="165" type="curve"/>
      <point x="145" y="117"/>
      <point x="217" y="165"/>
      <point x="145" y="117" type="curve"/>
      <point x="192" y="47"/>
      <point x="247" y="-5"/>
      <point x="342" y="-5" type="curve"/>
      <point x="478" y="-5"/>
      <point x="555" y="112"/>
      <point x="555" y="267" type="curve"/>
      <point x="555" y="421"/>
      <point x="480" y="538"/>
      <point x="345" y="538" type="curve"/>
      <point x="248" y="538"/>
      <point x="187" y="464"/>
      <point x="147" y="396" type="curve"/>
      <point x="207" y="349"/>
      <point x="147" y="396"/>
    </contour>
    <contour>
      <point x="240" y="0" type="curve"/>
      <point x="240" y="267"/>
      <point x="240" y="533"/>
      <point x="240" y="800" type="curve"/>
      <point x="97" y="800"/>
      <point x="240" y="800"/>
      <point x="97" y="800" type="curve"/>
      <point x="97" y="533"/>
      <point x="97" y="267"/>
      <point x="97" y="0" type="curve"/>
      <point x="240" y="0"/>
      <point x="97" y="0"/>
    </contour>
    <contour>
      <point x="170" y="110" type="curve"/>
      <point x="33" y="110"/>
      <point x="170" y="110"/>
      <point x="33" y="110" type="curve"/>
      <point x="33" y="0"/>
      <point x="33" y="110"/>
      <point x="33" y="0" type="curve"/>
      <point x="78" y="0"/>
      <point x="124" y="0"/>
      <point x="170" y="0" type="curve"/>
      <point x="170" y="110"/>
      <point x="170" y="0"/>
    </contour>
  </outline>
</glyph>
<glyph name="c" format="1">
  <advance width="484"/>
  <unicode hex="0063"/>
  <outline>
    <contour>
      <point x="265" y="610" type="move" name="top"/>
    </contour>
    <contour>
      <point x="308" y="6" type="move" name="bottom"/>
    </contour>
    <contour>
      <point x="323" y="469" type="curve"/>
      <point x="323" y="349"/>
      <point x="323" y="469"/>
      <point x="323" y="349" type="curve"/>
      <point x="435" y="349"/>
      <point x="323" y="349"/>
      <point x="435" y="349" type="curve"/>
      <point x="435" y="469"/>
      <point x="435" y="349"/>
      <point x="435" y="469" type="curve"/>
      <point x="323" y="469"/>
      <point x="435" y="469"/>
    </contour>
    <contour>
      <point x="435" y="469" type="curve"/>
      <point x="392" y="508"/>
      <point x="335" y="538"/>
      <point x="274" y="538" type="curve"/>
      <point x="119" y="538"/>
      <point x="37" y="435"/>
      <point x="37" y="267" type="curve"/>
      <point x="37" y="100"/>
      <point x="116" y="-5"/>
      <point x="272" y="-5" type="curve"/>
      <point x="341" y="-5"/>
      <point x="408" y="24"/>
      <point x="446" y="95" type="curve"/>
      <point x="351" y="162"/>
      <point x="446" y="95"/>
      <point x="351" y="162" type="curve"/>
      <point x="332" y="137"/>
      <point x="310" y="110"/>
      <point x="279" y="110" type="curve"/>
      <point x="202" y="110"/>
      <point x="180" y="177"/>
      <point x="180" y="267" type="curve"/>
      <point x="180" y="356"/>
      <point x="198" y="423"/>
      <point x="273" y="423" type="curve"/>
      <point x="302" y="423"/>
      <point x="329" y="410"/>
      <point x="350" y="392" type="curve"/>
      <point x="435" y="469"/>
      <point x="350" y="392"/>
    </contour>
  </outline>
</glyph>
<glyph name="h" format="1">
  <advance width="564"/>
  <unicode hex="0068"/>
  <outline>
    <contour>
      <point x="423" y="-1" type="curve"/>
      <point x="469" y="-1"/>
      <point x="514" y="0"/>
      <point x="560" y="0" type="curve"/>
      <point x="560" y="110"/>
      <point x="560" y="0"/>
      <point x="560" y="110" type="curve"/>
      <point x="423" y="110"/>
      <point x="560" y="110"/>
      <point x="423" y="110" type="curve"/>
      <point x="423" y="-1"/>
      <point x="423" y="110"/>
    </contour>
    <contour>
      <point x="145" y="-1" type="curve"/>
      <point x="184" y="-1"/>
      <point x="145" y="-1"/>
      <point x="262" y="0" type="curve"/>
      <point x="262" y="110"/>
      <point x="262" y="0"/>
      <point x="262" y="110" type="curve"/>
      <point x="145" y="110"/>
      <point x="262" y="110"/>
      <point x="145" y="110" type="curve"/>
      <point x="145" y="-1"/>
      <point x="145" y="110"/>
    </contour>
    <contour>
      <point x="145" y="799" type="curve"/>
      <point x="99" y="799"/>
      <point x="53" y="800"/>
      <point x="8" y="800" type="curve"/>
      <point x="7" y="690"/>
      <point x="8" y="800"/>
      <point x="7" y="690" type="curve"/>
      <point x="145" y="689"/>
      <point x="7" y="690"/>
      <point x="145" y="689" type="curve"/>
      <point x="145" y="799"/>
      <point x="145" y="689"/>
    </contour>
    <contour>
      <point x="145" y="110" type="curve"/>
      <point x="8" y="110"/>
      <point x="145" y="110"/>
      <point x="8" y="110" type="curve"/>
      <point x="7" y="0"/>
      <point x="8" y="110"/>
      <point x="7" y="0" type="curve"/>
      <point x="53" y="0"/>
      <point x="99" y="-1"/>
      <point x="145" y="-1" type="curve"/>
      <point x="145" y="110"/>
      <point x="145" y="-1"/>
    </contour>
    <contour>
      <point x="184" y="301" type="curve"/>
      <point x="203" y="361"/>
      <point x="235" y="423"/>
      <point x="292" y="423" type="curve"/>
      <point x="351" y="423"/>
      <point x="352" y="371"/>
      <point x="352" y="308" type="curve"/>
      <point x="352" y="205"/>
      <point x="352" y="103"/>
      <point x="352" y="0" type="curve"/>
      <point x="495" y="0"/>
      <point x="352" y="0"/>
      <point x="495" y="0" type="curve"/>
      <point x="495" y="106"/>
      <point x="495" y="213"/>
      <point x="495" y="319" type="curve"/>
      <point x="495" y="444"/>
      <point x="459" y="533"/>
      <point x="334" y="533" type="curve"/>
      <point x="243" y="533"/>
      <point x="171" y="455"/>
      <point x="148" y="356" type="curve"/>
      <point x="184" y="301"/>
      <point x="148" y="356"/>
    </contour>
    <contour>
      <point x="216" y="0" type="curve"/>
      <point x="216" y="267"/>
      <point x="216" y="533"/>
      <point x="216" y="800" type="curve"/>
      <point x="73" y="800"/>
      <point x="216" y="800"/>
      <point x="73" y="800" type="curve"/>
      <point x="73" y="533"/>
      <point x="73" y="267"/>
      <point x="73" y="0" type="curve"/>
      <point x="216" y="0"/>
      <point x="73" y="0"/>
    </contour>
  </outline>
</glyph>
<glyph name="i" format="1">
  <advance width="314"/>
  <unicode hex="0069"/>
  <outline>
    <contour>
      <point x="159" y="611" type="move" name="top"/>
    </contour>
    <contour>
      <point x="228" y="4" type="move" name="bottom"/>
    </contour>
    <contour>
      <point x="164" y="110" type="curve"/>
      <point x="27" y="110"/>
      <point x="164" y="110"/>
      <point x="27" y="110" type="curve"/>
      <point x="26" y="0"/>
      <point x="27" y="110"/>
      <point x="26" y="0" type="curve"/>
      <point x="72" y="0"/>
      <point x="118" y="0"/>
      <point x="164" y="0" type="curve"/>
      <point x="164" y="110"/>
      <point x="164" y="0"/>
    </contour>
    <contour>
      <point x="164" y="0" type="curve"/>
      <point x="207" y="0"/>
      <point x="250" y="0"/>
      <point x="294" y="0" type="curve"/>
      <point x="294" y="110"/>
      <point x="294" y="0"/>
      <point x="294" y="110" type="curve"/>
      <point x="164" y="110"/>
      <point x="294" y="110"/>
      <point x="164" y="110" type="curve"/>
      <point x="164" y="0"/>
      <point x="164" y="110"/>
    </contour>
    <contour>
      <point x="164" y="533" type="curve"/>
      <point x="118" y="533"/>
      <point x="72" y="533"/>
      <point x="27" y="533" type="curve"/>
      <point x="26" y="423"/>
      <point x="27" y="533"/>
      <point x="26" y="423" type="curve"/>
      <point x="164" y="423"/>
      <point x="26" y="423"/>
      <point x="164" y="423" type="curve"/>
      <point x="164" y="533"/>
      <point x="164" y="423"/>
    </contour>
    <contour>
      <point x="239" y="0" type="curve"/>
      <point x="239" y="178"/>
      <point x="239" y="355"/>
      <point x="239" y="533" type="curve"/>
      <point x="89" y="533"/>
      <point x="239" y="533"/>
      <point x="89" y="533" type="curve"/>
      <point x="89" y="355"/>
      <point x="89" y="178"/>
      <point x="89" y="0" type="curve"/>
      <point x="239" y="0"/>
      <point x="89" y="0"/>
    </contour>
    <contour>
      <point x="234" y="678" type="curve"/>
      <point x="234" y="726"/>
      <point x="202" y="750"/>
      <point x="159" y="750" type="curve"/>
      <point x="115" y="750"/>
      <point x="86" y="724"/>
      <point x="86" y="678" type="curve"/>
      <point x="234" y="678"/>
      <point x="86" y="678"/>
      <point x="234" y="678" type="curve"/>
      <point x="234" y="629"/>
      <point x="203" y="607"/>
      <point x="159" y="607" type="curve"/>
      <point x="114" y="607"/>
      <point x="86" y="631"/>
      <point x="86" y="678" type="curve"/>
      <point x="234" y="678"/>
      <point x="86" y="678"/>
    </contour>
  </outline>
</glyph>
<glyph name="l" format="1">
  <advance width="312"/>
  <unicode hex="006C"/>
  <outline>
    <contour>
      <point x="159" y="882" type="move" name="top"/>
    </contour>
    <contour>
      <point x="217" y="2" type="move" name="bottom"/>
    </contour>
    <contour>
      <point x="156" y="110" type="curve"/>
      <point x="19" y="110"/>
      <point x="156" y="110"/>
      <point x="19" y="110" type="curve"/>
      <point x="19" y="0"/>
      <point x="19" y="110"/>
      <point x="19" y="0" type="curve"/>
      <point x="65" y="0"/>
      <point x="110" y="0"/>
      <point x="156" y="0" type="curve"/>
      <point x="156" y="111"/>
      <point x="156" y="-1"/>
    </contour>
    <contour>
      <point x="158" y="800" type="curve"/>
      <point x="112" y="800"/>
      <point x="66" y="800"/>
      <point x="21" y="800" type="curve"/>
      <point x="20" y="690"/>
      <point x="21" y="800"/>
      <point x="20" y="690" type="curve"/>
      <point x="158" y="689"/>
      <point x="20" y="690"/>
      <point x="158" y="689" type="curve"/>
      <point x="158" y="799"/>
      <point x="158" y="690"/>
    </contour>
    <contour>
      <point x="156" y="0" type="curve"/>
      <point x="202" y="0"/>
      <point x="248" y="0"/>
      <point x="294" y="0" type="curve"/>
      <point x="294" y="110"/>
      <point x="294" y="0"/>
      <point x="294" y="110" type="curve"/>
      <point x="156" y="110"/>
      <point x="294" y="110"/>
      <point x="156" y="110" type="curve"/>
      <point x="156" y="-1"/>
      <point x="156" y="111"/>
    </contour>
    <contour>
      <point x="227" y="0" type="curve"/>
      <point x="227" y="267"/>
      <point x="227" y="533"/>
      <point x="227" y="800" type="curve"/>
      <point x="84" y="800"/>
      <point x="227" y="800"/>
      <point x="84" y="800" type="curve"/>
      <point x="84" y="533"/>
      <point x="84" y="267"/>
      <point x="84" y="0" type="curve"/>
      <point x="227" y="0"/>
      <point x="84" y="0"/>
    </contour>
  </outline>
</glyph>
<glyph name="m" format="1">
  <advance width="860"/>
  <unicode hex="006D"/>
  <outline>
    <contour>
      <point x="436" y="0" type="curve"/>
      <point x="558" y="0"/>
      <point x="436" y="0"/>
      <point x="558" y="0" type="curve"/>
      <point x="558" y="110"/>
      <point x="558" y="0"/>
      <point x="558" y="110" type="curve"/>
      <point x="436" y="110"/>
      <point x="558" y="110"/>
      <point x="436" y="110" type="curve"/>
      <point x="436" y="0"/>
      <point x="436" y="110"/>
    </contour>
    <contour>
      <point x="686" y="0" type="curve"/>
      <point x="731" y="0"/>
      <point x="777" y="0"/>
      <point x="823" y="0" type="curve"/>
      <point x="823" y="110"/>
      <point x="823" y="0"/>
      <point x="823" y="110" type="curve"/>
      <point x="686" y="110"/>
      <point x="823" y="110"/>
      <point x="686" y="110" type="curve"/>
      <point x="686" y="0"/>
      <point x="686" y="110"/>
    </contour>
    <contour>
      <point x="187" y="110" type="curve"/>
      <point x="50" y="110"/>
      <point x="187" y="110"/>
      <point x="50" y="110" type="curve"/>
      <point x="49" y="0"/>
      <point x="50" y="110"/>
      <point x="49" y="0" type="curve"/>
      <point x="95" y="0"/>
      <point x="141" y="0"/>
      <point x="187" y="0" type="curve"/>
      <point x="187" y="110"/>
      <point x="187" y="0"/>
    </contour>
    <contour>
      <point x="187" y="0" type="curve"/>
      <point x="227" y="0"/>
      <point x="187" y="0"/>
      <point x="309" y="0" type="curve"/>
      <point x="309" y="110"/>
      <point x="309" y="0"/>
      <point x="309" y="110" type="curve"/>
      <point x="187" y="110"/>
      <point x="309" y="110"/>
      <point x="187" y="110" type="curve"/>
      <point x="187" y="0"/>
      <point x="187" y="110"/>
    </contour>
    <contour>
      <point x="187" y="533" type="curve"/>
      <point x="141" y="533"/>
      <point x="95" y="533"/>
      <point x="50" y="533" type="curve"/>
      <point x="49" y="423"/>
      <point x="50" y="533"/>
      <point x="49" y="423" type="curve"/>
      <point x="187" y="423"/>
      <point x="49" y="423"/>
      <point x="187" y="423" type="curve"/>
      <point x="187" y="533"/>
      <point x="187" y="423"/>
    </contour>
    <contour>
      <point x="475" y="271" type="curve"/>
      <point x="493" y="343"/>
      <point x="507" y="423"/>
      <point x="565" y="423" type="curve"/>
      <point x="623" y="423"/>
      <point x="613" y="374"/>
      <point x="613" y="308" type="curve"/>
      <point x="613" y="205"/>
      <point x="613" y="103"/>
      <point x="613" y="0" type="curve"/>
      <point x="756" y="0"/>
      <point x="613" y="0"/>
      <point x="756" y="0" type="curve"/>
      <point x="756" y="106"/>
      <point x="756" y="213"/>
      <point x="756" y="319" type="curve"/>
      <point x="756" y="451"/>
      <point x="745" y="538"/>
      <point x="617" y="538" type="curve"/>
      <point x="523" y="538"/>
      <point x="465" y="453"/>
      <point x="439" y="336" type="curve"/>
      <point x="479" y="274"/>
      <point x="434" y="333"/>
    </contour>
    <contour>
      <point x="226" y="271" type="curve"/>
      <point x="242" y="343"/>
      <point x="257" y="423"/>
      <point x="316" y="423" type="curve"/>
      <point x="373" y="423"/>
      <point x="364" y="374"/>
      <point x="364" y="308" type="curve"/>
      <point x="364" y="205"/>
      <point x="364" y="103"/>
      <point x="364" y="0" type="curve"/>
      <point x="507" y="0"/>
      <point x="364" y="0"/>
      <point x="507" y="0" type="curve"/>
      <point x="507" y="106"/>
      <point x="507" y="213"/>
      <point x="507" y="319" type="curve"/>
      <point x="507" y="451"/>
      <point x="496" y="538"/>
      <point x="368" y="538" type="curve"/>
      <point x="273" y="538"/>
      <point x="218" y="454"/>
      <point x="190" y="336" type="curve"/>
      <point x="230" y="274"/>
      <point x="185" y="333"/>
    </contour>
    <contour>
      <point x="258" y="0" type="curve"/>
      <point x="258" y="178"/>
      <point x="258" y="355"/>
      <point x="258" y="533" type="curve"/>
      <point x="115" y="533"/>
      <point x="258" y="533"/>
      <point x="115" y="533" type="curve"/>
      <point x="115" y="355"/>
      <point x="115" y="178"/>
      <point x="115" y="0" type="curve"/>
      <point x="258" y="0"/>
      <point x="115" y="0"/>
    </contour>
  </outline>
</glyph>
<glyph name="n" format="1">
  <advance width="583"/>
  <unicode hex="006E"/>
  <outline>
    <contour>
      <point x="298" y="610" type="move" name="top"/>
    </contour>
    <contour>
      <point x="358" y="4" type="move" name="bottom"/>
    </contour>
    <contour>
      <point x="206" y="263" type="curve"/>
      <point x="220" y="343"/>
      <point x="251" y="423"/>
      <point x="307" y="423" type="curve"/>
      <point x="363" y="423"/>
      <point x="370" y="372"/>
      <point x="370" y="308" type="curve"/>
      <point x="370" y="205"/>
      <point x="370" y="103"/>
      <point x="370" y="0" type="curve"/>
      <point x="513" y="0"/>
      <point x="370" y="0"/>
      <point x="513" y="0" type="curve"/>
      <point x="513" y="106"/>
      <point x="513" y="213"/>
      <point x="513" y="319" type="curve"/>
      <point x="513" y="446"/>
      <point x="482" y="538"/>
      <point x="360" y="538" type="curve"/>
      <point x="265" y="538"/>
      <point x="192" y="460"/>
      <point x="166" y="326" type="curve"/>
      <point x="207" y="264"/>
      <point x="165" y="325"/>
    </contour>
    <contour>
      <point x="441" y="0" type="curve"/>
      <point x="486" y="0"/>
      <point x="532" y="0"/>
      <point x="578" y="0" type="curve"/>
      <point x="578" y="110"/>
      <point x="578" y="0"/>
      <point x="578" y="110" type="curve"/>
      <point x="441" y="110"/>
      <point x="578" y="110"/>
      <point x="441" y="110" type="curve"/>
      <point x="441" y="0"/>
      <point x="441" y="110"/>
    </contour>
    <contour>
      <point x="163" y="110" type="curve"/>
      <point x="25" y="110"/>
      <point x="163" y="110"/>
      <point x="25" y="110" type="curve"/>
      <point x="25" y="0"/>
      <point x="25" y="110"/>
      <point x="25" y="0" type="curve"/>
      <point x="71" y="0"/>
      <point x="117" y="0"/>
      <point x="163" y="0" type="curve"/>
      <point x="163" y="110"/>
      <point x="163" y="0"/>
    </contour>
    <contour>
      <point x="163" y="0" type="curve"/>
      <point x="206" y="0"/>
      <point x="163" y="0"/>
      <point x="292" y="0" type="curve"/>
      <point x="292" y="110"/>
      <point x="292" y="0"/>
      <point x="292" y="110" type="curve"/>
      <point x="163" y="110"/>
      <point x="292" y="110"/>
      <point x="163" y="110" type="curve"/>
      <point x="163" y="0"/>
      <point x="163" y="110"/>
    </contour>
    <contour>
      <point x="234" y="0" type="curve"/>
      <point x="234" y="178"/>
      <point x="234" y="355"/>
      <point x="234" y="533" type="curve"/>
      <point x="91" y="533"/>
      <point x="234" y="533"/>
      <point x="91" y="533" type="curve"/>
      <point x="91" y="355"/>
      <point x="91" y="178"/>
      <point x="91" y="0" type="curve"/>
      <point x="234" y="0"/>
      <point x="91" y="0"/>
    </contour>
    <contour>
      <point x="163" y="533" type="curve"/>
      <point x="117" y="533"/>
      <point x="71" y="533"/>
      <point x="25" y="533" type="curve"/>
      <point x="25" y="423"/>
      <point x="25" y="533"/>
      <point x="25" y="423" type="curve"/>
      <point x="163" y="423"/>
      <point x="25" y="423"/>
      <point x="163" y="423" type="curve"/>
      <point x="163" y="533"/>
      <point x="163" y="423"/>
    </contour>
  </outline>
</glyph>
<glyph name="p" format="1">
  <advance width="569"/>
  <unicode hex="0070"/>
  <outline>
    <contour>
      <point x="143" y="-189" type="curve"/>
      <point x="6" y="-189"/>
      <point x="143" y="-189"/>
      <point x="6" y="-189" type="curve"/>
      <point x="6" y="-300"/>
      <point x="6" y="-189"/>
      <point x="6" y="-300" type="curve"/>
      <point x="52" y="-300"/>
      <point x="97" y="-300"/>
      <point x="143" y="-300" type="curve"/>
      <point x="143" y="-189"/>
      <point x="143" y="-300"/>
    </contour>
    <contour>
      <point x="143" y="-300" type="curve"/>
      <point x="187" y="-300"/>
      <point x="230" y="-300"/>
      <point x="273" y="-300" type="curve"/>
      <point x="273" y="-189"/>
      <point x="273" y="-300"/>
      <point x="273" y="-189" type="curve"/>
      <point x="143" y="-189"/>
      <point x="273" y="-189"/>
      <point x="143" y="-189" type="curve"/>
      <point x="143" y="-300"/>
      <point x="143" y="-189"/>
    </contour>
    <contour>
      <point x="144" y="533" type="curve"/>
      <point x="98" y="533"/>
      <point x="53" y="533"/>
      <point x="7" y="533" type="curve"/>
      <point x="7" y="423"/>
      <point x="7" y="533"/>
      <point x="7" y="423" type="curve"/>
      <point x="144" y="423"/>
      <point x="7" y="423"/>
      <point x="144" y="423" type="curve"/>
      <point x="144" y="533"/>
      <point x="144" y="423"/>
    </contour>
    <contour>
      <point x="185" y="296" type="curve"/>
      <point x="200" y="358"/>
      <point x="242" y="424"/>
      <point x="294" y="424" type="curve"/>
      <point x="381" y="424"/>
      <point x="390" y="346"/>
      <point x="390" y="261" type="curve"/>
      <point x="391" y="179"/>
      <point x="379" y="105"/>
      <point x="298" y="105" type="curve"/>
      <point x="252" y="105"/>
      <point x="218" y="126"/>
      <point x="189" y="162" type="curve"/>
      <point x="140" y="102"/>
      <point x="189" y="162"/>
      <point x="140" y="102" type="curve"/>
      <point x="191" y="33"/>
      <point x="247" y="-5"/>
      <point x="329" y="-5" type="curve"/>
      <point x="478" y="-5"/>
      <point x="533" y="119"/>
      <point x="533" y="267" type="curve"/>
      <point x="533" y="413"/>
      <point x="480" y="539"/>
      <point x="329" y="539" type="curve"/>
      <point x="246" y="539"/>
      <point x="182" y="464"/>
      <point x="147" y="386" type="curve"/>
      <point x="182" y="295"/>
      <point x="150" y="387"/>
    </contour>
    <contour>
      <point x="215" y="-300" type="curve"/>
      <point x="215" y="-22"/>
      <point x="215" y="255"/>
      <point x="215" y="533" type="curve"/>
      <point x="72" y="533"/>
      <point x="215" y="533"/>
      <point x="72" y="533" type="curve"/>
      <point x="72" y="255"/>
      <point x="72" y="-22"/>
      <point x="72" y="-300" type="curve"/>
      <point x="215" y="-300"/>
      <point x="72" y="-300"/>
    </contour>
  </outline>
</glyph>
<glyph name="q" format="1">
  <advance width="597"/>
  <unicode hex="0071"/>
  <outline>
    <contour>
      <point x="430" y="423" type="curve"/>
      <point x="557" y="423"/>
      <point x="430" y="423"/>
      <point x="559" y="423" type="curve"/>
      <point x="559" y="533"/>
      <point x="559" y="423"/>
      <point x="559" y="533" type="curve"/>
      <point x="516" y="533"/>
      <point x="473" y="533"/>
      <point x="430" y="533" type="curve"/>
      <point x="430" y="423"/>
      <point x="430" y="533"/>
    </contour>
    <contour>
      <point x="428" y="-189" type="curve"/>
      <point x="291" y="-189"/>
      <point x="428" y="-189"/>
      <point x="291" y="-189" type="curve"/>
      <point x="291" y="-300"/>
      <point x="291" y="-189"/>
      <point x="291" y="-300" type="curve"/>
      <point x="337" y="-300"/>
      <point x="382" y="-300"/>
      <point x="428" y="-300" type="curve"/>
      <point x="428" y="-189"/>
      <point x="428" y="-300"/>
    </contour>
    <contour>
      <point x="428" y="-300" type="curve"/>
      <point x="472" y="-300"/>
      <point x="515" y="-300"/>
      <point x="558" y="-300" type="curve"/>
      <point x="558" y="-189"/>
      <point x="558" y="-300"/>
      <point x="558" y="-189" type="curve"/>
      <point x="428" y="-189"/>
      <point x="558" y="-189"/>
      <point x="428" y="-189" type="curve"/>
      <point x="428" y="-300"/>
      <point x="428" y="-189"/>
    </contour>
    <contour>
      <point x="430" y="395" type="curve"/>
      <point x="392" y="480"/>
      <point x="326" y="538"/>
      <point x="244" y="538" type="curve"/>
      <point x="91" y="538"/>
      <point x="37" y="414"/>
      <point x="38" y="265" type="curve"/>
      <point x="38" y="115"/>
      <point x="98" y="-5"/>
      <point x="249" y="-5" type="curve"/>
      <point x="326" y="-5"/>
      <point x="387" y="54"/>
      <point x="428" y="124" type="curve"/>
      <point x="386" y="185"/>
      <point x="428" y="124"/>
      <point x="386" y="185" type="curve"/>
      <point x="360" y="140"/>
      <point x="322" y="105"/>
      <point x="273" y="105" type="curve"/>
      <point x="195" y="105"/>
      <point x="181" y="184"/>
      <point x="181" y="271" type="curve"/>
      <point x="181" y="351"/>
      <point x="198" y="424"/>
      <point x="271" y="424" type="curve"/>
      <point x="316" y="424"/>
      <point x="349" y="403"/>
      <point x="391" y="335" type="curve"/>
      <point x="419" y="400"/>
      <point x="401" y="330"/>
    </contour>
    <contour>
      <point x="503" y="-300" type="curve"/>
      <point x="503" y="-22"/>
      <point x="503" y="255"/>
      <point x="503" y="533" type="curve"/>
      <point x="354" y="533"/>
      <point x="503" y="533"/>
      <point x="354" y="533" type="curve"/>
      <point x="354" y="255"/>
      <point x="354" y="-22"/>
      <point x="354" y="-300" type="curve"/>
      <point x="503" y="-300"/>
      <point x="354" y="-300"/>
    </contour>
  </outline>
</glyph>
<glyph name="s" format="1">
  <advance width="446"/>
  <unicode hex="0073"/>
  <outline>
    <contour>
      <point x="268" y="3" type="move" name="bottom"/>
    </contour>
    <contour>
      <point x="224" y="610" type="move" name="top"/>
    </contour>
    <contour>
      <point x="48" y="47" type="curve"/>
      <point x="104" y="15"/>
      <point x="158" y="-5"/>
      <point x="218" y="-5" type="curve"/>
      <point x="333" y="-5"/>
      <point x="409" y="51"/>
      <point x="409" y="162" type="curve"/>
      <point x="408" y="259"/>
      <point x="337" y="293"/>
      <point x="242" y="327" type="curve"/>
      <point x="207" y="339"/>
      <point x="181" y="357"/>
      <point x="181" y="388" type="curve"/>
      <point x="181" y="407"/>
      <point x="194" y="423"/>
      <point x="219" y="423" type="curve"/>
      <point x="248" y="423"/>
      <point x="282" y="407"/>
      <point x="301" y="393" type="curve"/>
      <point x="366" y="493"/>
      <point x="301" y="393"/>
      <point x="366" y="493" type="curve"/>
      <point x="334" y="516"/>
      <point x="273" y="538"/>
      <point x="222" y="538" type="curve"/>
      <point x="118" y="538"/>
      <point x="51" y="487"/>
      <point x="51" y="388" type="curve"/>
      <point x="51" y="297"/>
      <point x="107" y="253"/>
      <point x="196" y="222" type="curve"/>
      <point x="237" y="208"/>
      <point x="272" y="191"/>
      <point x="272" y="153" type="curve"/>
      <point x="272" y="128"/>
      <point x="252" y="114"/>
      <point x="227" y="114" type="curve"/>
      <point x="187" y="114"/>
      <point x="155" y="126"/>
      <point x="120" y="146" type="curve"/>
      <point x="48" y="47"/>
      <point x="120" y="146"/>
    </contour>
    <contour>
      <point x="254" y="493" type="curve"/>
      <point x="254" y="361"/>
      <point x="254" y="493"/>
      <point x="254" y="361" type="curve"/>
      <point x="366" y="361"/>
      <point x="254" y="361"/>
      <point x="366" y="361" type="curve"/>
      <point x="366" y="493"/>
      <point x="366" y="361"/>
      <point x="366" y="493" type="curve"/>
      <point x="254" y="493"/>
      <point x="366" y="493"/>
    </contour>
    <contour>
      <point x="160" y="47" type="curve"/>
      <point x="160" y="183"/>
      <point x="160" y="47"/>
      <point x="160" y="183" type="curve"/>
      <point x="48" y="183"/>
      <point x="160" y="183"/>
      <point x="48" y="183" type="curve"/>
      <point x="48" y="47"/>
      <point x="48" y="183"/>
      <point x="48" y="47" type="curve"/>
      <point x="160" y="47"/>
      <point x="48" y="47"/>
    </contour>
  </outline>
</glyph>
<glyph name="v" format="1">
  <advance width="568"/>
  <unicode hex="0076"/>
  <outline>
    <contour>
      <point x="126" y="533" type="curve"/>
      <point x="90" y="533"/>
      <point x="55" y="533"/>
      <point x="20" y="533" type="curve"/>
      <point x="20" y="423"/>
      <point x="20" y="533"/>
      <point x="20" y="423" type="curve"/>
      <point x="126" y="423"/>
      <point x="20" y="423"/>
      <point x="126" y="423" type="curve"/>
      <point x="126" y="533"/>
      <point x="126" y="423"/>
    </contour>
    <contour>
      <point x="126" y="423" type="curve"/>
      <point x="263" y="423"/>
      <point x="126" y="423"/>
      <point x="263" y="423" type="curve"/>
      <point x="263" y="533"/>
      <point x="263" y="423"/>
      <point x="263" y="533" type="curve"/>
      <point x="218" y="533"/>
      <point x="172" y="533"/>
      <point x="126" y="533" type="curve"/>
      <point x="126" y="423"/>
      <point x="126" y="533"/>
    </contour>
    <contour>
      <point x="453" y="533" type="curve"/>
      <point x="407" y="533"/>
      <point x="361" y="533"/>
      <point x="316" y="533" type="curve"/>
      <point x="316" y="423"/>
      <point x="316" y="533"/>
      <point x="316" y="423" type="curve"/>
      <point x="453" y="423"/>
      <point x="316" y="423"/>
      <point x="453" y="423" type="curve"/>
      <point x="453" y="533"/>
      <point x="453" y="423"/>
    </contour>
    <contour>
      <point x="453" y="423" type="curve"/>
      <point x="560" y="423"/>
      <point x="453" y="423"/>
      <point x="560" y="423" type="curve"/>
      <point x="560" y="533"/>
      <point x="560" y="423"/>
      <point x="560" y="533" type="curve"/>
      <point x="524" y="533"/>
      <point x="488" y="533"/>
      <point x="453" y="533" type="curve"/>
      <point x="453" y="423"/>
      <point x="453" y="533"/>
    </contour>
    <contour>
      <point x="46" y="533" type="curve"/>
      <point x="98" y="355"/>
      <point x="150" y="178"/>
      <point x="202" y="0" type="curve"/>
      <point x="335" y="0"/>
      <point x="202" y="0"/>
      <point x="335" y="0" type="curve"/>
      <point x="284" y="177"/>
      <point x="242" y="356"/>
      <point x="191" y="533" type="curve"/>
      <point x="46" y="533"/>
      <point x="191" y="533"/>
    </contour>
    <contour>
      <point x="389" y="533" type="curve"/>
      <point x="389" y="533"/>
      <point x="235" y="0"/>
      <point x="235" y="0" type="curve"/>
      <point x="369" y="0"/>
      <point x="235" y="0"/>
      <point x="369" y="0" type="curve"/>
      <point x="424" y="178"/>
      <point x="478" y="355"/>
      <point x="533" y="533" type="curve"/>
      <point x="389" y="533"/>
      <point x="533" y="533"/>
    </contour>
  </outline>
</glyph>
<glyph name="z" format="1">
  <advance width="456"/>
  <unicode hex="007A"/>
  <outline>
    <contour>
      <point x="241" y="610" type="move" name="top"/>
    </contour>
    <contour>
      <point x="49" y="423" type="curve"/>
      <point x="156" y="423"/>
      <point x="264" y="423"/>
      <point x="372" y="423" type="curve"/>
      <point x="361" y="434"/>
      <point x="341" y="431"/>
      <point x="330" y="442" type="curve"/>
      <point x="320" y="451"/>
      <point x="323" y="469"/>
      <point x="312" y="479" type="curve"/>
      <point x="304" y="469"/>
      <point x="287" y="479"/>
      <point x="279" y="470" type="curve"/>
      <point x="37" y="111" type="line"/>
      <point x="37" y="54"/>
      <point x="37" y="111"/>
      <point x="37" y="54" type="curve"/>
      <point x="37" y="0"/>
      <point x="37" y="54"/>
      <point x="37" y="0" type="curve"/>
      <point x="89" y="0"/>
      <point x="37" y="0"/>
      <point x="89" y="0" type="curve"/>
      <point x="429" y="0"/>
      <point x="315" y="0"/>
      <point x="429" y="0" type="curve"/>
      <point x="429" y="110"/>
      <point x="429" y="0"/>
      <point x="429" y="110" type="curve"/>
      <point x="315" y="110"/>
      <point x="202" y="111"/>
      <point x="89" y="111" type="curve"/>
      <point x="99" y="102"/>
      <point x="115" y="103"/>
      <point x="125" y="95" type="curve"/>
      <point x="137" y="84"/>
      <point x="136" y="65"/>
      <point x="147" y="54" type="curve"/>
      <point x="155" y="64"/>
      <point x="172" y="54"/>
      <point x="180" y="63" type="curve"/>
      <point x="429" y="423" type="line"/>
      <point x="429" y="479"/>
      <point x="429" y="423"/>
      <point x="429" y="479" type="curve"/>
      <point x="429" y="533"/>
      <point x="429" y="479"/>
      <point x="429" y="533" type="curve"/>
      <point x="372" y="533"/>
      <point x="429" y="533"/>
      <point x="372" y="533" type="curve"/>
      <point x="264" y="533"/>
      <point x="156" y="533"/>
      <point x="49" y="533" type="curve"/>
      <point x="49" y="423"/>
      <point x="49" y="533"/>
    </contour>
    <contour>
      <point x="49" y="478" type="curve"/>
      <point x="49" y="358"/>
      <point x="49" y="478"/>
      <point x="49" y="358" type="curve"/>
      <point x="160" y="358"/>
      <point x="49" y="358"/>
      <point x="160" y="358" type="curve"/>
      <point x="160" y="478"/>
      <point x="160" y="358"/>
      <point x="160" y="478" type="curve"/>
      <point x="49" y="478"/>
      <point x="160" y="478"/>
    </contour>
    <contour>
      <point x="429" y="55" type="curve"/>
      <point x="429" y="175"/>
      <point x="429" y="55"/>
      <point x="429" y="175" type="curve"/>
      <point x="317" y="175"/>
      <point x="429" y="175"/>
      <point x="317" y="175" type="curve"/>
      <point x="317" y="55"/>
      <point x="317" y="175"/>
      <point x="317" y="55" type="curve"/>
      <point x="429" y="55"/>
      <point x="317" y="55"/>
    </contour>
  </outline>
</glyph>
<glyph name="braceleft" format="1">
  <advance width="252"/>
  <unicode hex="007B"/>
  <outline>
    <contour>
      <point x="207" y="2" type="curve"/>
      <point x="178" y="2"/>
      <point x="185" y="34"/>
      <point x="185" y="66" type="curve"/>
      <point x="185" y="117"/>
      <point x="185" y="168"/>
      <point x="185" y="219" type="curve"/>
      <point x="185" y="323"/>
      <point x="132" y="399"/>
      <point x="34" y="399" type="curve"/>
      <point x="34" y="283"/>
      <point x="34" y="399"/>
      <point x="34" y="283" type="curve"/>
      <point x="57" y="283"/>
      <point x="55" y="257"/>
      <point x="55" y="230" type="curve"/>
      <point x="55" y="177"/>
      <point x="55" y="124"/>
      <point x="55" y="72" type="curve"/>
      <point x="55" y="-34"/>
      <point x="107" y="-108"/>
      <point x="207" y="-108" type="curve"/>
      <point x="207" y="2"/>
      <point x="207" y="-108"/>
    </contour>
    <contour>
      <point x="207" y="790" type="curve"/>
      <point x="107" y="790"/>
      <point x="55" y="718"/>
      <point x="55" y="614" type="curve"/>
      <point x="55" y="559"/>
      <point x="55" y="504"/>
      <point x="55" y="449" type="curve"/>
      <point x="55" y="423"/>
      <point x="56" y="399"/>
      <point x="34" y="399" type="curve"/>
      <point x="34" y="283"/>
      <point x="34" y="399"/>
      <point x="34" y="283" type="curve"/>
      <point x="133" y="283"/>
      <point x="185" y="359"/>
      <point x="185" y="466" type="curve"/>
      <point x="185" y="515"/>
      <point x="185" y="564"/>
      <point x="185" y="614" type="curve"/>
      <point x="185" y="647"/>
      <point x="177" y="679"/>
      <point x="207" y="679" type="curve"/>
      <point x="207" y="790"/>
      <point x="207" y="679"/>
    </contour>
  </outline>
</glyph>
<glyph name="braceright" format="1">
  <advance width="253"/>
  <unicode hex="007D"/>
  <outline>
    <contour>
      <point x="46" y="-108" type="curve"/>
      <point x="145" y="-108"/>
      <point x="198" y="-34"/>
      <point x="198" y="72" type="curve"/>
      <point x="198" y="124"/>
      <point x="198" y="177"/>
      <point x="198" y="230" type="curve"/>
      <point x="198" y="257"/>
      <point x="195" y="283"/>
      <point x="219" y="283" type="curve"/>
      <point x="219" y="399"/>
      <point x="219" y="283"/>
      <point x="219" y="399" type="curve"/>
      <point x="120" y="399"/>
      <point x="68" y="323"/>
      <point x="68" y="219" type="curve"/>
      <point x="68" y="168"/>
      <point x="68" y="117"/>
      <point x="68" y="66" type="curve"/>
      <point x="68" y="34"/>
      <point x="74" y="2"/>
      <point x="46" y="2" type="curve"/>
      <point x="46" y="-108"/>
      <point x="46" y="2"/>
    </contour>
    <contour>
      <point x="46" y="679" type="curve"/>
      <point x="75" y="679"/>
      <point x="68" y="647"/>
      <point x="68" y="614" type="curve"/>
      <point x="68" y="564"/>
      <point x="68" y="515"/>
      <point x="68" y="466" type="curve"/>
      <point x="68" y="359"/>
      <point x="119" y="283"/>
      <point x="219" y="283" type="curve"/>
      <point x="219" y="399"/>
      <point x="219" y="283"/>
      <point x="219" y="399" type="curve"/>
      <point x="196" y="399"/>
      <point x="198" y="423"/>
      <point x="198" y="449" type="curve"/>
      <point x="198" y="504"/>
      <point x="198" y="559"/>
      <point x="198" y="614" type="curve"/>
      <point x="198" y="718"/>
      <point x="145" y="790"/>
      <point x="46" y="790" type="curve"/>
      <point x="46" y="679"/>
      <point x="46" y="790"/>
    </contour>
  </outline>
</glyph>
<glyph name="asciitilde" format="1">
  <advance width="591"/>
  <unicode hex="007E"/>
  <outline>
    <contour>
      <point x="425" y="380" type="curve"/>
      <point x="415" y="344"/>
      <point x="401" y="310"/>
      <point x="382" y="310" type="curve"/>
      <point x="364" y="310"/>
      <point x="355" y="317"/>
      <point x="343" y="329" type="curve"/>
      <point x="302" y="371"/>
      <point x="272" y="393"/>
      <point x="213" y="393" type="curve"/>
      <point x="119" y="393"/>
      <point x="76" y="337"/>
      <point x="54" y="242" type="curve"/>
      <point x="99" y="227"/>
      <point x="124" y="218"/>
      <point x="169" y="203" type="curve"/>
      <point x="177" y="241"/>
      <point x="190" y="275"/>
      <point x="211" y="275" type="curve"/>
      <point x="230" y="275"/>
      <point x="239" y="268"/>
      <point x="253" y="255" type="curve"/>
      <point x="295" y="213"/>
      <point x="325" y="193"/>
      <point x="384" y="192" type="curve"/>
      <point x="476" y="192"/>
      <point x="511" y="252"/>
      <point x="538" y="344" type="curve"/>
      <point x="494" y="358"/>
      <point x="469" y="366"/>
    </contour>
  </outline>
</glyph>
<glyph name="exclamdown" format="1">
  <advance width="263"/>
  <unicode hex="00A1"/>
  <outline>
    <contour>
      <point x="62" y="301" type="line"/>
      <point x="50" y="-192" type="line"/>
      <point x="213" y="-193" type="line"/>
      <point x="205" y="300" type="line"/>
    </contour>
    <contour>
      <point x="61" y="468" type="curve"/>
      <point x="60" y="420"/>
      <point x="92" y="396"/>
      <point x="135" y="395" type="curve"/>
      <point x="179" y="395"/>
      <point x="208" y="421"/>
      <point x="208" y="467" type="curve"/>
      <point x="61" y="468"/>
      <point x="208" y="467"/>
      <point x="61" y="468" type="curve"/>
      <point x="61" y="517"/>
      <point x="92" y="539"/>
      <point x="136" y="538" type="curve"/>
      <point x="181" y="538"/>
      <point x="209" y="514"/>
      <point x="208" y="467" type="curve"/>
      <point x="61" y="468"/>
      <point x="208" y="467"/>
    </contour>
  </outline>
</glyph>
<glyph name="currency" format="1">
  <advance width="607"/>
  <unicode hex="00A4"/>
  <outline>
    <contour>
      <point x="257" y="317" type="curve"/>
      <point x="257" y="359"/>
      <point x="263" y="400"/>
      <point x="300" y="400" type="curve"/>
      <point x="340" y="400"/>
      <point x="347" y="364"/>
      <point x="347" y="318" type="curve"/>
      <point x="347" y="274"/>
      <point x="341" y="228"/>
      <point x="303" y="228" type="curve"/>
      <point x="262" y="228"/>
      <point x="257" y="270"/>
      <point x="257" y="317" type="curve"/>
      <point x="114" y="317"/>
      <point x="265" y="317"/>
      <point x="122" y="317" type="curve"/>
      <point x="122" y="198"/>
      <point x="189" y="118"/>
      <point x="304" y="118" type="curve"/>
      <point x="419" y="118"/>
      <point x="485" y="201"/>
      <point x="485" y="320" type="curve"/>
      <point x="485" y="433"/>
      <point x="422" y="510"/>
      <point x="312" y="510" type="curve"/>
      <point x="195" y="510"/>
      <point x="122" y="434"/>
      <point x="122" y="317" type="curve"/>
      <point x="265" y="317"/>
      <point x="114" y="317"/>
    </contour>
    <contour>
      <point x="393" y="337" type="line"/>
      <point x="554" y="484" type="line"/>
      <point x="453" y="585" type="line"/>
      <point x="306" y="424" type="line"/>
    </contour>
    <contour>
      <point x="312" y="213" type="line"/>
      <point x="459" y="52" type="line"/>
      <point x="560" y="153" type="line"/>
      <point x="399" y="300" type="line"/>
    </contour>
    <contour>
      <point x="209" y="299" type="line"/>
      <point x="48" y="152" type="line"/>
      <point x="149" y="51" type="line"/>
      <point x="296" y="212" type="line"/>
    </contour>
    <contour>
      <point x="304" y="425" type="line"/>
      <point x="157" y="586" type="line"/>
      <point x="56" y="485" type="line"/>
      <point x="217" y="338" type="line"/>
    </contour>
  </outline>
</glyph>
<glyph name="dieresis" format="1">
  <advance width="379"/>
  <unicode hex="00A8"/>
  <outline>
    <contour>
      <point x="195" y="605" type="move" name="_top"/>
    </contour>
    <contour>
      <point x="170" y="670" type="curve"/>
      <point x="170" y="718"/>
      <point x="139" y="742"/>
      <point x="95" y="742" type="curve"/>
      <point x="51" y="742"/>
      <point x="22" y="716"/>
      <point x="22" y="670" type="curve"/>
      <point x="170" y="670"/>
      <point x="22" y="670"/>
      <point x="170" y="670" type="curve"/>
      <point x="170" y="621"/>
      <point x="140" y="599"/>
      <point x="95" y="599" type="curve"/>
      <point x="51" y="599"/>
      <point x="22" y="623"/>
      <point x="22" y="670" type="curve"/>
      <point x="170" y="670"/>
      <point x="22" y="670"/>
    </contour>
    <contour>
      <point x="370" y="670" type="curve"/>
      <point x="370" y="718"/>
      <point x="339" y="742"/>
      <point x="295" y="742" type="curve"/>
      <point x="251" y="742"/>
      <point x="222" y="716"/>
      <point x="222" y="670" type="curve"/>
      <point x="370" y="670"/>
      <point x="222" y="670"/>
      <point x="370" y="670" type="curve"/>
      <point x="370" y="621"/>
      <point x="340" y="599"/>
      <point x="295" y="599" type="curve"/>
      <point x="251" y="599"/>
      <point x="222" y="623"/>
      <point x="222" y="670" type="curve"/>
      <point x="370" y="670"/>
      <point x="222" y="670"/>
    </contour>
  </outline>
</glyph>
<glyph name="ordfeminine" format="1">
  <advance width="385"/>
  <unicode hex="00AA"/>
  <outline>
    <contour>
      <point x="60" y="721" type="curve"/>
      <point x="60" y="649"/>
      <point x="60" y="721"/>
      <point x="60" y="649" type="curve"/>
      <point x="133" y="649"/>
      <point x="60" y="649"/>
      <point x="133" y="649" type="curve"/>
      <point x="133" y="721"/>
      <point x="133" y="649"/>
      <point x="133" y="721" type="curve"/>
      <point x="60" y="721"/>
      <point x="133" y="721"/>
    </contour>
    <contour>
      <point x="304" y="424" type="curve"/>
      <point x="304" y="503"/>
      <point x="304" y="583"/>
      <point x="304" y="662" type="curve"/>
      <point x="304" y="738"/>
      <point x="253" y="770"/>
      <point x="179" y="770" type="curve"/>
      <point x="125" y="770"/>
      <point x="87" y="749"/>
      <point x="60" y="721" type="curve"/>
      <point x="95" y="661"/>
      <point x="60" y="721"/>
      <point x="95" y="661" type="curve"/>
      <point x="111" y="678"/>
      <point x="133" y="696"/>
      <point x="166" y="696" type="curve"/>
      <point x="196" y="696"/>
      <point x="212" y="680"/>
      <point x="212" y="651" type="curve"/>
      <point x="212" y="575"/>
      <point x="212" y="499"/>
      <point x="212" y="424" type="curve"/>
      <point x="304" y="424"/>
      <point x="212" y="424"/>
    </contour>
    <contour>
      <point x="259" y="424" type="curve"/>
      <point x="285" y="424"/>
      <point x="313" y="424"/>
      <point x="339" y="424" type="curve"/>
      <point x="339" y="495"/>
      <point x="339" y="424"/>
      <point x="339" y="495" type="curve"/>
      <point x="259" y="495"/>
      <point x="339" y="495"/>
      <point x="259" y="495" type="curve"/>
      <point x="259" y="424"/>
      <point x="259" y="495"/>
    </contour>
    <contour>
      <point x="256" y="649" type="curve"/>
      <point x="218" y="644"/>
      <point x="196" y="642"/>
      <point x="159" y="636" type="curve"/>
      <point x="89" y="626"/>
      <point x="42" y="597"/>
      <point x="42" y="530" type="curve"/>
      <point x="42" y="461"/>
      <point x="79" y="421"/>
      <point x="147" y="421" type="curve"/>
      <point x="215" y="421"/>
      <point x="241" y="477"/>
      <point x="281" y="523" type="curve"/>
      <point x="234" y="562"/>
      <point x="281" y="523"/>
      <point x="234" y="562" type="curve"/>
      <point x="218" y="524"/>
      <point x="206" y="492"/>
      <point x="169" y="492" type="curve"/>
      <point x="142" y="492"/>
      <point x="131" y="507"/>
      <point x="131" y="534" type="curve"/>
      <point x="131" y="554"/>
      <point x="145" y="570"/>
      <point x="162" y="573" type="curve"/>
      <point x="202" y="579"/>
      <point x="219" y="582"/>
      <point x="259" y="589" type="curve"/>
      <point x="256" y="649"/>
      <point x="259" y="589"/>
    </contour>
  </outline>
</glyph>
<glyph name="guillemotleft" format="1">
  <advance width="447"/>
  <unicode hex="00AB"/>
  <outline>
    <contour>
      <point x="200" y="489" type="curve"/>
      <point x="158" y="454"/>
      <point x="85" y="393"/>
      <point x="42" y="358" type="curve"/>
      <point x="42" y="236"/>
      <point x="42" y="338"/>
      <point x="42" y="216" type="curve"/>
      <point x="85" y="251"/>
      <point x="158" y="323"/>
      <point x="200" y="358" type="curve"/>
      <point x="200" y="479"/>
      <point x="200" y="368"/>
    </contour>
    <contour>
      <point x="200" y="219" type="curve"/>
      <point x="158" y="254"/>
      <point x="85" y="323"/>
      <point x="42" y="358" type="curve"/>
      <point x="42" y="236"/>
      <point x="42" y="338"/>
      <point x="42" y="216" type="curve"/>
      <point x="85" y="181"/>
      <point x="158" y="122"/>
      <point x="200" y="88" type="curve"/>
      <point x="200" y="209"/>
      <point x="200" y="98"/>
    </contour>
    <contour>
      <point x="382" y="489" type="curve"/>
      <point x="340" y="454"/>
      <point x="267" y="393"/>
      <point x="224" y="358" type="curve"/>
      <point x="224" y="236"/>
      <point x="224" y="338"/>
      <point x="224" y="216" type="curve"/>
      <point x="267" y="251"/>
      <point x="340" y="323"/>
      <point x="382" y="358" type="curve"/>
      <point x="382" y="479"/>
      <point x="382" y="368"/>
    </contour>
    <contour>
      <point x="382" y="219" type="curve"/>
      <point x="340" y="254"/>
      <point x="267" y="323"/>
      <point x="224" y="358" type="curve"/>
      <point x="224" y="236"/>
      <point x="224" y="338"/>
      <point x="224" y="216" type="curve"/>
      <point x="267" y="181"/>
      <point x="340" y="122"/>
      <point x="382" y="88" type="curve"/>
      <point x="382" y="209"/>
      <point x="382" y="98"/>
    </contour>
  </outline>
</glyph>
<glyph name="logicalnot" format="1">
  <advance width="512"/>
  <unicode hex="00AC"/>
  <outline>
    <contour>
      <point x="67" y="255" type="curve"/>
      <point x="67" y="255"/>
      <point x="448" y="255"/>
      <point x="448" y="255" type="curve"/>
      <point x="448" y="376"/>
      <point x="448" y="255"/>
      <point x="448" y="376" type="curve"/>
      <point x="448" y="376"/>
      <point x="67" y="376"/>
      <point x="67" y="376" type="curve"/>
      <point x="67" y="255"/>
      <point x="67" y="376"/>
    </contour>
    <contour>
      <point x="448" y="138" type="curve"/>
      <point x="448" y="138"/>
      <point x="448" y="376"/>
      <point x="448" y="376" type="curve"/>
      <point x="305" y="376"/>
      <point x="449" y="376"/>
      <point x="306" y="376" type="curve"/>
      <point x="306" y="376"/>
      <point x="306" y="138"/>
      <point x="306" y="138" type="curve"/>
      <point x="449" y="138"/>
      <point x="305" y="138"/>
    </contour>
  </outline>
</glyph>
<glyph name="acute" format="1">
  <advance width="467"/>
  <unicode hex="00B4"/>
  <outline>
    <contour>
      <point x="123" y="592" type="move" name="_top"/>
    </contour>
    <contour>
      <point x="187" y="591" type="line"/>
      <point x="311" y="757" type="line"/>
      <point x="136" y="757" type="line"/>
      <point x="52" y="591" type="line"/>
    </contour>
  </outline>
</glyph>
<glyph name="ordmasculine" format="1">
  <advance width="373"/>
  <unicode hex="00BA"/>
  <outline>
    <contour>
      <point x="123" y="593" type="line"/>
      <point x="123" y="644"/>
      <point x="134" y="694"/>
      <point x="183" y="694" type="curve"/>
      <point x="231" y="694"/>
      <point x="244" y="646"/>
      <point x="244" y="593" type="curve"/>
      <point x="244" y="539"/>
      <point x="234" y="494"/>
      <point x="189" y="494" type="curve"/>
      <point x="134" y="494"/>
      <point x="123" y="538"/>
      <point x="123" y="593" type="curve"/>
      <point x="38" y="593" type="line"/>
      <point x="38" y="490"/>
      <point x="88" y="420"/>
      <point x="185" y="420" type="curve"/>
      <point x="283" y="420"/>
      <point x="336" y="489"/>
      <point x="336" y="593" type="curve"/>
      <point x="336" y="697"/>
      <point x="285" y="768"/>
      <point x="187" y="768" type="curve"/>
      <point x="88" y="768"/>
      <point x="38" y="697"/>
      <point x="38" y="593" type="curve"/>
    </contour>
  </outline>
</glyph>
<glyph name="Aring" format="1">
  <advance width="674"/>
  <unicode hex="00C5"/>
  <outline>
    <contour>
      <point x="125" y="110" type="curve"/>
      <point x="-13" y="110"/>
      <point x="135" y="110"/>
      <point x="-3" y="110" type="curve"/>
      <point x="-3" y="0"/>
      <point x="-3" y="110"/>
      <point x="-3" y="0" type="curve"/>
      <point x="43" y="0"/>
      <point x="79" y="0"/>
      <point x="124" y="0" type="curve"/>
      <point x="125" y="110"/>
      <point x="124" y="0"/>
    </contour>
    <contour>
      <point x="125" y="0" type="curve"/>
      <point x="181" y="0"/>
      <point x="125" y="0"/>
      <point x="294" y="0" type="curve"/>
      <point x="294" y="110"/>
      <point x="294" y="0"/>
      <point x="294" y="110" type="curve"/>
      <point x="125" y="110"/>
      <point x="294" y="110"/>
      <point x="125" y="110" type="curve"/>
      <point x="125" y="0"/>
      <point x="125" y="110"/>
    </contour>
    <contour>
      <point x="535" y="0" type="curve"/>
      <point x="580" y="0"/>
      <point x="616" y="0"/>
      <point x="662" y="0" type="curve"/>
      <point x="662" y="110"/>
      <point x="662" y="0"/>
      <point x="662" y="110" type="curve"/>
      <point x="525" y="110"/>
      <point x="672" y="110"/>
      <point x="535" y="110" type="curve"/>
      <point x="535" y="0"/>
      <point x="535" y="110"/>
    </contour>
    <contour>
      <point x="535" y="110" type="curve"/>
      <point x="365" y="110"/>
      <point x="535" y="110"/>
      <point x="365" y="110" type="curve"/>
      <point x="365" y="0"/>
      <point x="365" y="110"/>
      <point x="365" y="0" type="curve"/>
      <point x="422" y="0"/>
      <point x="478" y="0"/>
      <point x="535" y="0" type="curve"/>
      <point x="535" y="110"/>
      <point x="535" y="0"/>
    </contour>
    <contour>
      <point x="447" y="294" type="curve"/>
      <point x="375" y="294"/>
      <point x="302" y="294"/>
      <point x="230" y="294" type="curve"/>
      <point x="171" y="177"/>
      <point x="230" y="294"/>
      <point x="171" y="177" type="curve"/>
      <point x="278" y="177"/>
      <point x="386" y="177"/>
      <point x="493" y="177" type="curve"/>
      <point x="447" y="294"/>
      <point x="493" y="177"/>
    </contour>
    <contour>
      <point x="618" y="0" type="curve"/>
      <point x="550" y="241"/>
      <point x="475" y="481"/>
      <point x="407" y="722" type="curve"/>
      <point x="277" y="722"/>
      <point x="407" y="722"/>
      <point x="277" y="722" type="curve"/>
      <point x="343" y="482"/>
      <point x="402" y="240"/>
      <point x="469" y="0" type="curve"/>
      <point x="618" y="0"/>
      <point x="469" y="0"/>
    </contour>
    <contour>
      <point x="194" y="0" type="curve"/>
      <point x="268" y="240"/>
      <point x="331" y="482"/>
      <point x="406" y="722" type="curve"/>
      <point x="276" y="722"/>
      <point x="406" y="722"/>
      <point x="276" y="722" type="curve"/>
      <point x="200" y="480"/>
      <point x="113" y="242"/>
      <point x="38" y="0" type="curve"/>
      <point x="194" y="0"/>
      <point x="38" y="0"/>
    </contour>
    <contour>
      <point x="192" y="926" type="curve"/>
      <point x="192" y="836"/>
      <point x="248" y="778"/>
      <point x="337" y="778" type="curve"/>
      <point x="427" y="778"/>
      <point x="483" y="835"/>
      <point x="483" y="926" type="curve"/>
      <point x="483" y="1016"/>
      <point x="426" y="1073"/>
      <point x="335" y="1073" type="curve"/>
      <point x="246" y="1073"/>
      <point x="192" y="1015"/>
      <point x="192" y="926" type="curve"/>
      <point x="318" y="926"/>
      <point x="181" y="926"/>
      <point x="307" y="926" type="curve"/>
      <point x="307" y="948"/>
      <point x="307" y="973"/>
      <point x="335" y="973" type="curve"/>
      <point x="361" y="973"/>
      <point x="363" y="949"/>
      <point x="363" y="926" type="curve"/>
      <point x="363" y="903"/>
      <point x="363" y="879"/>
      <point x="337" y="879" type="curve"/>
      <point x="310" y="879"/>
      <point x="307" y="903"/>
      <point x="307" y="926" type="curve"/>
      <point x="181" y="926"/>
      <point x="318" y="926"/>
    </contour>
  </outline>
</glyph>
<glyph name="AE" format="1">
  <advance width="821"/>
  <unicode hex="00C6"/>
  <outline>
    <contour>
      <point x="110" y="110" type="curve"/>
      <point x="2" y="110"/>
      <point x="110" y="110"/>
      <point x="2" y="110" type="curve"/>
      <point x="2" y="0"/>
      <point x="2" y="110"/>
      <point x="2" y="0" type="curve"/>
      <point x="38" y="0"/>
      <point x="73" y="0"/>
      <point x="109" y="0" type="curve"/>
      <point x="110" y="110"/>
      <point x="109" y="0"/>
    </contour>
    <contour>
      <point x="110" y="0" type="curve"/>
      <point x="164" y="0"/>
      <point x="110" y="0"/>
      <point x="274" y="0" type="curve"/>
      <point x="274" y="110"/>
      <point x="274" y="0"/>
      <point x="274" y="110" type="curve"/>
      <point x="110" y="110"/>
      <point x="274" y="110"/>
      <point x="110" y="110" type="curve"/>
      <point x="110" y="0"/>
      <point x="110" y="110"/>
    </contour>
    <contour>
      <point x="432" y="277" type="curve"/>
      <point x="360" y="277"/>
      <point x="287" y="277"/>
      <point x="215" y="277" type="curve"/>
      <point x="156" y="160"/>
      <point x="215" y="277"/>
      <point x="156" y="160" type="curve"/>
      <point x="263" y="160"/>
      <point x="371" y="160"/>
      <point x="478" y="160" type="curve"/>
      <point x="432" y="277"/>
      <point x="478" y="160"/>
    </contour>
    <contour>
      <point x="179" y="0" type="curve"/>
      <point x="547" y="722" type="line"/>
      <point x="417" y="722"/>
      <point x="547" y="722"/>
      <point x="417" y="722" type="curve"/>
      <point x="23" y="0" type="line"/>
      <point x="179" y="0"/>
      <point x="23" y="0"/>
    </contour>
    <contour>
      <point x="785" y="55" type="curve"/>
      <point x="785" y="175"/>
      <point x="785" y="55"/>
      <point x="785" y="175" type="curve"/>
      <point x="673" y="175"/>
      <point x="785" y="175"/>
      <point x="673" y="175" type="curve"/>
      <point x="673" y="55"/>
      <point x="673" y="175"/>
      <point x="673" y="55" type="curve"/>
      <point x="785" y="55"/>
      <point x="673" y="55"/>
    </contour>
    <contour>
      <point x="648" y="667" type="curve"/>
      <point x="648" y="547"/>
      <point x="648" y="667"/>
      <point x="648" y="547" type="curve"/>
      <point x="760" y="547"/>
      <point x="648" y="547"/>
      <point x="760" y="547" type="curve"/>
      <point x="760" y="667"/>
      <point x="760" y="547"/>
      <point x="760" y="667" type="curve"/>
      <point x="648" y="667"/>
      <point x="760" y="667"/>
    </contour>
    <contour>
      <point x="464" y="110" type="curve"/>
      <point x="327" y="110"/>
      <point x="464" y="110"/>
      <point x="327" y="110" type="curve"/>
      <point x="327" y="0"/>
      <point x="327" y="110"/>
      <point x="327" y="0" type="curve"/>
      <point x="373" y="0"/>
      <point x="419" y="0"/>
      <point x="464" y="0" type="curve"/>
      <point x="464" y="110"/>
      <point x="464" y="0"/>
    </contour>
    <contour>
      <point x="464" y="722" type="curve"/>
      <point x="419" y="722"/>
      <point x="373" y="722"/>
      <point x="327" y="722" type="curve"/>
      <point x="327" y="612"/>
      <point x="327" y="722"/>
      <point x="327" y="612" type="curve"/>
      <point x="464" y="612"/>
      <point x="327" y="612"/>
      <point x="464" y="612" type="curve"/>
      <point x="464" y="722"/>
      <point x="464" y="612"/>
    </contour>
    <contour>
      <point x="467" y="317" type="curve"/>
      <point x="548" y="317"/>
      <point x="631" y="317"/>
      <point x="713" y="317" type="curve"/>
      <point x="713" y="428"/>
      <point x="713" y="317"/>
      <point x="713" y="428" type="curve"/>
      <point x="631" y="428"/>
      <point x="548" y="428"/>
      <point x="467" y="428" type="curve"/>
      <point x="467" y="317"/>
      <point x="467" y="428"/>
    </contour>
    <contour>
      <point x="455" y="612" type="curve"/>
      <point x="557" y="612"/>
      <point x="658" y="612"/>
      <point x="760" y="612" type="curve"/>
      <point x="760" y="722"/>
      <point x="760" y="612"/>
      <point x="760" y="722" type="curve"/>
      <point x="658" y="722"/>
      <point x="557" y="722"/>
      <point x="455" y="722" type="curve"/>
      <point x="455" y="612"/>
      <point x="455" y="722"/>
    </contour>
    <contour>
      <point x="535" y="0" type="curve"/>
      <point x="535" y="0"/>
      <point x="535" y="722"/>
      <point x="535" y="722" type="curve"/>
      <point x="392" y="722"/>
      <point x="535" y="722"/>
      <point x="392" y="722" type="curve"/>
      <point x="392" y="481"/>
      <point x="392" y="241"/>
      <point x="392" y="0" type="curve"/>
      <point x="535" y="0"/>
      <point x="392" y="0"/>
    </contour>
    <contour>
      <point x="455" y="0" type="curve"/>
      <point x="565" y="0"/>
      <point x="675" y="0"/>
      <point x="785" y="0" type="curve"/>
      <point x="785" y="110"/>
      <point x="785" y="0"/>
      <point x="785" y="110" type="curve"/>
      <point x="675" y="110"/>
      <point x="565" y="110"/>
      <point x="455" y="110" type="curve"/>
      <point x="455" y="0"/>
      <point x="455" y="110"/>
    </contour>
  </outline>
</glyph>
<glyph name="Edieresis" format="1">
  <advance width="558"/>
  <unicode hex="00CB"/>
  <outline>
    <contour>
      <point x="521" y="55" type="curve"/>
      <point x="521" y="175"/>
      <point x="521" y="55"/>
      <point x="521" y="175" type="curve"/>
      <point x="409" y="175"/>
      <point x="521" y="175"/>
      <point x="409" y="175" type="curve"/>
      <point x="409" y="55"/>
      <point x="409" y="175"/>
      <point x="409" y="55" type="curve"/>
      <point x="521" y="55"/>
      <point x="409" y="55"/>
    </contour>
    <contour>
      <point x="384" y="667" type="curve"/>
      <point x="384" y="547"/>
      <point x="384" y="667"/>
      <point x="384" y="547" type="curve"/>
      <point x="496" y="547"/>
      <point x="384" y="547"/>
      <point x="496" y="547" type="curve"/>
      <point x="496" y="667"/>
      <point x="496" y="547"/>
      <point x="496" y="667" type="curve"/>
      <point x="384" y="667"/>
      <point x="496" y="667"/>
    </contour>
    <contour>
      <point x="200" y="110" type="curve"/>
      <point x="63" y="110"/>
      <point x="200" y="110"/>
      <point x="63" y="110" type="curve"/>
      <point x="63" y="0"/>
      <point x="63" y="110"/>
      <point x="63" y="0" type="curve"/>
      <point x="109" y="0"/>
      <point x="155" y="0"/>
      <point x="200" y="0" type="curve"/>
      <point x="200" y="110"/>
      <point x="200" y="0"/>
    </contour>
    <contour>
      <point x="200" y="722" type="curve"/>
      <point x="155" y="722"/>
      <point x="109" y="722"/>
      <point x="63" y="722" type="curve"/>
      <point x="63" y="612"/>
      <point x="63" y="722"/>
      <point x="63" y="612" type="curve"/>
      <point x="200" y="612"/>
      <point x="63" y="612"/>
      <point x="200" y="612" type="curve"/>
      <point x="200" y="722"/>
      <point x="200" y="612"/>
    </contour>
    <contour>
      <point x="203" y="317" type="curve"/>
      <point x="284" y="317"/>
      <point x="367" y="317"/>
      <point x="449" y="317" type="curve"/>
      <point x="449" y="428"/>
      <point x="449" y="317"/>
      <point x="449" y="428" type="curve"/>
      <point x="367" y="428"/>
      <point x="284" y="428"/>
      <point x="203" y="428" type="curve"/>
      <point x="203" y="317"/>
      <point x="203" y="428"/>
    </contour>
    <contour>
      <point x="191" y="612" type="curve"/>
      <point x="293" y="612"/>
      <point x="394" y="612"/>
      <point x="496" y="612" type="curve"/>
      <point x="496" y="722"/>
      <point x="496" y="612"/>
      <point x="496" y="722" type="curve"/>
      <point x="394" y="722"/>
      <point x="293" y="722"/>
      <point x="191" y="722" type="curve"/>
      <point x="191" y="612"/>
      <point x="191" y="722"/>
    </contour>
    <contour>
      <point x="271" y="0" type="curve"/>
      <point x="271" y="0"/>
      <point x="271" y="722"/>
      <point x="271" y="722" type="curve"/>
      <point x="128" y="722"/>
      <point x="271" y="722"/>
      <point x="128" y="722" type="curve"/>
      <point x="128" y="481"/>
      <point x="128" y="241"/>
      <point x="128" y="0" type="curve"/>
      <point x="271" y="0"/>
      <point x="128" y="0"/>
    </contour>
    <contour>
      <point x="191" y="0" type="curve"/>
      <point x="301" y="0"/>
      <point x="411" y="0"/>
      <point x="521" y="0" type="curve"/>
      <point x="521" y="110"/>
      <point x="521" y="0"/>
      <point x="521" y="110" type="curve"/>
      <point x="411" y="110"/>
      <point x="301" y="110"/>
      <point x="191" y="110" type="curve"/>
      <point x="191" y="0"/>
      <point x="191" y="110"/>
    </contour>
    <contour>
      <point x="277" y="845" type="curve"/>
      <point x="277" y="893"/>
      <point x="245" y="917"/>
      <point x="202" y="917" type="curve"/>
      <point x="158" y="917"/>
      <point x="129" y="891"/>
      <point x="129" y="845" type="curve"/>
      <point x="277" y="845"/>
      <point x="129" y="845"/>
      <point x="277" y="845" type="curve"/>
      <point x="277" y="796"/>
      <point x="246" y="774"/>
      <point x="202" y="774" type="curve"/>
      <point x="157" y="774"/>
      <point x="129" y="798"/>
      <point x="129" y="845" type="curve"/>
      <point x="277" y="845"/>
      <point x="129" y="845"/>
    </contour>
    <contour>
      <point x="477" y="845" type="curve"/>
      <point x="477" y="893"/>
      <point x="445" y="917"/>
      <point x="402" y="917" type="curve"/>
      <point x="358" y="917"/>
      <point x="329" y="891"/>
      <point x="329" y="845" type="curve"/>
      <point x="477" y="845"/>
      <point x="329" y="845"/>
      <point x="477" y="845" type="curve"/>
      <point x="477" y="796"/>
      <point x="446" y="774"/>
      <point x="402" y="774" type="curve"/>
      <point x="357" y="774"/>
      <point x="329" y="798"/>
      <point x="329" y="845" type="curve"/>
      <point x="477" y="845"/>
      <point x="329" y="845"/>
    </contour>
  </outline>
</glyph>
<glyph name="Igrave" format="1">
  <advance width="351"/>
  <unicode hex="00CC"/>
  <outline>
    <contour>
      <point x="176" y="722" type="curve"/>
      <point x="130" y="722"/>
      <point x="84" y="722"/>
      <point x="38" y="722" type="curve"/>
      <point x="38" y="612"/>
      <point x="38" y="722"/>
      <point x="38" y="612" type="curve"/>
      <point x="176" y="612"/>
      <point x="38" y="612"/>
      <point x="176" y="612" type="curve"/>
      <point x="176" y="722"/>
      <point x="176" y="612"/>
    </contour>
    <contour>
      <point x="176" y="612" type="curve"/>
      <point x="313" y="612"/>
      <point x="176" y="612"/>
      <point x="313" y="612" type="curve"/>
      <point x="313" y="722"/>
      <point x="313" y="612"/>
      <point x="313" y="722" type="curve"/>
      <point x="267" y="722"/>
      <point x="221" y="722"/>
      <point x="176" y="722" type="curve"/>
      <point x="176" y="612"/>
      <point x="176" y="722"/>
    </contour>
    <contour>
      <point x="176" y="0" type="curve"/>
      <point x="221" y="0"/>
      <point x="267" y="0"/>
      <point x="313" y="0" type="curve"/>
      <point x="313" y="110"/>
      <point x="313" y="0"/>
      <point x="313" y="110" type="curve"/>
      <point x="176" y="110"/>
      <point x="313" y="110"/>
      <point x="176" y="110" type="curve"/>
      <point x="176" y="0"/>
      <point x="176" y="110"/>
    </contour>
    <contour>
      <point x="176" y="110" type="curve"/>
      <point x="38" y="110"/>
      <point x="176" y="110"/>
      <point x="38" y="110" type="curve"/>
      <point x="38" y="0"/>
      <point x="38" y="110"/>
      <point x="38" y="0" type="curve"/>
      <point x="84" y="0"/>
      <point x="130" y="0"/>
      <point x="176" y="0" type="curve"/>
      <point x="176" y="110"/>
      <point x="176" y="0"/>
    </contour>
    <contour>
      <point x="246" y="0" type="curve"/>
      <point x="246" y="241"/>
      <point x="246" y="481"/>
      <point x="246" y="722" type="curve"/>
      <point x="103" y="722"/>
      <point x="246" y="722"/>
      <point x="103" y="722" type="curve"/>
      <point x="103" y="481"/>
      <point x="103" y="241"/>
      <point x="103" y="0" type="curve"/>
      <point x="246" y="0"/>
      <point x="103" y="0"/>
    </contour>
    <contour>
      <point x="245" y="781" type="line"/>
      <point x="161" y="947" type="line"/>
      <point x="-14" y="947" type="line"/>
      <point x="110" y="781" type="line"/>
    </contour>
  </outline>
</glyph>
<glyph name="Icircumflex" format="1">
  <advance width="350"/>
  <unicode hex="00CE"/>
  <outline>
    <contour>
      <point x="172" y="722" type="curve"/>
      <point x="126" y="722"/>
      <point x="80" y="722"/>
      <point x="34" y="722" type="curve"/>
      <point x="34" y="612"/>
      <point x="34" y="722"/>
      <point x="34" y="612" type="curve"/>
      <point x="172" y="612"/>
      <point x="34" y="612"/>
      <point x="172" y="612" type="curve"/>
      <point x="172" y="722"/>
      <point x="172" y="612"/>
    </contour>
    <contour>
      <point x="172" y="612" type="curve"/>
      <point x="309" y="612"/>
      <point x="172" y="612"/>
      <point x="309" y="612" type="curve"/>
      <point x="309" y="722"/>
      <point x="309" y="612"/>
      <point x="309" y="722" type="curve"/>
      <point x="263" y="722"/>
      <point x="217" y="722"/>
      <point x="172" y="722" type="curve"/>
      <point x="172" y="612"/>
      <point x="172" y="722"/>
    </contour>
    <contour>
      <point x="172" y="0" type="curve"/>
      <point x="217" y="0"/>
      <point x="263" y="0"/>
      <point x="309" y="0" type="curve"/>
      <point x="309" y="110"/>
      <point x="309" y="0"/>
      <point x="309" y="110" type="curve"/>
      <point x="172" y="110"/>
      <point x="309" y="110"/>
      <point x="172" y="110" type="curve"/>
      <point x="172" y="0"/>
      <point x="172" y="110"/>
    </contour>
    <contour>
      <point x="172" y="110" type="curve"/>
      <point x="34" y="110"/>
      <point x="172" y="110"/>
      <point x="34" y="110" type="curve"/>
      <point x="34" y="0"/>
      <point x="34" y="110"/>
      <point x="34" y="0" type="curve"/>
      <point x="80" y="0"/>
      <point x="126" y="0"/>
      <point x="172" y="0" type="curve"/>
      <point x="172" y="110"/>
      <point x="172" y="0"/>
    </contour>
    <contour>
      <point x="242" y="0" type="curve"/>
      <point x="242" y="241"/>
      <point x="242" y="481"/>
      <point x="242" y="722" type="curve"/>
      <point x="99" y="722"/>
      <point x="242" y="722"/>
      <point x="99" y="722" type="curve"/>
      <point x="99" y="481"/>
      <point x="99" y="241"/>
      <point x="99" y="0" type="curve"/>
      <point x="242" y="0"/>
      <point x="99" y="0"/>
    </contour>
    <contour>
      <point x="109" y="780" type="line"/>
      <point x="233" y="946" type="line"/>
      <point x="58" y="946" type="line"/>
      <point x="-26" y="780" type="line"/>
    </contour>
    <contour>
      <point x="372" y="780" type="line"/>
      <point x="288" y="946" type="line"/>
      <point x="113" y="946" type="line"/>
      <point x="237" y="780" type="line"/>
    </contour>
  </outline>
</glyph>
<glyph name="Idieresis" format="1">
  <advance width="353"/>
  <unicode hex="00CF"/>
  <outline>
    <contour>
      <point x="178" y="722" type="curve"/>
      <point x="132" y="722"/>
      <point x="86" y="722"/>
      <point x="40" y="722" type="curve"/>
      <point x="40" y="612"/>
      <point x="40" y="722"/>
      <point x="40" y="612" type="curve"/>
      <point x="178" y="612"/>
      <point x="40" y="612"/>
      <point x="178" y="612" type="curve"/>
      <point x="178" y="722"/>
      <point x="178" y="612"/>
    </contour>
    <contour>
      <point x="178" y="612" type="curve"/>
      <point x="315" y="612"/>
      <point x="178" y="612"/>
      <point x="315" y="612" type="curve"/>
      <point x="315" y="722"/>
      <point x="315" y="612"/>
      <point x="315" y="722" type="curve"/>
      <point x="269" y="722"/>
      <point x="223" y="722"/>
      <point x="178" y="722" type="curve"/>
      <point x="178" y="612"/>
      <point x="178" y="722"/>
    </contour>
    <contour>
      <point x="178" y="0" type="curve"/>
      <point x="223" y="0"/>
      <point x="269" y="0"/>
      <point x="315" y="0" type="curve"/>
      <point x="315" y="110"/>
      <point x="315" y="0"/>
      <point x="315" y="110" type="curve"/>
      <point x="178" y="110"/>
      <point x="315" y="110"/>
      <point x="178" y="110" type="curve"/>
      <point x="178" y="0"/>
      <point x="178" y="110"/>
    </contour>
    <contour>
      <point x="178" y="110" type="curve"/>
      <point x="40" y="110"/>
      <point x="178" y="110"/>
      <point x="40" y="110" type="curve"/>
      <point x="40" y="0"/>
      <point x="40" y="110"/>
      <point x="40" y="0" type="curve"/>
      <point x="86" y="0"/>
      <point x="132" y="0"/>
      <point x="178" y="0" type="curve"/>
      <point x="178" y="110"/>
      <point x="178" y="0"/>
    </contour>
    <contour>
      <point x="248" y="0" type="curve"/>
      <point x="248" y="241"/>
      <point x="248" y="481"/>
      <point x="248" y="722" type="curve"/>
      <point x="105" y="722"/>
      <point x="248" y="722"/>
      <point x="105" y="722" type="curve"/>
      <point x="105" y="481"/>
      <point x="105" y="241"/>
      <point x="105" y="0" type="curve"/>
      <point x="248" y="0"/>
      <point x="105" y="0"/>
    </contour>
    <contour>
      <point x="154" y="845" type="curve"/>
      <point x="154" y="893"/>
      <point x="122" y="917"/>
      <point x="79" y="917" type="curve"/>
      <point x="35" y="917"/>
      <point x="6" y="891"/>
      <point x="6" y="845" type="curve"/>
      <point x="154" y="845"/>
      <point x="6" y="845"/>
      <point x="154" y="845" type="curve"/>
      <point x="154" y="796"/>
      <point x="123" y="774"/>
      <point x="79" y="774" type="curve"/>
      <point x="34" y="774"/>
      <point x="6" y="798"/>
      <point x="6" y="845" type="curve"/>
      <point x="154" y="845"/>
      <point x="6" y="845"/>
    </contour>
    <contour>
      <point x="354" y="845" type="curve"/>
      <point x="354" y="893"/>
      <point x="322" y="917"/>
      <point x="279" y="917" type="curve"/>
      <point x="235" y="917"/>
      <point x="206" y="891"/>
      <point x="206" y="845" type="curve"/>
      <point x="354" y="845"/>
      <point x="206" y="845"/>
      <point x="354" y="845" type="curve"/>
      <point x="354" y="796"/>
      <point x="323" y="774"/>
      <point x="279" y="774" type="curve"/>
      <point x="234" y="774"/>
      <point x="206" y="798"/>
      <point x="206" y="845" type="curve"/>
      <point x="354" y="845"/>
      <point x="206" y="845"/>
    </contour>
  </outline>
</glyph>
<glyph name="Ntilde" format="1">
  <advance width="742"/>
  <unicode hex="00D1"/>
  <outline>
    <contour>
      <point x="173" y="722" type="curve"/>
      <point x="128" y="722"/>
      <point x="83" y="722"/>
      <point x="39" y="722" type="curve"/>
      <point x="39" y="612"/>
      <point x="39" y="722"/>
      <point x="39" y="612" type="curve"/>
      <point x="173" y="612"/>
      <point x="39" y="612"/>
      <point x="173" y="612" type="curve"/>
      <point x="173" y="722"/>
      <point x="173" y="612"/>
    </contour>
    <contour>
      <point x="578" y="612" type="curve"/>
      <point x="710" y="612"/>
      <point x="578" y="612"/>
      <point x="710" y="612" type="curve"/>
      <point x="710" y="722"/>
      <point x="710" y="612"/>
      <point x="710" y="722" type="curve"/>
      <point x="665" y="722"/>
      <point x="621" y="722"/>
      <point x="578" y="722" type="curve"/>
      <point x="578" y="612"/>
      <point x="578" y="722"/>
    </contour>
    <contour>
      <point x="578" y="722" type="curve"/>
      <point x="535" y="722"/>
      <point x="492" y="722"/>
      <point x="450" y="722" type="curve"/>
      <point x="450" y="612"/>
      <point x="450" y="722"/>
      <point x="450" y="612" type="curve"/>
      <point x="578" y="612"/>
      <point x="450" y="612"/>
      <point x="578" y="612" type="curve"/>
      <point x="578" y="722"/>
      <point x="578" y="612"/>
    </contour>
    <contour>
      <point x="172" y="110" type="curve"/>
      <point x="39" y="110"/>
      <point x="172" y="110"/>
      <point x="39" y="110" type="curve"/>
      <point x="38" y="0"/>
      <point x="39" y="110"/>
      <point x="38" y="0" type="curve"/>
      <point x="82" y="0"/>
      <point x="127" y="0"/>
      <point x="172" y="0" type="curve"/>
      <point x="172" y="110"/>
      <point x="172" y="0"/>
    </contour>
    <contour>
      <point x="172" y="0" type="curve"/>
      <point x="213" y="0"/>
      <point x="172" y="0"/>
      <point x="299" y="0" type="curve"/>
      <point x="299" y="110"/>
      <point x="299" y="0"/>
      <point x="299" y="110" type="curve"/>
      <point x="172" y="110"/>
      <point x="299" y="110"/>
      <point x="172" y="110" type="curve"/>
      <point x="172" y="0"/>
      <point x="172" y="110"/>
    </contour>
    <contour>
      <point x="649" y="0" type="curve"/>
      <point x="515" y="241"/>
      <point x="381" y="481"/>
      <point x="248" y="722" type="curve"/>
      <point x="100" y="722"/>
      <point x="248" y="722"/>
      <point x="100" y="722" type="curve"/>
      <point x="233" y="481"/>
      <point x="367" y="241"/>
      <point x="501" y="0" type="curve"/>
      <point x="649" y="0"/>
      <point x="501" y="0"/>
    </contour>
    <contour>
      <point x="505" y="722" type="curve"/>
      <point x="505" y="481"/>
      <point x="505" y="241"/>
      <point x="505" y="0" type="curve"/>
      <point x="648" y="0"/>
      <point x="505" y="0"/>
      <point x="648" y="0" type="curve"/>
      <point x="648" y="241"/>
      <point x="648" y="481"/>
      <point x="648" y="722" type="curve"/>
      <point x="505" y="722"/>
      <point x="648" y="722"/>
    </contour>
    <contour>
      <point x="243" y="0" type="curve"/>
      <point x="243" y="241"/>
      <point x="243" y="481"/>
      <point x="243" y="722" type="curve"/>
      <point x="100" y="722"/>
      <point x="243" y="722"/>
      <point x="100" y="722" type="curve"/>
      <point x="100" y="481"/>
      <point x="100" y="241"/>
      <point x="100" y="0" type="curve"/>
      <point x="243" y="0"/>
      <point x="100" y="0"/>
    </contour>
    <contour>
      <point x="470" y="972" type="curve"/>
      <point x="452" y="937"/>
      <point x="440" y="931"/>
      <point x="426" y="931" type="curve"/>
      <point x="401" y="931"/>
      <point x="389" y="937"/>
      <point x="371" y="951" type="curve" smooth="yes"/>
      <point x="345" y="971"/>
      <point x="332" y="979"/>
      <point x="303" y="979" type="curve"/>
      <point x="234" y="979"/>
      <point x="198" y="910"/>
      <point x="177" y="846" type="curve"/>
      <point x="282" y="785"/>
      <point x="177" y="847"/>
      <point x="282" y="785" type="curve"/>
      <point x="301" y="825"/>
      <point x="318" y="831"/>
      <point x="336" y="831" type="curve"/>
      <point x="356" y="831"/>
      <point x="366" y="825"/>
      <point x="380" y="813" type="curve" smooth="yes"/>
      <point x="410" y="789"/>
      <point x="426" y="778"/>
      <point x="461" y="778" type="curve"/>
      <point x="530" y="778"/>
      <point x="556" y="843"/>
      <point x="583" y="913" type="curve"/>
      <point x="470" y="972"/>
      <point x="583" y="912"/>
    </contour>
  </outline>
</glyph>
<glyph name="Ograve" format="1">
  <advance width="670"/>
  <unicode hex="00D2"/>
  <outline>
    <contour>
      <point x="190" y="360" type="curve"/>
      <point x="190" y="495"/>
      <point x="212" y="612"/>
      <point x="332" y="612" type="curve"/>
      <point x="447" y="612"/>
      <point x="480" y="498"/>
      <point x="480" y="363" type="curve"/>
      <point x="480" y="227"/>
      <point x="456" y="111"/>
      <point x="337" y="111" type="curve"/>
      <point x="220" y="111"/>
      <point x="190" y="224"/>
      <point x="190" y="360" type="curve"/>
      <point x="47" y="360"/>
      <point x="190" y="360"/>
      <point x="47" y="360" type="curve"/>
      <point x="47" y="151"/>
      <point x="140" y="-5"/>
      <point x="332" y="-5" type="curve"/>
      <point x="527" y="-5"/>
      <point x="623" y="152"/>
      <point x="623" y="363" type="curve"/>
      <point x="623" y="570"/>
      <point x="531" y="727"/>
      <point x="338" y="727" type="curve"/>
      <point x="144" y="727"/>
      <point x="47" y="570"/>
      <point x="47" y="360" type="curve"/>
      <point x="190" y="360"/>
      <point x="47" y="360"/>
    </contour>
    <contour>
      <point x="404" y="781" type="line"/>
      <point x="320" y="947" type="line"/>
      <point x="145" y="947" type="line"/>
      <point x="269" y="781" type="line"/>
    </contour>
  </outline>
</glyph>
<glyph name="Otilde" format="1">
  <advance width="670"/>
  <unicode hex="00D5"/>
  <outline>
    <contour>
      <point x="190" y="360" type="curve"/>
      <point x="190" y="495"/>
      <point x="212" y="612"/>
      <point x="332" y="612" type="curve"/>
      <point x="447" y="612"/>
      <point x="480" y="498"/>
      <point x="480" y="363" type="curve"/>
      <point x="480" y="227"/>
      <point x="456" y="111"/>
      <point x="337" y="111" type="curve"/>
      <point x="220" y="111"/>
      <point x="190" y="224"/>
      <point x="190" y="360" type="curve"/>
      <point x="47" y="360"/>
      <point x="190" y="360"/>
      <point x="47" y="360" type="curve"/>
      <point x="47" y="151"/>
      <point x="140" y="-5"/>
      <point x="332" y="-5" type="curve"/>
      <point x="527" y="-5"/>
      <point x="623" y="152"/>
      <point x="623" y="363" type="curve"/>
      <point x="623" y="570"/>
      <point x="531" y="727"/>
      <point x="338" y="727" type="curve"/>
      <point x="144" y="727"/>
      <point x="47" y="570"/>
      <point x="47" y="360" type="curve"/>
      <point x="190" y="360"/>
      <point x="47" y="360"/>
    </contour>
    <contour>
      <point x="432" y="972" type="curve"/>
      <point x="415" y="937"/>
      <point x="402" y="931"/>
      <point x="388" y="931" type="curve"/>
      <point x="363" y="931"/>
      <point x="351" y="937"/>
      <point x="333" y="951" type="curve" smooth="yes"/>
      <point x="307" y="971"/>
      <point x="294" y="979"/>
      <point x="265" y="979" type="curve"/>
      <point x="196" y="979"/>
      <point x="160" y="910"/>
      <point x="139" y="846" type="curve"/>
      <point x="244" y="785"/>
      <point x="139" y="847"/>
      <point x="244" y="785" type="curve"/>
      <point x="264" y="825"/>
      <point x="280" y="831"/>
      <point x="298" y="831" type="curve"/>
      <point x="318" y="831"/>
      <point x="328" y="825"/>
      <point x="342" y="813" type="curve" smooth="yes"/>
      <point x="373" y="789"/>
      <point x="388" y="778"/>
      <point x="423" y="778" type="curve"/>
      <point x="492" y="778"/>
      <point x="518" y="843"/>
      <point x="545" y="913" type="curve"/>
      <point x="432" y="972"/>
      <point x="545" y="912"/>
    </contour>
  </outline>
</glyph>
<glyph name="atilde" format="1">
  <advance width="530"/>
  <unicode hex="00E3"/>
  <outline>
    <contour>
      <point x="68" y="461" type="curve"/>
      <point x="68" y="349"/>
      <point x="68" y="461"/>
      <point x="68" y="349" type="curve"/>
      <point x="180" y="349"/>
      <point x="68" y="349"/>
      <point x="180" y="349" type="curve"/>
      <point x="180" y="461"/>
      <point x="180" y="349"/>
      <point x="180" y="461" type="curve"/>
      <point x="68" y="461"/>
      <point x="180" y="461"/>
    </contour>
    <contour>
      <point x="446" y="0" type="curve"/>
      <point x="446" y="123"/>
      <point x="446" y="247"/>
      <point x="446" y="370" type="curve"/>
      <point x="446" y="488"/>
      <point x="367" y="538"/>
      <point x="252" y="538" type="curve"/>
      <point x="169" y="538"/>
      <point x="110" y="505"/>
      <point x="68" y="461" type="curve"/>
      <point x="121" y="368"/>
      <point x="68" y="461"/>
      <point x="121" y="368" type="curve"/>
      <point x="147" y="394"/>
      <point x="180" y="423"/>
      <point x="232" y="423" type="curve"/>
      <point x="278" y="423"/>
      <point x="303" y="397"/>
      <point x="303" y="352" type="curve"/>
      <point x="303" y="235"/>
      <point x="303" y="117"/>
      <point x="303" y="0" type="curve"/>
      <point x="446" y="0"/>
      <point x="303" y="0"/>
    </contour>
    <contour>
      <point x="376" y="0" type="curve"/>
      <point x="417" y="0"/>
      <point x="460" y="0"/>
      <point x="501" y="0" type="curve"/>
      <point x="501" y="110"/>
      <point x="501" y="0"/>
      <point x="501" y="110" type="curve"/>
      <point x="376" y="110"/>
      <point x="501" y="110"/>
      <point x="376" y="110" type="curve"/>
      <point x="376" y="0"/>
      <point x="376" y="110"/>
    </contour>
    <contour>
      <point x="371" y="350" type="curve"/>
      <point x="313" y="341"/>
      <point x="278" y="339"/>
      <point x="221" y="330" type="curve"/>
      <point x="112" y="313"/>
      <point x="40" y="269"/>
      <point x="40" y="165" type="curve"/>
      <point x="40" y="58"/>
      <point x="97" y="-5"/>
      <point x="203" y="-5" type="curve"/>
      <point x="308" y="-5"/>
      <point x="348" y="83"/>
      <point x="410" y="153" type="curve"/>
      <point x="338" y="214"/>
      <point x="410" y="153"/>
      <point x="338" y="214" type="curve"/>
      <point x="313" y="155"/>
      <point x="294" y="105"/>
      <point x="237" y="105" type="curve"/>
      <point x="194" y="105"/>
      <point x="178" y="129"/>
      <point x="178" y="171" type="curve"/>
      <point x="178" y="202"/>
      <point x="200" y="227"/>
      <point x="225" y="231" type="curve"/>
      <point x="288" y="241"/>
      <point x="314" y="246"/>
      <point x="377" y="256" type="curve"/>
      <point x="371" y="350"/>
      <point x="377" y="256"/>
    </contour>
    <contour>
      <point x="352" y="802" type="curve"/>
      <point x="335" y="767"/>
      <point x="322" y="761"/>
      <point x="308" y="761" type="curve"/>
      <point x="283" y="761"/>
      <point x="271" y="767"/>
      <point x="253" y="781" type="curve" smooth="yes"/>
      <point x="227" y="801"/>
      <point x="214" y="809"/>
      <point x="185" y="809" type="curve"/>
      <point x="116" y="809"/>
      <point x="80" y="740"/>
      <point x="59" y="676" type="curve"/>
      <point x="164" y="615"/>
      <point x="59" y="677"/>
      <point x="164" y="615" type="curve"/>
      <point x="184" y="655"/>
      <point x="200" y="661"/>
      <point x="218" y="661" type="curve"/>
      <point x="238" y="661"/>
      <point x="248" y="655"/>
      <point x="262" y="643" type="curve" smooth="yes"/>
      <point x="292" y="619"/>
      <point x="308" y="608"/>
      <point x="343" y="608" type="curve"/>
      <point x="412" y="608"/>
      <point x="438" y="673"/>
      <point x="465" y="743" type="curve"/>
      <point x="352" y="802"/>
      <point x="465" y="742"/>
    </contour>
  </outline>
</glyph>
<glyph name="edieresis" format="1">
  <advance width="498"/>
  <unicode hex="00EB"/>
  <outline>
    <contour>
      <point x="110" y="226" type="curve"/>
      <point x="208" y="226"/>
      <point x="306" y="226"/>
      <point x="404" y="226" type="curve"/>
      <point x="465" y="226"/>
      <point x="404" y="226"/>
      <point x="465" y="226" type="curve"/>
      <point x="465" y="274"/>
      <point x="465" y="226"/>
      <point x="465" y="274" type="curve"/>
      <point x="465" y="280"/>
      <point x="465" y="286"/>
      <point x="465" y="292" type="curve"/>
      <point x="465" y="442"/>
      <point x="398" y="538"/>
      <point x="260" y="538" type="curve"/>
      <point x="112" y="538"/>
      <point x="38" y="438"/>
      <point x="38" y="278" type="curve"/>
      <point x="38" y="106"/>
      <point x="117" y="-5"/>
      <point x="276" y="-5" type="curve"/>
      <point x="346" y="-5"/>
      <point x="390" y="22"/>
      <point x="443" y="73" type="curve"/>
      <point x="357" y="151"/>
      <point x="443" y="73"/>
      <point x="357" y="151" type="curve"/>
      <point x="333" y="125"/>
      <point x="311" y="111"/>
      <point x="276" y="111" type="curve"/>
      <point x="193" y="111"/>
      <point x="179" y="184"/>
      <point x="179" y="278" type="curve"/>
      <point x="179" y="358"/>
      <point x="184" y="423"/>
      <point x="254" y="423" type="curve"/>
      <point x="313" y="423"/>
      <point x="329" y="372"/>
      <point x="329" y="303" type="curve"/>
      <point x="329" y="293"/>
      <point x="329" y="284"/>
      <point x="329" y="274" type="curve"/>
      <point x="341" y="286"/>
      <point x="353" y="296"/>
      <point x="365" y="308" type="curve"/>
      <point x="376" y="319"/>
      <point x="393" y="318"/>
      <point x="404" y="330" type="curve"/>
      <point x="306" y="330"/>
      <point x="208" y="330"/>
      <point x="110" y="330" type="curve"/>
      <point x="110" y="220"/>
      <point x="110" y="336"/>
    </contour>
    <contour>
      <point x="239" y="675" type="curve"/>
      <point x="239" y="723"/>
      <point x="207" y="747"/>
      <point x="164" y="747" type="curve"/>
      <point x="120" y="747"/>
      <point x="91" y="721"/>
      <point x="91" y="675" type="curve"/>
      <point x="239" y="675"/>
      <point x="91" y="675"/>
      <point x="239" y="675" type="curve"/>
      <point x="239" y="626"/>
      <point x="208" y="604"/>
      <point x="164" y="604" type="curve"/>
      <point x="119" y="604"/>
      <point x="91" y="628"/>
      <point x="91" y="675" type="curve"/>
      <point x="239" y="675"/>
      <point x="91" y="675"/>
    </contour>
    <contour>
      <point x="439" y="675" type="curve"/>
      <point x="439" y="723"/>
      <point x="407" y="747"/>
      <point x="364" y="747" type="curve"/>
      <point x="320" y="747"/>
      <point x="291" y="721"/>
      <point x="291" y="675" type="curve"/>
      <point x="439" y="675"/>
      <point x="291" y="675"/>
      <point x="439" y="675" type="curve"/>
      <point x="439" y="626"/>
      <point x="408" y="604"/>
      <point x="364" y="604" type="curve"/>
      <point x="319" y="604"/>
      <point x="291" y="628"/>
      <point x="291" y="675" type="curve"/>
      <point x="439" y="675"/>
      <point x="291" y="675"/>
    </contour>
  </outline>
</glyph>
<glyph name="icircumflex" format="1">
  <advance width="336"/>
  <unicode hex="00EE"/>
  <outline>
    <contour>
      <point x="172" y="110" type="curve"/>
      <point x="35" y="110"/>
      <point x="172" y="110"/>
      <point x="35" y="110" type="curve"/>
      <point x="34" y="0"/>
      <point x="35" y="110"/>
      <point x="34" y="0" type="curve"/>
      <point x="80" y="0"/>
      <point x="126" y="0"/>
      <point x="172" y="0" type="curve"/>
      <point x="172" y="110"/>
      <point x="172" y="0"/>
    </contour>
    <contour>
      <point x="172" y="0" type="curve"/>
      <point x="215" y="0"/>
      <point x="258" y="0"/>
      <point x="302" y="0" type="curve"/>
      <point x="302" y="110"/>
      <point x="302" y="0"/>
      <point x="302" y="110" type="curve"/>
      <point x="172" y="110"/>
      <point x="302" y="110"/>
      <point x="172" y="110" type="curve"/>
      <point x="172" y="0"/>
      <point x="172" y="110"/>
    </contour>
    <contour>
      <point x="172" y="533" type="curve"/>
      <point x="126" y="533"/>
      <point x="80" y="533"/>
      <point x="35" y="533" type="curve"/>
      <point x="34" y="423"/>
      <point x="35" y="533"/>
      <point x="34" y="423" type="curve"/>
      <point x="172" y="423"/>
      <point x="34" y="423"/>
      <point x="172" y="423" type="curve"/>
      <point x="172" y="533"/>
      <point x="172" y="423"/>
    </contour>
    <contour>
      <point x="247" y="0" type="curve"/>
      <point x="247" y="178"/>
      <point x="247" y="355"/>
      <point x="247" y="533" type="curve"/>
      <point x="97" y="533"/>
      <point x="247" y="533"/>
      <point x="97" y="533" type="curve"/>
      <point x="97" y="355"/>
      <point x="97" y="178"/>
      <point x="97" y="0" type="curve"/>
      <point x="247" y="0"/>
      <point x="97" y="0"/>
    </contour>
    <contour>
      <point x="111" y="610" type="line"/>
      <point x="235" y="776" type="line"/>
      <point x="60" y="776" type="line"/>
      <point x="-24" y="610" type="line"/>
    </contour>
    <contour>
      <point x="374" y="610" type="line"/>
      <point x="290" y="776" type="line"/>
      <point x="115" y="776" type="line"/>
      <point x="239" y="610" type="line"/>
    </contour>
  </outline>
</glyph>
<glyph name="divide" format="1">
  <advance width="615"/>
  <unicode hex="00F7"/>
  <outline>
    <contour>
      <point x="46" y="251" type="line"/>
      <point x="567" y="251" type="line"/>
      <point x="567" y="372" type="line"/>
      <point x="46" y="372" type="line"/>
    </contour>
    <contour>
      <point x="377" y="458" type="curve"/>
      <point x="377" y="506"/>
      <point x="346" y="530"/>
      <point x="302" y="530" type="curve"/>
      <point x="258" y="530"/>
      <point x="229" y="504"/>
      <point x="229" y="458" type="curve"/>
      <point x="377" y="458"/>
      <point x="229" y="458"/>
      <point x="377" y="458" type="curve"/>
      <point x="377" y="409"/>
      <point x="347" y="387"/>
      <point x="302" y="387" type="curve"/>
      <point x="258" y="387"/>
      <point x="229" y="411"/>
      <point x="229" y="458" type="curve"/>
      <point x="377" y="458"/>
      <point x="229" y="458"/>
    </contour>
    <contour>
      <point x="377" y="163" type="curve"/>
      <point x="377" y="211"/>
      <point x="346" y="235"/>
      <point x="302" y="235" type="curve"/>
      <point x="258" y="235"/>
      <point x="229" y="209"/>
      <point x="229" y="163" type="curve"/>
      <point x="377" y="163"/>
      <point x="229" y="163"/>
      <point x="377" y="163" type="curve"/>
      <point x="377" y="114"/>
      <point x="347" y="92"/>
      <point x="302" y="92" type="curve"/>
      <point x="258" y="92"/>
      <point x="229" y="116"/>
      <point x="229" y="163" type="curve"/>
      <point x="377" y="163"/>
      <point x="229" y="163"/>
    </contour>
  </outline>
</glyph>
<glyph name="yacute" format="1">
  <advance width="605"/>
  <unicode hex="00FD"/>
  <outline>
    <contour>
      <point x="205" y="-188" type="curve"/>
      <point x="98" y="-190"/>
      <point x="205" y="-188"/>
      <point x="98" y="-190" type="curve"/>
      <point x="98" y="-300"/>
      <point x="98" y="-190"/>
      <point x="98" y="-300" type="curve"/>
      <point x="134" y="-300"/>
      <point x="169" y="-299"/>
      <point x="205" y="-299" type="curve"/>
      <point x="205" y="-188"/>
      <point x="205" y="-299"/>
    </contour>
    <contour>
      <point x="128" y="534" type="curve"/>
      <point x="92" y="534"/>
      <point x="55" y="533"/>
      <point x="19" y="533" type="curve"/>
      <point x="18" y="423"/>
      <point x="19" y="533"/>
      <point x="18" y="423" type="curve"/>
      <point x="128" y="424"/>
      <point x="18" y="423"/>
      <point x="128" y="424" type="curve"/>
      <point x="128" y="534"/>
      <point x="128" y="424"/>
    </contour>
    <contour>
      <point x="128" y="424" type="curve"/>
      <point x="265" y="423"/>
      <point x="128" y="424"/>
      <point x="265" y="423" type="curve"/>
      <point x="265" y="533"/>
      <point x="265" y="423"/>
      <point x="265" y="533" type="curve"/>
      <point x="219" y="533"/>
      <point x="174" y="534"/>
      <point x="128" y="534" type="curve"/>
      <point x="128" y="424"/>
      <point x="128" y="534"/>
    </contour>
    <contour>
      <point x="492" y="534" type="curve"/>
      <point x="446" y="534"/>
      <point x="400" y="533"/>
      <point x="354" y="533" type="curve"/>
      <point x="354" y="423"/>
      <point x="354" y="533"/>
      <point x="354" y="423" type="curve"/>
      <point x="492" y="424"/>
      <point x="354" y="423"/>
      <point x="492" y="424" type="curve"/>
      <point x="492" y="534"/>
      <point x="492" y="424"/>
    </contour>
    <contour>
      <point x="492" y="424" type="curve"/>
      <point x="596" y="423"/>
      <point x="492" y="424"/>
      <point x="596" y="423" type="curve"/>
      <point x="596" y="533"/>
      <point x="596" y="423"/>
      <point x="596" y="533" type="curve"/>
      <point x="561" y="533"/>
      <point x="526" y="534"/>
      <point x="492" y="534" type="curve"/>
      <point x="492" y="424"/>
      <point x="492" y="534"/>
    </contour>
    <contour>
      <point x="368" y="-24" type="curve"/>
      <point x="308" y="162"/>
      <point x="251" y="346"/>
      <point x="191" y="533" type="curve"/>
      <point x="45" y="533"/>
      <point x="191" y="533"/>
      <point x="45" y="533" type="curve"/>
      <point x="110" y="348"/>
      <point x="171" y="161"/>
      <point x="236" y="-24" type="curve"/>
      <point x="368" y="-24"/>
      <point x="236" y="-24"/>
    </contour>
    <contour>
      <point x="269" y="-300" type="curve"/>
      <point x="370" y="-22"/>
      <point x="472" y="255"/>
      <point x="573" y="533" type="curve"/>
      <point x="428" y="533"/>
      <point x="573" y="533"/>
      <point x="428" y="533" type="curve"/>
      <point x="326" y="255"/>
      <point x="224" y="-22"/>
      <point x="123" y="-300" type="curve"/>
      <point x="269" y="-300"/>
      <point x="123" y="-300"/>
    </contour>
    <contour>
      <point x="368" y="609" type="line"/>
      <point x="492" y="775" type="line"/>
      <point x="317" y="775" type="line"/>
      <point x="233" y="609" type="line"/>
    </contour>
  </outline>
</glyph>
<glyph name="thorn" format="1">
  <advance width="567"/>
  <unicode hex="00FE"/>
  <outline>
    <contour>
      <point x="144" y="-189" type="curve"/>
      <point x="7" y="-189"/>
      <point x="144" y="-189"/>
      <point x="7" y="-189" type="curve"/>
      <point x="7" y="-300"/>
      <point x="7" y="-189"/>
      <point x="7" y="-300" type="curve"/>
      <point x="53" y="-300"/>
      <point x="98" y="-300"/>
      <point x="144" y="-300" type="curve"/>
      <point x="144" y="-189"/>
      <point x="144" y="-300"/>
    </contour>
    <contour>
      <point x="144" y="-300" type="curve"/>
      <point x="188" y="-300"/>
      <point x="231" y="-300"/>
      <point x="274" y="-300" type="curve"/>
      <point x="274" y="-189"/>
      <point x="274" y="-300"/>
      <point x="274" y="-189" type="curve"/>
      <point x="144" y="-189"/>
      <point x="274" y="-189"/>
      <point x="144" y="-189" type="curve"/>
      <point x="144" y="-300"/>
      <point x="144" y="-189"/>
    </contour>
    <contour>
      <point x="145" y="750" type="curve"/>
      <point x="99" y="750"/>
      <point x="54" y="750"/>
      <point x="8" y="750" type="curve"/>
      <point x="8" y="640"/>
      <point x="8" y="750"/>
      <point x="8" y="640" type="curve"/>
      <point x="145" y="640"/>
      <point x="8" y="640"/>
      <point x="145" y="640" type="curve"/>
      <point x="145" y="750"/>
      <point x="145" y="640"/>
    </contour>
    <contour>
      <point x="180" y="346" type="curve"/>
      <point x="202" y="379"/>
      <point x="242" y="424"/>
      <point x="297" y="424" type="curve"/>
      <point x="376" y="424"/>
      <point x="388" y="346"/>
      <point x="388" y="261" type="curve"/>
      <point x="389" y="179"/>
      <point x="375" y="105"/>
      <point x="300" y="105" type="curve"/>
      <point x="253" y="105"/>
      <point x="220" y="125"/>
      <point x="190" y="162" type="curve"/>
      <point x="141" y="102"/>
      <point x="190" y="162"/>
      <point x="141" y="102" type="curve"/>
      <point x="192" y="34"/>
      <point x="245" y="-5"/>
      <point x="325" y="-5" type="curve"/>
      <point x="476" y="-5"/>
      <point x="531" y="119"/>
      <point x="531" y="267" type="curve"/>
      <point x="531" y="413"/>
      <point x="477" y="539"/>
      <point x="324" y="539" type="curve"/>
      <point x="245" y="539"/>
      <point x="186" y="480"/>
      <point x="150" y="423" type="curve"/>
      <point x="180" y="346"/>
      <point x="150" y="423"/>
    </contour>
    <contour>
      <point x="216" y="-300" type="curve"/>
      <point x="216" y="-22"/>
      <point x="216" y="472"/>
      <point x="216" y="750" type="curve"/>
      <point x="73" y="750"/>
      <point x="216" y="750"/>
      <point x="73" y="750" type="curve"/>
      <point x="73" y="472"/>
      <point x="73" y="-22"/>
      <point x="73" y="-300" type="curve"/>
      <point x="216" y="-300"/>
      <point x="73" y="-300"/>
    </contour>
  </outline>
</glyph>
<glyph name="Abreve" format="1">
  <advance width="674"/>
  <unicode hex="0102"/>
  <outline>
    <contour>
      <point x="125" y="110" type="curve"/>
      <point x="-13" y="110"/>
      <point x="135" y="110"/>
      <point x="-3" y="110" type="curve"/>
      <point x="-3" y="0"/>
      <point x="-3" y="110"/>
      <point x="-3" y="0" type="curve"/>
      <point x="43" y="0"/>
      <point x="79" y="0"/>
      <point x="124" y="0" type="curve"/>
      <point x="125" y="110"/>
      <point x="124" y="0"/>
    </contour>
    <contour>
      <point x="125" y="0" type="curve"/>
      <point x="181" y="0"/>
      <point x="125" y="0"/>
      <point x="294" y="0" type="curve"/>
      <point x="294" y="110"/>
      <point x="294" y="0"/>
      <point x="294" y="110" type="curve"/>
      <point x="125" y="110"/>
      <point x="294" y="110"/>
      <point x="125" y="110" type="curve"/>
      <point x="125" y="0"/>
      <point x="125" y="110"/>
    </contour>
    <contour>
      <point x="535" y="0" type="curve"/>
      <point x="580" y="0"/>
      <point x="616" y="0"/>
      <point x="662" y="0" type="curve"/>
      <point x="662" y="110"/>
      <point x="662" y="0"/>
      <point x="662" y="110" type="curve"/>
      <point x="525" y="110"/>
      <point x="672" y="110"/>
      <point x="535" y="110" type="curve"/>
      <point x="535" y="0"/>
      <point x="535" y="110"/>
    </contour>
    <contour>
      <point x="535" y="110" type="curve"/>
      <point x="365" y="110"/>
      <point x="535" y="110"/>
      <point x="365" y="110" type="curve"/>
      <point x="365" y="0"/>
      <point x="365" y="110"/>
      <point x="365" y="0" type="curve"/>
      <point x="422" y="0"/>
      <point x="478" y="0"/>
      <point x="535" y="0" type="curve"/>
      <point x="535" y="110"/>
      <point x="535" y="0"/>
    </contour>
    <contour>
      <point x="447" y="294" type="curve"/>
      <point x="375" y="294"/>
      <point x="302" y="294"/>
      <point x="230" y="294" type="curve"/>
      <point x="171" y="177"/>
      <point x="230" y="294"/>
      <point x="171" y="177" type="curve"/>
      <point x="278" y="177"/>
      <point x="386" y="177"/>
      <point x="493" y="177" type="curve"/>
      <point x="447" y="294"/>
      <point x="493" y="177"/>
    </contour>
    <contour>
      <point x="618" y="0" type="curve"/>
      <point x="550" y="241"/>
      <point x="475" y="481"/>
      <point x="407" y="722" type="curve"/>
      <point x="277" y="722"/>
      <point x="407" y="722"/>
      <point x="277" y="722" type="curve"/>
      <point x="343" y="482"/>
      <point x="402" y="240"/>
      <point x="469" y="0" type="curve"/>
      <point x="618" y="0"/>
      <point x="469" y="0"/>
    </contour>
    <contour>
      <point x="194" y="0" type="curve"/>
      <point x="268" y="240"/>
      <point x="331" y="482"/>
      <point x="406" y="722" type="curve"/>
      <point x="276" y="722"/>
      <point x="406" y="722"/>
      <point x="276" y="722" type="curve"/>
      <point x="200" y="480"/>
      <point x="113" y="242"/>
      <point x="38" y="0" type="curve"/>
      <point x="194" y="0"/>
      <point x="38" y="0"/>
    </contour>
    <contour>
      <point x="373" y="937" type="curve"/>
      <point x="373" y="909"/>
      <point x="367" y="884"/>
      <point x="339" y="884" type="curve"/>
      <point x="309" y="884"/>
      <point x="304" y="907"/>
      <point x="304" y="938" type="curve"/>
      <point x="177" y="938"/>
      <point x="304" y="938"/>
      <point x="177" y="938" type="curve"/>
      <point x="177" y="841"/>
      <point x="236" y="783"/>
      <point x="335" y="783" type="curve"/>
      <point x="435" y="783"/>
      <point x="500" y="838"/>
      <point x="500" y="937" type="curve"/>
      <point x="373" y="937"/>
      <point x="500" y="937"/>
    </contour>
  </outline>
</glyph>
<glyph name="Aogonek" format="1">
  <advance width="668"/>
  <unicode hex="0104"/>
  <outline>
    <contour>
      <point x="125" y="110" type="curve"/>
      <point x="-13" y="110"/>
      <point x="135" y="110"/>
      <point x="-3" y="110" type="curve"/>
      <point x="-3" y="0"/>
      <point x="-3" y="110"/>
      <point x="-3" y="0" type="curve"/>
      <point x="43" y="0"/>
      <point x="79" y="0"/>
      <point x="124" y="0" type="curve"/>
      <point x="125" y="110"/>
      <point x="124" y="0"/>
    </contour>
    <contour>
      <point x="125" y="0" type="curve"/>
      <point x="181" y="0"/>
      <point x="125" y="0"/>
      <point x="294" y="0" type="curve"/>
      <point x="294" y="110"/>
      <point x="294" y="0"/>
      <point x="294" y="110" type="curve"/>
      <point x="125" y="110"/>
      <point x="294" y="110"/>
      <point x="125" y="110" type="curve"/>
      <point x="125" y="0"/>
      <point x="125" y="110"/>
    </contour>
    <contour>
      <point x="535" y="0" type="curve"/>
      <point x="580" y="0"/>
      <point x="616" y="0"/>
      <point x="662" y="0" type="curve"/>
      <point x="662" y="110"/>
      <point x="662" y="0"/>
      <point x="662" y="110" type="curve"/>
      <point x="525" y="110"/>
      <point x="672" y="110"/>
      <point x="535" y="110" type="curve"/>
      <point x="535" y="0"/>
      <point x="535" y="110"/>
    </contour>
    <contour>
      <point x="535" y="110" type="curve"/>
      <point x="365" y="110"/>
      <point x="535" y="110"/>
      <point x="365" y="110" type="curve"/>
      <point x="365" y="0"/>
      <point x="365" y="110"/>
      <point x="365" y="0" type="curve"/>
      <point x="422" y="0"/>
      <point x="478" y="0"/>
      <point x="535" y="0" type="curve"/>
      <point x="535" y="110"/>
      <point x="535" y="0"/>
    </contour>
    <contour>
      <point x="447" y="294" type="curve"/>
      <point x="375" y="294"/>
      <point x="302" y="294"/>
      <point x="230" y="294" type="curve"/>
      <point x="171" y="177"/>
      <point x="230" y="294"/>
      <point x="171" y="177" type="curve"/>
      <point x="278" y="177"/>
      <point x="386" y="177"/>
      <point x="493" y="177" type="curve"/>
      <point x="447" y="294"/>
      <point x="493" y="177"/>
    </contour>
    <contour>
      <point x="618" y="0" type="curve"/>
      <point x="550" y="241"/>
      <point x="475" y="481"/>
      <point x="407" y="722" type="curve"/>
      <point x="277" y="722"/>
      <point x="407" y="722"/>
      <point x="277" y="722" type="curve"/>
      <point x="343" y="482"/>
      <point x="402" y="240"/>
      <point x="469" y="0" type="curve"/>
      <point x="618" y="0"/>
      <point x="469" y="0"/>
    </contour>
    <contour>
      <point x="194" y="0" type="curve"/>
      <point x="268" y="240"/>
      <point x="331" y="482"/>
      <point x="406" y="722" type="curve"/>
      <point x="276" y="722"/>
      <point x="406" y="722"/>
      <point x="276" y="722" type="curve"/>
      <point x="200" y="480"/>
      <point x="113" y="242"/>
      <point x="38" y="0" type="curve"/>
      <point x="194" y="0"/>
      <point x="38" y="0"/>
    </contour>
    <contour>
      <point x="568" y="81" type="curve"/>
      <point x="506" y="46"/>
      <point x="451" y="19"/>
      <point x="451" y="-51" type="curve"/>
      <point x="451" y="-127"/>
      <point x="495" y="-179"/>
      <point x="571" y="-179" type="curve"/>
      <point x="608" y="-179"/>
      <point x="633" y="-168"/>
      <point x="663" y="-146" type="curve"/>
      <point x="598" y="-58"/>
      <point x="663" y="-146"/>
      <point x="598" y="-58" type="curve"/>
      <point x="592" y="-62"/>
      <point x="585" y="-69"/>
      <point x="578" y="-69" type="curve"/>
      <point x="569" y="-69"/>
      <point x="563" y="-61"/>
      <point x="563" y="-51" type="curve"/>
      <point x="563" y="-23"/>
      <point x="596" y="-12"/>
      <point x="620" y="4" type="curve"/>
      <point x="568" y="81"/>
      <point x="620" y="4"/>
    </contour>
  </outline>
</glyph>
<glyph name="Cacute" format="1">
  <advance width="610"/>
  <unicode hex="0106"/>
  <outline>
    <contour>
      <point x="442" y="654" type="curve"/>
      <point x="442" y="534"/>
      <point x="442" y="654"/>
      <point x="442" y="534" type="curve"/>
      <point x="554" y="534"/>
      <point x="442" y="534"/>
      <point x="554" y="534" type="curve"/>
      <point x="554" y="654"/>
      <point x="554" y="534"/>
      <point x="554" y="654" type="curve"/>
      <point x="442" y="654"/>
      <point x="554" y="654"/>
    </contour>
    <contour>
      <point x="554" y="654" type="curve"/>
      <point x="496" y="697"/>
      <point x="426" y="727"/>
      <point x="346" y="727" type="curve"/>
      <point x="143" y="727"/>
      <point x="47" y="571"/>
      <point x="47" y="345" type="curve"/>
      <point x="47" y="138"/>
      <point x="140" y="-5"/>
      <point x="332" y="-5" type="curve"/>
      <point x="435" y="-5"/>
      <point x="505" y="29"/>
      <point x="566" y="99" type="curve"/>
      <point x="483" y="181"/>
      <point x="566" y="99"/>
      <point x="483" y="181" type="curve"/>
      <point x="439" y="138"/>
      <point x="401" y="110"/>
      <point x="339" y="110" type="curve"/>
      <point x="222" y="110"/>
      <point x="190" y="216"/>
      <point x="190" y="350" type="curve"/>
      <point x="190" y="496"/>
      <point x="219" y="612"/>
      <point x="341" y="612" type="curve"/>
      <point x="393" y="612"/>
      <point x="439" y="594"/>
      <point x="476" y="566" type="curve"/>
      <point x="554" y="654"/>
      <point x="476" y="566"/>
    </contour>
    <contour>
      <point x="402" y="779" type="line"/>
      <point x="526" y="945" type="line"/>
      <point x="351" y="945" type="line"/>
      <point x="267" y="779" type="line"/>
    </contour>
  </outline>
</glyph>
<glyph name="Dcaron" format="1">
  <advance width="697"/>
  <unicode hex="010E"/>
  <outline>
    <contour>
      <point x="200" y="110" type="curve"/>
      <point x="63" y="110"/>
      <point x="200" y="110"/>
      <point x="63" y="110" type="curve"/>
      <point x="63" y="0"/>
      <point x="63" y="110"/>
      <point x="63" y="0" type="curve"/>
      <point x="109" y="0"/>
      <point x="155" y="0"/>
      <point x="200" y="0" type="curve"/>
      <point x="200" y="110"/>
      <point x="200" y="0"/>
    </contour>
    <contour>
      <point x="200" y="722" type="curve"/>
      <point x="155" y="722"/>
      <point x="109" y="722"/>
      <point x="63" y="722" type="curve"/>
      <point x="63" y="612"/>
      <point x="63" y="722"/>
      <point x="63" y="612" type="curve"/>
      <point x="200" y="612"/>
      <point x="63" y="612"/>
      <point x="200" y="612" type="curve"/>
      <point x="200" y="722"/>
      <point x="200" y="612"/>
    </contour>
    <contour>
      <point x="127" y="722" type="curve"/>
      <point x="127" y="481"/>
      <point x="127" y="241"/>
      <point x="127" y="0" type="curve"/>
      <point x="270" y="0"/>
      <point x="127" y="0"/>
      <point x="270" y="0" type="curve"/>
      <point x="270" y="241"/>
      <point x="270" y="481"/>
      <point x="270" y="722" type="curve"/>
      <point x="127" y="722"/>
      <point x="270" y="722"/>
    </contour>
    <contour>
      <point x="200" y="0" type="curve"/>
      <point x="248" y="0"/>
      <point x="296" y="0"/>
      <point x="345" y="0" type="curve"/>
      <point x="554" y="0"/>
      <point x="649" y="134"/>
      <point x="649" y="354" type="curve"/>
      <point x="649" y="581"/>
      <point x="557" y="722"/>
      <point x="343" y="722" type="curve"/>
      <point x="296" y="722"/>
      <point x="248" y="722"/>
      <point x="200" y="722" type="curve"/>
      <point x="200" y="612"/>
      <point x="200" y="722"/>
      <point x="200" y="612" type="curve"/>
      <point x="246" y="612"/>
      <point x="291" y="612"/>
      <point x="337" y="612" type="curve"/>
      <point x="473" y="612"/>
      <point x="506" y="504"/>
      <point x="506" y="352" type="curve"/>
      <point x="506" y="212"/>
      <point x="479" y="110"/>
      <point x="358" y="110" type="curve"/>
      <point x="305" y="110"/>
      <point x="253" y="110"/>
      <point x="200" y="110" type="curve"/>
      <point x="200" y="0"/>
      <point x="200" y="110"/>
    </contour>
    <contour>
      <point x="381" y="947" type="line"/>
      <point x="257" y="781" type="line"/>
      <point x="432" y="781" type="line"/>
      <point x="516" y="947" type="line"/>
    </contour>
    <contour>
      <point x="118" y="947" type="line"/>
      <point x="202" y="781" type="line"/>
      <point x="377" y="781" type="line"/>
      <point x="253" y="947" type="line"/>
    </contour>
  </outline>
</glyph>
<glyph name="Emacron" format="1">
  <advance width="558"/>
  <unicode hex="0112"/>
  <outline>
    <contour>
      <point x="521" y="55" type="curve"/>
      <point x="521" y="175"/>
      <point x="521" y="55"/>
      <point x="521" y="175" type="curve"/>
      <point x="409" y="175"/>
      <point x="521" y="175"/>
      <point x="409" y="175" type="curve"/>
      <point x="409" y="55"/>
      <point x="409" y="175"/>
      <point x="409" y="55" type="curve"/>
      <point x="521" y="55"/>
      <point x="409" y="55"/>
    </contour>
    <contour>
      <point x="384" y="667" type="curve"/>
      <point x="384" y="547"/>
      <point x="384" y="667"/>
      <point x="384" y="547" type="curve"/>
      <point x="496" y="547"/>
      <point x="384" y="547"/>
      <point x="496" y="547" type="curve"/>
      <point x="496" y="667"/>
      <point x="496" y="547"/>
      <point x="496" y="667" type="curve"/>
      <point x="384" y="667"/>
      <point x="496" y="667"/>
    </contour>
    <contour>
      <point x="200" y="110" type="curve"/>
      <point x="63" y="110"/>
      <point x="200" y="110"/>
      <point x="63" y="110" type="curve"/>
      <point x="63" y="0"/>
      <point x="63" y="110"/>
      <point x="63" y="0" type="curve"/>
      <point x="109" y="0"/>
      <point x="155" y="0"/>
      <point x="200" y="0" type="curve"/>
      <point x="200" y="110"/>
      <point x="200" y="0"/>
    </contour>
    <contour>
      <point x="200" y="722" type="curve"/>
      <point x="155" y="722"/>
      <point x="109" y="722"/>
      <point x="63" y="722" type="curve"/>
      <point x="63" y="612"/>
      <point x="63" y="722"/>
      <point x="63" y="612" type="curve"/>
      <point x="200" y="612"/>
      <point x="63" y="612"/>
      <point x="200" y="612" type="curve"/>
      <point x="200" y="722"/>
      <point x="200" y="612"/>
    </contour>
    <contour>
      <point x="203" y="317" type="curve"/>
      <point x="284" y="317"/>
      <point x="367" y="317"/>
      <point x="449" y="317" type="curve"/>
      <point x="449" y="428"/>
      <point x="449" y="317"/>
      <point x="449" y="428" type="curve"/>
      <point x="367" y="428"/>
      <point x="284" y="428"/>
      <point x="203" y="428" type="curve"/>
      <point x="203" y="317"/>
      <point x="203" y="428"/>
    </contour>
    <contour>
      <point x="191" y="612" type="curve"/>
      <point x="293" y="612"/>
      <point x="394" y="612"/>
      <point x="496" y="612" type="curve"/>
      <point x="496" y="722"/>
      <point x="496" y="612"/>
      <point x="496" y="722" type="curve"/>
      <point x="394" y="722"/>
      <point x="293" y="722"/>
      <point x="191" y="722" type="curve"/>
      <point x="191" y="612"/>
      <point x="191" y="722"/>
    </contour>
    <contour>
      <point x="271" y="0" type="curve"/>
      <point x="271" y="0"/>
      <point x="271" y="722"/>
      <point x="271" y="722" type="curve"/>
      <point x="128" y="722"/>
      <point x="271" y="722"/>
      <point x="128" y="722" type="curve"/>
      <point x="128" y="481"/>
      <point x="128" y="241"/>
      <point x="128" y="0" type="curve"/>
      <point x="271" y="0"/>
      <point x="128" y="0"/>
    </contour>
    <contour>
      <point x="191" y="0" type="curve"/>
      <point x="301" y="0"/>
      <point x="411" y="0"/>
      <point x="521" y="0" type="curve"/>
      <point x="521" y="110"/>
      <point x="521" y="0"/>
      <point x="521" y="110" type="curve"/>
      <point x="411" y="110"/>
      <point x="301" y="110"/>
      <point x="191" y="110" type="curve"/>
      <point x="191" y="0"/>
      <point x="191" y="110"/>
    </contour>
    <contour>
      <point x="386" y="890" type="curve"/>
      <point x="330" y="890"/>
      <point x="273" y="890"/>
      <point x="217" y="890" type="curve"/>
      <point x="217" y="780"/>
      <point x="217" y="890"/>
      <point x="217" y="780" type="curve"/>
      <point x="273" y="780"/>
      <point x="330" y="780"/>
      <point x="386" y="780" type="curve"/>
      <point x="386" y="890"/>
      <point x="386" y="780"/>
    </contour>
  </outline>
</glyph>
<glyph name="Edotaccent" format="1">
  <advance width="558"/>
  <unicode hex="0116"/>
  <outline>
    <contour>
      <point x="521" y="55" type="curve"/>
      <point x="521" y="175"/>
      <point x="521" y="55"/>
      <point x="521" y="175" type="curve"/>
      <point x="409" y="175"/>
      <point x="521" y="175"/>
      <point x="409" y="175" type="curve"/>
      <point x="409" y="55"/>
      <point x="409" y="175"/>
      <point x="409" y="55" type="curve"/>
      <point x="521" y="55"/>
      <point x="409" y="55"/>
    </contour>
    <contour>
      <point x="384" y="667" type="curve"/>
      <point x="384" y="547"/>
      <point x="384" y="667"/>
      <point x="384" y="547" type="curve"/>
      <point x="496" y="547"/>
      <point x="384" y="547"/>
      <point x="496" y="547" type="curve"/>
      <point x="496" y="667"/>
      <point x="496" y="547"/>
      <point x="496" y="667" type="curve"/>
      <point x="384" y="667"/>
      <point x="496" y="667"/>
    </contour>
    <contour>
      <point x="200" y="110" type="curve"/>
      <point x="63" y="110"/>
      <point x="200" y="110"/>
      <point x="63" y="110" type="curve"/>
      <point x="63" y="0"/>
      <point x="63" y="110"/>
      <point x="63" y="0" type="curve"/>
      <point x="109" y="0"/>
      <point x="155" y="0"/>
      <point x="200" y="0" type="curve"/>
      <point x="200" y="110"/>
      <point x="200" y="0"/>
    </contour>
    <contour>
      <point x="200" y="722" type="curve"/>
      <point x="155" y="722"/>
      <point x="109" y="722"/>
      <point x="63" y="722" type="curve"/>
      <point x="63" y="612"/>
      <point x="63" y="722"/>
      <point x="63" y="612" type="curve"/>
      <point x="200" y="612"/>
      <point x="63" y="612"/>
      <point x="200" y="612" type="curve"/>
      <point x="200" y="722"/>
      <point x="200" y="612"/>
    </contour>
    <contour>
      <point x="203" y="317" type="curve"/>
      <point x="284" y="317"/>
      <point x="367" y="317"/>
      <point x="449" y="317" type="curve"/>
      <point x="449" y="428"/>
      <point x="449" y="317"/>
      <point x="449" y="428" type="curve"/>
      <point x="367" y="428"/>
      <point x="284" y="428"/>
      <point x="203" y="428" type="curve"/>
      <point x="203" y="317"/>
      <point x="203" y="428"/>
    </contour>
    <contour>
      <point x="191" y="612" type="curve"/>
      <point x="293" y="612"/>
      <point x="394" y="612"/>
      <point x="496" y="612" type="curve"/>
      <point x="496" y="722"/>
      <point x="496" y="612"/>
      <point x="496" y="722" type="curve"/>
      <point x="394" y="722"/>
      <point x="293" y="722"/>
      <point x="191" y="722" type="curve"/>
      <point x="191" y="612"/>
      <point x="191" y="722"/>
    </contour>
    <contour>
      <point x="271" y="0" type="curve"/>
      <point x="271" y="0"/>
      <point x="271" y="722"/>
      <point x="271" y="722" type="curve"/>
      <point x="128" y="722"/>
      <point x="271" y="722"/>
      <point x="128" y="722" type="curve"/>
      <point x="128" y="481"/>
      <point x="128" y="241"/>
      <point x="128" y="0" type="curve"/>
      <point x="271" y="0"/>
      <point x="128" y="0"/>
    </contour>
    <contour>
      <point x="191" y="0" type="curve"/>
      <point x="301" y="0"/>
      <point x="411" y="0"/>
      <point x="521" y="0" type="curve"/>
      <point x="521" y="110"/>
      <point x="521" y="0"/>
      <point x="521" y="110" type="curve"/>
      <point x="411" y="110"/>
      <point x="301" y="110"/>
      <point x="191" y="110" type="curve"/>
      <point x="191" y="0"/>
      <point x="191" y="110"/>
    </contour>
    <contour>
      <point x="377" y="850" type="curve"/>
      <point x="377" y="898"/>
      <point x="345" y="922"/>
      <point x="302" y="922" type="curve"/>
      <point x="258" y="922"/>
      <point x="229" y="896"/>
      <point x="229" y="850" type="curve"/>
      <point x="377" y="850"/>
      <point x="229" y="850"/>
      <point x="377" y="850" type="curve"/>
      <point x="377" y="801"/>
      <point x="346" y="779"/>
      <point x="302" y="779" type="curve"/>
      <point x="257" y="779"/>
      <point x="229" y="803"/>
      <point x="229" y="850" type="curve"/>
      <point x="377" y="850"/>
      <point x="229" y="850"/>
    </contour>
  </outline>
</glyph>
<glyph name="Eogonek" format="1">
  <advance width="562"/>
  <unicode hex="0118"/>
  <outline>
    <contour>
      <point x="521" y="55" type="curve"/>
      <point x="521" y="175"/>
      <point x="521" y="55"/>
      <point x="521" y="175" type="curve"/>
      <point x="409" y="175"/>
      <point x="521" y="175"/>
      <point x="409" y="175" type="curve"/>
      <point x="409" y="55"/>
      <point x="409" y="175"/>
      <point x="409" y="55" type="curve"/>
      <point x="521" y="55"/>
      <point x="409" y="55"/>
    </contour>
    <contour>
      <point x="384" y="667" type="curve"/>
      <point x="384" y="547"/>
      <point x="384" y="667"/>
      <point x="384" y="547" type="curve"/>
      <point x="496" y="547"/>
      <point x="384" y="547"/>
      <point x="496" y="547" type="curve"/>
      <point x="496" y="667"/>
      <point x="496" y="547"/>
      <point x="496" y="667" type="curve"/>
      <point x="384" y="667"/>
      <point x="496" y="667"/>
    </contour>
    <contour>
      <point x="200" y="110" type="curve"/>
      <point x="63" y="110"/>
      <point x="200" y="110"/>
      <point x="63" y="110" type="curve"/>
      <point x="63" y="0"/>
      <point x="63" y="110"/>
      <point x="63" y="0" type="curve"/>
      <point x="109" y="0"/>
      <point x="155" y="0"/>
      <point x="200" y="0" type="curve"/>
      <point x="200" y="110"/>
      <point x="200" y="0"/>
    </contour>
    <contour>
      <point x="200" y="722" type="curve"/>
      <point x="155" y="722"/>
      <point x="109" y="722"/>
      <point x="63" y="722" type="curve"/>
      <point x="63" y="612"/>
      <point x="63" y="722"/>
      <point x="63" y="612" type="curve"/>
      <point x="200" y="612"/>
      <point x="63" y="612"/>
      <point x="200" y="612" type="curve"/>
      <point x="200" y="722"/>
      <point x="200" y="612"/>
    </contour>
    <contour>
      <point x="203" y="317" type="curve"/>
      <point x="284" y="317"/>
      <point x="367" y="317"/>
      <point x="449" y="317" type="curve"/>
      <point x="449" y="428"/>
      <point x="449" y="317"/>
      <point x="449" y="428" type="curve"/>
      <point x="367" y="428"/>
      <point x="284" y="428"/>
      <point x="203" y="428" type="curve"/>
      <point x="203" y="317"/>
      <point x="203" y="428"/>
    </contour>
    <contour>
      <point x="191" y="612" type="curve"/>
      <point x="293" y="612"/>
      <point x="394" y="612"/>
      <point x="496" y="612" type="curve"/>
      <point x="496" y="722"/>
      <point x="496" y="612"/>
      <point x="496" y="722" type="curve"/>
      <point x="394" y="722"/>
      <point x="293" y="722"/>
      <point x="191" y="722" type="curve"/>
      <point x="191" y="612"/>
      <point x="191" y="722"/>
    </contour>
    <contour>
      <point x="271" y="0" type="curve"/>
      <point x="271" y="0"/>
      <point x="271" y="722"/>
      <point x="271" y="722" type="curve"/>
      <point x="128" y="722"/>
      <point x="271" y="722"/>
      <point x="128" y="722" type="curve"/>
      <point x="128" y="481"/>
      <point x="128" y="241"/>
      <point x="128" y="0" type="curve"/>
      <point x="271" y="0"/>
      <point x="128" y="0"/>
    </contour>
    <contour>
      <point x="191" y="0" type="curve"/>
      <point x="301" y="0"/>
      <point x="411" y="0"/>
      <point x="521" y="0" type="curve"/>
      <point x="521" y="110"/>
      <point x="521" y="0"/>
      <point x="521" y="110" type="curve"/>
      <point x="411" y="110"/>
      <point x="301" y="110"/>
      <point x="191" y="110" type="curve"/>
      <point x="191" y="0"/>
      <point x="191" y="110"/>
    </contour>
    <contour>
      <point x="460" y="80" type="curve"/>
      <point x="398" y="45"/>
      <point x="343" y="18"/>
      <point x="343" y="-52" type="curve"/>
      <point x="343" y="-128"/>
      <point x="387" y="-180"/>
      <point x="463" y="-180" type="curve"/>
      <point x="500" y="-180"/>
      <point x="525" y="-169"/>
      <point x="555" y="-147" type="curve"/>
      <point x="490" y="-59"/>
      <point x="555" y="-147"/>
      <point x="490" y="-59" type="curve"/>
      <point x="484" y="-63"/>
      <point x="477" y="-70"/>
      <point x="470" y="-70" type="curve"/>
      <point x="461" y="-70"/>
      <point x="455" y="-62"/>
      <point x="455" y="-52" type="curve"/>
      <point x="455" y="-24"/>
      <point x="488" y="-13"/>
      <point x="512" y="3" type="curve"/>
      <point x="460" y="80"/>
      <point x="512" y="3"/>
    </contour>
  </outline>
</glyph>
<glyph name="eogonek" format="1">
  <advance width="498"/>
  <unicode hex="0119"/>
  <outline>
    <contour>
      <point x="110" y="226" type="curve"/>
      <point x="208" y="226"/>
      <point x="306" y="226"/>
      <point x="404" y="226" type="curve"/>
      <point x="465" y="226"/>
      <point x="404" y="226"/>
      <point x="465" y="226" type="curve"/>
      <point x="465" y="274"/>
      <point x="465" y="226"/>
      <point x="465" y="274" type="curve"/>
      <point x="465" y="280"/>
      <point x="465" y="286"/>
      <point x="465" y="292" type="curve"/>
      <point x="465" y="442"/>
      <point x="398" y="538"/>
      <point x="260" y="538" type="curve"/>
      <point x="112" y="538"/>
      <point x="38" y="438"/>
      <point x="38" y="278" type="curve"/>
      <point x="38" y="106"/>
      <point x="117" y="-5"/>
      <point x="276" y="-5" type="curve"/>
      <point x="346" y="-5"/>
      <point x="390" y="22"/>
      <point x="443" y="73" type="curve"/>
      <point x="357" y="151"/>
      <point x="443" y="73"/>
      <point x="357" y="151" type="curve"/>
      <point x="333" y="125"/>
      <point x="311" y="111"/>
      <point x="276" y="111" type="curve"/>
      <point x="193" y="111"/>
      <point x="179" y="184"/>
      <point x="179" y="278" type="curve"/>
      <point x="179" y="358"/>
      <point x="184" y="423"/>
      <point x="254" y="423" type="curve"/>
      <point x="313" y="423"/>
      <point x="329" y="372"/>
      <point x="329" y="303" type="curve"/>
      <point x="329" y="293"/>
      <point x="329" y="284"/>
      <point x="329" y="274" type="curve"/>
      <point x="341" y="286"/>
      <point x="353" y="296"/>
      <point x="365" y="308" type="curve"/>
      <point x="376" y="319"/>
      <point x="393" y="318"/>
      <point x="404" y="330" type="curve"/>
      <point x="306" y="330"/>
      <point x="208" y="330"/>
      <point x="110" y="330" type="curve"/>
      <point x="110" y="220"/>
      <point x="110" y="336"/>
    </contour>
    <contour>
      <point x="301" y="90" type="curve"/>
      <point x="239" y="55"/>
      <point x="184" y="28"/>
      <point x="184" y="-42" type="curve"/>
      <point x="184" y="-118"/>
      <point x="228" y="-170"/>
      <point x="304" y="-170" type="curve"/>
      <point x="341" y="-170"/>
      <point x="366" y="-159"/>
      <point x="396" y="-137" type="curve"/>
      <point x="331" y="-49"/>
      <point x="396" y="-137"/>
      <point x="331" y="-49" type="curve"/>
      <point x="325" y="-53"/>
      <point x="318" y="-60"/>
      <point x="311" y="-60" type="curve"/>
      <point x="302" y="-60"/>
      <point x="296" y="-52"/>
      <point x="296" y="-42" type="curve"/>
      <point x="296" y="-14"/>
      <point x="329" y="-3"/>
      <point x="353" y="13" type="curve"/>
      <point x="301" y="90"/>
      <point x="353" y="13"/>
    </contour>
  </outline>
</glyph>
<glyph name="Imacron" format="1">
  <advance width="352"/>
  <unicode hex="012A"/>
  <outline>
    <contour>
      <point x="177" y="722" type="curve"/>
      <point x="131" y="722"/>
      <point x="85" y="722"/>
      <point x="39" y="722" type="curve"/>
      <point x="39" y="612"/>
      <point x="39" y="722"/>
      <point x="39" y="612" type="curve"/>
      <point x="177" y="612"/>
      <point x="39" y="612"/>
      <point x="177" y="612" type="curve"/>
      <point x="177" y="722"/>
      <point x="177" y="612"/>
    </contour>
    <contour>
      <point x="177" y="612" type="curve"/>
      <point x="314" y="612"/>
      <point x="177" y="612"/>
      <point x="314" y="612" type="curve"/>
      <point x="314" y="722"/>
      <point x="314" y="612"/>
      <point x="314" y="722" type="curve"/>
      <point x="268" y="722"/>
      <point x="222" y="722"/>
      <point x="177" y="722" type="curve"/>
      <point x="177" y="612"/>
      <point x="177" y="722"/>
    </contour>
    <contour>
      <point x="177" y="0" type="curve"/>
      <point x="222" y="0"/>
      <point x="268" y="0"/>
      <point x="314" y="0" type="curve"/>
      <point x="314" y="110"/>
      <point x="314" y="0"/>
      <point x="314" y="110" type="curve"/>
      <point x="177" y="110"/>
      <point x="314" y="110"/>
      <point x="177" y="110" type="curve"/>
      <point x="177" y="0"/>
      <point x="177" y="110"/>
    </contour>
    <contour>
      <point x="177" y="110" type="curve"/>
      <point x="39" y="110"/>
      <point x="177" y="110"/>
      <point x="39" y="110" type="curve"/>
      <point x="39" y="0"/>
      <point x="39" y="110"/>
      <point x="39" y="0" type="curve"/>
      <point x="85" y="0"/>
      <point x="131" y="0"/>
      <point x="177" y="0" type="curve"/>
      <point x="177" y="110"/>
      <point x="177" y="0"/>
    </contour>
    <contour>
      <point x="247" y="0" type="curve"/>
      <point x="247" y="241"/>
      <point x="247" y="481"/>
      <point x="247" y="722" type="curve"/>
      <point x="104" y="722"/>
      <point x="247" y="722"/>
      <point x="104" y="722" type="curve"/>
      <point x="104" y="481"/>
      <point x="104" y="241"/>
      <point x="104" y="0" type="curve"/>
      <point x="247" y="0"/>
      <point x="104" y="0"/>
    </contour>
    <contour>
      <point x="262" y="890" type="curve"/>
      <point x="206" y="890"/>
      <point x="149" y="890"/>
      <point x="93" y="890" type="curve"/>
      <point x="93" y="780"/>
      <point x="93" y="890"/>
      <point x="93" y="780" type="curve"/>
      <point x="149" y="780"/>
      <point x="206" y="780"/>
      <point x="262" y="780" type="curve"/>
      <point x="262" y="890"/>
      <point x="262" y="780"/>
    </contour>
  </outline>
</glyph>
<glyph name="Iogonek" format="1">
  <advance width="352"/>
  <unicode hex="012E"/>
  <outline>
    <contour>
      <point x="177" y="722" type="curve"/>
      <point x="131" y="722"/>
      <point x="85" y="722"/>
      <point x="39" y="722" type="curve"/>
      <point x="39" y="612"/>
      <point x="39" y="722"/>
      <point x="39" y="612" type="curve"/>
      <point x="177" y="612"/>
      <point x="39" y="612"/>
      <point x="177" y="612" type="curve"/>
      <point x="177" y="722"/>
      <point x="177" y="612"/>
    </contour>
    <contour>
      <point x="177" y="612" type="curve"/>
      <point x="314" y="612"/>
      <point x="177" y="612"/>
      <point x="314" y="612" type="curve"/>
      <point x="314" y="722"/>
      <point x="314" y="612"/>
      <point x="314" y="722" type="curve"/>
      <point x="268" y="722"/>
      <point x="222" y="722"/>
      <point x="177" y="722" type="curve"/>
      <point x="177" y="612"/>
      <point x="177" y="722"/>
    </contour>
    <contour>
      <point x="177" y="0" type="curve"/>
      <point x="222" y="0"/>
      <point x="268" y="0"/>
      <point x="314" y="0" type="curve"/>
      <point x="314" y="110"/>
      <point x="314" y="0"/>
      <point x="314" y="110" type="curve"/>
      <point x="177" y="110"/>
      <point x="314" y="110"/>
      <point x="177" y="110" type="curve"/>
      <point x="177" y="0"/>
      <point x="177" y="110"/>
    </contour>
    <contour>
      <point x="177" y="110" type="curve"/>
      <point x="39" y="110"/>
      <point x="177" y="110"/>
      <point x="39" y="110" type="curve"/>
      <point x="39" y="0"/>
      <point x="39" y="110"/>
      <point x="39" y="0" type="curve"/>
      <point x="85" y="0"/>
      <point x="131" y="0"/>
      <point x="177" y="0" type="curve"/>
      <point x="177" y="110"/>
      <point x="177" y="0"/>
    </contour>
    <contour>
      <point x="247" y="0" type="curve"/>
      <point x="247" y="241"/>
      <point x="247" y="481"/>
      <point x="247" y="722" type="curve"/>
      <point x="104" y="722"/>
      <point x="247" y="722"/>
      <point x="104" y="722" type="curve"/>
      <point x="104" y="481"/>
      <point x="104" y="241"/>
      <point x="104" y="0" type="curve"/>
      <point x="247" y="0"/>
      <point x="104" y="0"/>
    </contour>
    <contour>
      <point x="198" y="81" type="curve"/>
      <point x="136" y="46"/>
      <point x="81" y="19"/>
      <point x="81" y="-51" type="curve"/>
      <point x="81" y="-127"/>
      <point x="125" y="-179"/>
      <point x="201" y="-179" type="curve"/>
      <point x="238" y="-179"/>
      <point x="263" y="-168"/>
      <point x="293" y="-146" type="curve"/>
      <point x="228" y="-58"/>
      <point x="293" y="-146"/>
      <point x="228" y="-58" type="curve"/>
      <point x="222" y="-62"/>
      <point x="215" y="-69"/>
      <point x="208" y="-69" type="curve"/>
      <point x="199" y="-69"/>
      <point x="193" y="-61"/>
      <point x="193" y="-51" type="curve"/>
      <point x="193" y="-23"/>
      <point x="226" y="-12"/>
      <point x="250" y="4" type="curve"/>
      <point x="198" y="81"/>
      <point x="250" y="4"/>
    </contour>
  </outline>
</glyph>
<glyph name="Idotaccent" format="1">
  <advance width="352"/>
  <unicode hex="0130"/>
  <outline>
    <contour>
      <point x="177" y="722" type="curve"/>
      <point x="131" y="722"/>
      <point x="85" y="722"/>
      <point x="39" y="722" type="curve"/>
      <point x="39" y="612"/>
      <point x="39" y="722"/>
      <point x="39" y="612" type="curve"/>
      <point x="177" y="612"/>
      <point x="39" y="612"/>
      <point x="177" y="612" type="curve"/>
      <point x="177" y="722"/>
      <point x="177" y="612"/>
    </contour>
    <contour>
      <point x="177" y="612" type="curve"/>
      <point x="314" y="612"/>
      <point x="177" y="612"/>
      <point x="314" y="612" type="curve"/>
      <point x="314" y="722"/>
      <point x="314" y="612"/>
      <point x="314" y="722" type="curve"/>
      <point x="268" y="722"/>
      <point x="222" y="722"/>
      <point x="177" y="722" type="curve"/>
      <point x="177" y="612"/>
      <point x="177" y="722"/>
    </contour>
    <contour>
      <point x="177" y="0" type="curve"/>
      <point x="222" y="0"/>
      <point x="268" y="0"/>
      <point x="314" y="0" type="curve"/>
      <point x="314" y="110"/>
      <point x="314" y="0"/>
      <point x="314" y="110" type="curve"/>
      <point x="177" y="110"/>
      <point x="314" y="110"/>
      <point x="177" y="110" type="curve"/>
      <point x="177" y="0"/>
      <point x="177" y="110"/>
    </contour>
    <contour>
      <point x="177" y="110" type="curve"/>
      <point x="39" y="110"/>
      <point x="177" y="110"/>
      <point x="39" y="110" type="curve"/>
      <point x="39" y="0"/>
      <point x="39" y="110"/>
      <point x="39" y="0" type="curve"/>
      <point x="85" y="0"/>
      <point x="131" y="0"/>
      <point x="177" y="0" type="curve"/>
      <point x="177" y="110"/>
      <point x="177" y="0"/>
    </contour>
    <contour>
      <point x="247" y="0" type="curve"/>
      <point x="247" y="241"/>
      <point x="247" y="481"/>
      <point x="247" y="722" type="curve"/>
      <point x="104" y="722"/>
      <point x="247" y="722"/>
      <point x="104" y="722" type="curve"/>
      <point x="104" y="481"/>
      <point x="104" y="241"/>
      <point x="104" y="0" type="curve"/>
      <point x="247" y="0"/>
      <point x="104" y="0"/>
    </contour>
    <contour>
      <point x="254" y="842" type="curve"/>
      <point x="254" y="890"/>
      <point x="222" y="914"/>
      <point x="179" y="914" type="curve"/>
      <point x="135" y="914"/>
      <point x="106" y="888"/>
      <point x="106" y="842" type="curve"/>
      <point x="254" y="842"/>
      <point x="106" y="842"/>
      <point x="254" y="842" type="curve"/>
      <point x="254" y="793"/>
      <point x="223" y="771"/>
      <point x="179" y="771" type="curve"/>
      <point x="134" y="771"/>
      <point x="106" y="795"/>
      <point x="106" y="842" type="curve"/>
      <point x="254" y="842"/>
      <point x="106" y="842"/>
    </contour>
  </outline>
</glyph>
<glyph name="Kcommaaccent" format="1">
  <advance width="649"/>
  <unicode hex="0136"/>
  <outline>
    <contour>
      <point x="488" y="722" type="curve"/>
      <point x="441" y="722"/>
      <point x="388" y="722"/>
      <point x="343" y="722" type="curve"/>
      <point x="343" y="612"/>
      <point x="343" y="722"/>
      <point x="343" y="612" type="curve"/>
      <point x="481" y="612"/>
      <point x="349" y="612"/>
      <point x="488" y="612" type="curve"/>
      <point x="488" y="722"/>
      <point x="488" y="612"/>
    </contour>
    <contour>
      <point x="484" y="0" type="curve"/>
      <point x="550" y="0"/>
      <point x="557" y="0"/>
      <point x="623" y="0" type="curve"/>
      <point x="623" y="110"/>
      <point x="623" y="0"/>
      <point x="623" y="110" type="curve"/>
      <point x="427" y="110"/>
      <point x="680" y="110"/>
      <point x="484" y="110" type="curve"/>
      <point x="484" y="0"/>
      <point x="484" y="110"/>
    </contour>
    <contour>
      <point x="458" y="612" type="curve"/>
      <point x="595" y="612"/>
      <point x="458" y="612"/>
      <point x="595" y="612" type="curve"/>
      <point x="595" y="722"/>
      <point x="595" y="612"/>
      <point x="595" y="722" type="curve"/>
      <point x="550" y="722"/>
      <point x="504" y="722"/>
      <point x="458" y="722" type="curve"/>
      <point x="458" y="612"/>
      <point x="458" y="722"/>
    </contour>
    <contour>
      <point x="171" y="722" type="curve"/>
      <point x="127" y="722"/>
      <point x="82" y="722"/>
      <point x="38" y="722" type="curve"/>
      <point x="38" y="612"/>
      <point x="38" y="722"/>
      <point x="38" y="612" type="curve"/>
      <point x="171" y="612"/>
      <point x="38" y="612"/>
      <point x="171" y="612" type="curve"/>
      <point x="171" y="722"/>
      <point x="171" y="612"/>
    </contour>
    <contour>
      <point x="171" y="612" type="curve"/>
      <point x="309" y="612"/>
      <point x="135" y="612"/>
      <point x="273" y="612" type="curve"/>
      <point x="273" y="722"/>
      <point x="273" y="612"/>
      <point x="273" y="722" type="curve"/>
      <point x="227" y="722"/>
      <point x="217" y="722"/>
      <point x="171" y="722" type="curve"/>
      <point x="171" y="612"/>
      <point x="171" y="722"/>
    </contour>
    <contour>
      <point x="171" y="0" type="curve"/>
      <point x="221" y="0"/>
      <point x="134" y="0"/>
      <point x="286" y="0" type="curve"/>
      <point x="286" y="110"/>
      <point x="286" y="0"/>
      <point x="286" y="110" type="curve"/>
      <point x="134" y="110"/>
      <point x="322" y="110"/>
      <point x="171" y="110" type="curve"/>
      <point x="171" y="0"/>
      <point x="171" y="110"/>
    </contour>
    <contour>
      <point x="171" y="110" type="curve"/>
      <point x="38" y="110"/>
      <point x="171" y="110"/>
      <point x="38" y="110" type="curve"/>
      <point x="38" y="0"/>
      <point x="38" y="110"/>
      <point x="38" y="0" type="curve"/>
      <point x="82" y="0"/>
      <point x="127" y="0"/>
      <point x="171" y="0" type="curve"/>
      <point x="171" y="110"/>
      <point x="171" y="0"/>
    </contour>
    <contour>
      <point x="463" y="722" type="curve"/>
      <point x="230" y="380" type="line"/>
      <point x="382" y="380"/>
      <point x="230" y="380"/>
      <point x="382" y="380" type="curve"/>
      <point x="562" y="658" type="line"/>
      <point x="463" y="658"/>
      <point x="562" y="722"/>
    </contour>
    <contour>
      <point x="243" y="0" type="curve"/>
      <point x="243" y="0"/>
      <point x="243" y="722"/>
      <point x="243" y="722" type="curve"/>
      <point x="100" y="722"/>
      <point x="243" y="722"/>
      <point x="100" y="722" type="curve"/>
      <point x="100" y="481"/>
      <point x="100" y="241"/>
      <point x="100" y="0" type="curve"/>
      <point x="243" y="0"/>
      <point x="100" y="0"/>
    </contour>
    <contour>
      <point x="594" y="52" type="curve"/>
      <point x="382" y="380" type="line"/>
      <point x="230" y="380"/>
      <point x="382" y="380"/>
      <point x="230" y="380" type="curve"/>
      <point x="480" y="0" type="line"/>
      <point x="594" y="0"/>
      <point x="480" y="52"/>
    </contour>
    <contour>
      <point x="216" y="-392" type="line"/>
      <point x="313" y="-392"/>
      <point x="377" y="-322"/>
      <point x="377" y="-215" type="curve"/>
      <point x="377" y="-126"/>
      <point x="343" y="-80"/>
      <point x="296" y="-80" type="curve"/>
      <point x="252" y="-80"/>
      <point x="223" y="-105"/>
      <point x="223" y="-152" type="curve"/>
      <point x="223" y="-190"/>
      <point x="244" y="-220"/>
      <point x="283" y="-220" type="curve"/>
      <point x="283" y="-247"/>
      <point x="281" y="-302"/>
      <point x="216" y="-314" type="curve"/>
    </contour>
  </outline>
</glyph>
